<svg width="48" height="48" viewBox="0 0 48 48" fill="none" xmlns="http://www.w3.org/2000/svg">
<g id="App store">
<rect id="Rectangle 7" x="0.75" y="0.75" width="46.5" height="46.5" rx="6" stroke="url(#paint0_linear)" stroke-width="1.5"/>
<g id="Frame 1">
<path id="Vector" d="M11.751 29.1892C11.3749 29.1892 11.0141 29.0398 10.7482 28.7738C10.4822 28.5078 10.3328 28.1471 10.3328 27.7709C10.3328 27.3948 10.4822 27.034 10.7482 26.7681C11.0141 26.5021 11.3749 26.3526 11.751 26.3526H26.643C28.0613 26.3526 29.4796 29.1892 28.7704 29.1892H11.751ZM31.607 29.1892C31.2309 29.1892 30.8701 29.0398 30.6041 28.7738C30.3381 28.5078 30.1887 28.1471 30.1887 27.7709C30.1887 27.3948 30.3381 27.034 30.6041 26.7681C30.8701 26.5021 31.2309 26.3526 31.607 26.3526H37.2801C37.6563 26.3526 38.017 26.5021 38.283 26.7681C38.549 27.034 38.6984 27.3948 38.6984 27.7709C38.6984 28.1471 38.549 28.5078 38.283 28.7738C38.017 29.0398 37.6563 29.1892 37.2801 29.1892H31.607ZM25.4134 10.0438C25.6011 9.71769 25.9106 9.47949 26.274 9.38161C26.6373 9.28373 27.0246 9.33419 27.3507 9.52189C27.6769 9.70959 27.9151 10.0192 28.0129 10.3825C28.1108 10.7458 28.0604 11.1331 27.8727 11.4593L18.0766 28.473C17.9837 28.6345 17.86 28.7761 17.7124 28.8897C17.5648 29.0034 17.3963 29.0869 17.2165 29.1354C17.0367 29.1839 16.849 29.1966 16.6643 29.1726C16.4796 29.1486 16.3014 29.0885 16.1399 28.9956C15.9784 28.9028 15.8368 28.779 15.7232 28.6315C15.6095 28.4839 15.526 28.3154 15.4775 28.1355C15.429 27.9557 15.4163 27.7681 15.4403 27.5833C15.4643 27.3986 15.5244 27.2204 15.6173 27.059L25.4134 10.0424V10.0438ZM13.1693 31.3166C13.8785 29.8984 18.1333 28.4801 16.715 30.9195C15.9455 32.2353 15.1735 33.5495 14.399 34.8623C14.2113 35.1885 13.9017 35.4267 13.5384 35.5246C13.1751 35.6224 12.7877 35.572 12.4616 35.3843C12.1355 35.1966 11.8973 34.887 11.7994 34.5237C11.7015 34.1604 11.752 33.773 11.9397 33.4469L13.1693 31.3166ZM20.4494 11.4593C20.2617 11.1331 20.2112 10.7458 20.3091 10.3825C20.407 10.0192 20.6452 9.70959 20.9713 9.52189C21.2974 9.33419 21.6848 9.28373 22.0481 9.38161C22.4114 9.47949 22.721 9.71769 22.9087 10.0438L25.3807 14.3398C25.4766 14.5013 25.5395 14.6803 25.5657 14.8663C25.5918 15.0523 25.5808 15.2416 25.5332 15.4233C25.4856 15.605 25.4023 15.7755 25.2883 15.9248C25.1743 16.074 25.0318 16.1992 24.869 16.2929C24.7062 16.3866 24.5264 16.4471 24.3401 16.4708C24.1538 16.4945 23.9646 16.4809 23.7835 16.4309C23.6025 16.3809 23.4332 16.2954 23.2854 16.1794C23.1377 16.0634 23.0144 15.9192 22.9229 15.7552L20.4494 11.4593ZM25.9339 21.3887C24.6603 19.2612 25.9339 15.0064 26.9494 17.1281L36.3809 33.4441C36.5627 33.7696 36.609 34.1537 36.5097 34.5131C36.4104 34.8726 36.1735 35.1784 35.8504 35.3645C35.5272 35.5506 35.1438 35.6019 34.7831 35.5074C34.4224 35.4129 34.1134 35.1801 33.9231 34.8595L25.9339 21.3887Z" fill="#8BDB58"/>
</g>
</g>
<defs>
<linearGradient id="paint0_linear" x1="24" y1="0" x2="24" y2="48" gradientUnits="userSpaceOnUse">
<stop stop-color="#8BDB58"/>
<stop offset="1" stop-color="#63FF00"/>
</linearGradient>
</defs>
</svg>
