<svg  height="744" viewBox="0 0 1408 744" fill="none" xmlns="http://www.w3.org/2000/svg">
<g id="BG" clip-path="url(#clip0)">
<rect  height="744" fill="#F8F8F8"/>
<path id="Arrow 8" class="Arrow-8"  opacity="0.55" d="M1258.58 418.536C1261.97 418.536 1264.71 416.953 1264.71 415L1264.71 383.18C1264.71 381.228 1261.97 379.645 1258.58 379.645C1255.2 379.645 1252.46 381.228 1252.46 383.18L1252.46 411.464L1203.47 411.464C1200.09 411.464 1197.35 413.047 1197.35 415C1197.35 416.953 1200.09 418.536 1203.47 418.536L1258.58 418.536ZM1141.67 352.5L1254.25 417.5L1262.91 412.5L1150.33 347.5L1141.67 352.5Z" fill="url(#paint0_linear)"/>
<path id="Arrow 9" class="Arrow-9" opacity="0.55" d="M1085.58 290.536C1088.97 290.536 1091.71 288.953 1091.71 287L1091.71 255.18C1091.71 253.228 1088.97 251.645 1085.58 251.645C1082.2 251.645 1079.46 253.228 1079.46 255.18L1079.46 283.464L1030.47 283.464C1027.09 283.464 1024.35 285.047 1024.35 287C1024.35 288.953 1027.09 290.536 1030.47 290.536L1085.58 290.536ZM968.67 224.5L1081.25 289.5L1089.91 284.5L977.33 219.5L968.67 224.5Z" fill="url(#paint1_linear)"/>
<path id="Arrow 7" class="Arrow-7" opacity="0.55" d="M1392.58 375.536C1395.97 375.536 1398.71 373.953 1398.71 372L1398.71 340.18C1398.71 338.228 1395.97 336.645 1392.58 336.645C1389.2 336.645 1386.46 338.228 1386.46 340.18L1386.46 368.464L1337.47 368.464C1334.09 368.464 1331.35 370.047 1331.35 372C1331.35 373.953 1334.09 375.536 1337.47 375.536L1392.58 375.536ZM1275.67 309.5L1388.25 374.5L1396.91 369.5L1284.33 304.5L1275.67 309.5Z" fill="url(#paint2_linear)"/>
<path id="Arrow 10" class="Arrow-10" opacity="0.55" d="M1228.58 277.536C1231.97 277.536 1234.71 275.953 1234.71 274L1234.71 242.18C1234.71 240.228 1231.97 238.645 1228.58 238.645C1225.2 238.645 1222.46 240.228 1222.46 242.18L1222.46 270.464L1173.47 270.464C1170.09 270.464 1167.35 272.047 1167.35 274C1167.35 275.953 1170.09 277.536 1173.47 277.536L1228.58 277.536ZM1111.67 211.5L1224.25 276.5L1232.91 271.5L1120.33 206.5L1111.67 211.5Z" fill="url(#paint3_linear)"/>
<path id="Arrow 11" class="Arrow-11" opacity="0.55" d="M1427.58 537.536C1430.97 537.536 1433.71 535.953 1433.71 534L1433.71 502.18C1433.71 500.228 1430.97 498.645 1427.58 498.645C1424.2 498.645 1421.46 500.228 1421.46 502.18L1421.46 530.464L1372.47 530.464C1369.09 530.464 1366.35 532.047 1366.35 534C1366.35 535.953 1369.09 537.536 1372.47 537.536L1427.58 537.536ZM1310.67 471.5L1423.25 536.5L1431.91 531.5L1319.33 466.5L1310.67 471.5Z" fill="url(#paint4_linear)"/>
<path id="Arrow 6" class="Arrow-6" opacity="0.55" d="M1371.58 234.536C1374.97 234.536 1377.71 232.953 1377.71 231L1377.71 199.18C1377.71 197.228 1374.97 195.645 1371.58 195.645C1368.2 195.645 1365.46 197.228 1365.46 199.18L1365.46 227.464L1316.47 227.464C1313.09 227.464 1310.35 229.047 1310.35 231C1310.35 232.953 1313.09 234.536 1316.47 234.536L1371.58 234.536ZM1254.67 168.5L1367.25 233.5L1375.91 228.5L1263.33 163.5L1254.67 168.5Z" fill="url(#paint5_linear)"/>
<path id="Arrow 5" class="Arrow-5" opacity="0.55" d="M1238.58 136.536C1241.97 136.536 1244.71 134.953 1244.71 133L1244.71 101.18C1244.71 99.2276 1241.97 97.6447 1238.58 97.6447C1235.2 97.6447 1232.46 99.2276 1232.46 101.18L1232.46 129.464L1183.47 129.464C1180.09 129.464 1177.35 131.047 1177.35 133C1177.35 134.953 1180.09 136.536 1183.47 136.536L1238.58 136.536ZM1121.67 70.5L1234.25 135.5L1242.91 130.5L1130.33 65.5L1121.67 70.5Z" fill="url(#paint6_linear)"/>
<path id="Arrow 4" class="Arrow-4" opacity="0.55" d="M1066.58 72.5355C1069.97 72.5355 1072.71 70.9526 1072.71 69L1072.71 37.1802C1072.71 35.2276 1069.97 33.6447 1066.58 33.6447C1063.2 33.6447 1060.46 35.2276 1060.46 37.1802L1060.46 65.4645L1011.47 65.4645C1008.09 65.4645 1005.35 67.0474 1005.35 69C1005.35 70.9526 1008.09 72.5355 1011.47 72.5355L1066.58 72.5355ZM949.67 6.5L1062.25 71.5L1070.91 66.5L958.33 1.5L949.67 6.5Z" fill="url(#paint7_linear)"/>
<path id="Arrow 3" class="Arrow-3" opacity="0.55" d="M931.583 137.536C934.965 137.536 937.707 135.953 937.707 134L937.707 102.18C937.707 100.228 934.965 98.6447 931.583 98.6447C928.201 98.6447 925.46 100.228 925.46 102.18L925.46 130.464L876.47 130.464C873.088 130.464 870.346 132.047 870.346 134C870.346 135.953 873.088 137.536 876.47 137.536L931.583 137.536ZM814.67 71.5L927.253 136.5L935.913 131.5L823.33 66.5L814.67 71.5Z" fill="url(#paint8_linear)"/>
<path id="Arrow 2" class="Arrow-2" opacity="0.55" d="M900.583 24.5355C903.965 24.5355 906.707 22.9526 906.707 21L906.707 -10.8198C906.707 -12.7724 903.965 -14.3553 900.583 -14.3553C897.201 -14.3553 894.46 -12.7724 894.46 -10.8198L894.46 17.4645L845.47 17.4645C842.088 17.4645 839.346 19.0474 839.346 21C839.346 22.9526 842.088 24.5355 845.47 24.5355L900.583 24.5355ZM783.67 -41.5L896.253 23.5L904.913 18.5L792.33 -46.5L783.67 -41.5Z" fill="url(#paint9_linear)"/>
<path id="Arrow 1" class="Arrow-1" opacity="0.55" d="M1066.58 152.536C1069.97 152.536 1072.71 150.953 1072.71 149L1072.71 117.18C1072.71 115.228 1069.97 113.645 1066.58 113.645C1063.2 113.645 1060.46 115.228 1060.46 117.18L1060.46 145.464L1011.47 145.464C1008.09 145.464 1005.35 147.047 1005.35 149C1005.35 150.953 1008.09 152.536 1011.47 152.536L1066.58 152.536ZM949.67 86.5L1062.25 151.5L1070.91 146.5L958.33 81.5L949.67 86.5Z" fill="url(#paint10_linear)"/>
</g>
<defs>
<linearGradient id="paint0_linear" x1="1258.58" y1="415" x2="1211.82" y2="334" gradientUnits="userSpaceOnUse">
<stop stop-color="#8BDB58"/>
<stop offset="0.53125" stop-color="#8BDB58" stop-opacity="0.4"/>
<stop offset="1" stop-color="#8BDB58"/>
<stop offset="1" stop-color="#8BDB58" stop-opacity="0"/>
</linearGradient>
<linearGradient id="paint1_linear" x1="1085.58" y1="287" x2="1038.82" y2="206" gradientUnits="userSpaceOnUse">
<stop stop-color="#8BDB58"/>
<stop offset="0.53125" stop-color="#8BDB58" stop-opacity="0.4"/>
<stop offset="1" stop-color="#8BDB58"/>
<stop offset="1" stop-color="#8BDB58" stop-opacity="0"/>
</linearGradient>
<linearGradient id="paint2_linear" x1="1392.58" y1="372" x2="1345.82" y2="291" gradientUnits="userSpaceOnUse">
<stop stop-color="#8BDB58"/>
<stop offset="0.817708" stop-color="#8BDB58" stop-opacity="0.4"/>
<stop offset="1" stop-color="#8BDB58" stop-opacity="0"/>
</linearGradient>
<linearGradient id="paint3_linear" x1="1228.58" y1="274" x2="1181.82" y2="193" gradientUnits="userSpaceOnUse">
<stop stop-color="#8BDB58"/>
<stop offset="0.817708" stop-color="#8BDB58" stop-opacity="0.4"/>
<stop offset="1" stop-color="#8BDB58" stop-opacity="0"/>
</linearGradient>
<linearGradient id="paint4_linear" x1="1427.58" y1="534" x2="1380.82" y2="453" gradientUnits="userSpaceOnUse">
<stop stop-color="#8BDB58"/>
<stop offset="0.817708" stop-color="#8BDB58" stop-opacity="0.4"/>
<stop offset="1" stop-color="#8BDB58" stop-opacity="0"/>
</linearGradient>
<linearGradient id="paint5_linear" x1="1371.58" y1="231" x2="1324.82" y2="150" gradientUnits="userSpaceOnUse">
<stop stop-color="#8BDB58"/>
<stop offset="0.53125" stop-color="#8BDB58" stop-opacity="0.4"/>
<stop offset="1" stop-color="#8BDB58" stop-opacity="0"/>
</linearGradient>
<linearGradient id="paint6_linear" x1="1238.58" y1="133" x2="1191.82" y2="52" gradientUnits="userSpaceOnUse">
<stop stop-color="#8BDB58"/>
<stop offset="0.53125" stop-color="#8BDB58" stop-opacity="0.4"/>
<stop offset="1" stop-color="#8BDB58" stop-opacity="0"/>
</linearGradient>
<linearGradient id="paint7_linear" x1="1066.58" y1="69" x2="1019.82" y2="-12" gradientUnits="userSpaceOnUse">
<stop stop-color="#8BDB58"/>
<stop offset="0.53125" stop-color="#8BDB58" stop-opacity="0.4"/>
<stop offset="1" stop-color="#8BDB58" stop-opacity="0"/>
</linearGradient>
<linearGradient id="paint8_linear" x1="931.583" y1="134" x2="884.818" y2="53" gradientUnits="userSpaceOnUse">
<stop stop-color="#8BDB58"/>
<stop offset="0.53125" stop-color="#8BDB58" stop-opacity="0.4"/>
<stop offset="1" stop-color="#8BDB58" stop-opacity="0"/>
</linearGradient>
<linearGradient id="paint9_linear" x1="900.583" y1="21" x2="853.818" y2="-60" gradientUnits="userSpaceOnUse">
<stop stop-color="#8BDB58"/>
<stop offset="0.53125" stop-color="#8BDB58" stop-opacity="0.51"/>
<stop offset="1" stop-color="#8BDB58" stop-opacity="0"/>
</linearGradient>
<linearGradient id="paint10_linear" x1="1066.58" y1="149" x2="1019.82" y2="68" gradientUnits="userSpaceOnUse">
<stop stop-color="#8BDB58"/>
<stop offset="0.53125" stop-color="#8BDB58" stop-opacity="0.4"/>
<stop offset="1" stop-color="#8BDB58" stop-opacity="0"/>
</linearGradient>
<clipPath id="clip0">
<rect width="1408" height="744" fill="white"/>
</clipPath>
</defs>
</svg>
