<svg width="816" height="506" viewBox="0 0 816 506" fill="none" xmlns="http://www.w3.org/2000/svg">
<g id="card-back">
<rect id="Rectangle 66" width="816" height="505" rx="28" transform="matrix(1 0 0 -1 -0.000244141 505.179)" fill="url(#paint0_linear)"/>
<path id="Rectangle 70" d="M-0.000244141 477.179C-0.000244141 492.643 12.5358 505.179 27.9998 505.179H637C652.464 505.179 665 492.643 665 477.179V28.1789C665 12.7149 652.464 0.178864 637 0.178864H27.9998C12.5358 0.178864 -0.000244141 12.7149 -0.000244141 28.1789V477.179Z" fill="white"/>
<path id="Roberto Antonio" d="M57.7278 418.179L53.3118 425.091H50.9358V418.179H48.7518V435.099H54.3198C56.2398 435.099 57.6798 434.635 58.6398 433.707C59.5998 432.795 60.0798 431.579 60.0798 430.059C60.0798 428.683 59.6958 427.571 58.9278 426.723C58.1598 425.891 57.0478 425.371 55.5918 425.163L60.1998 418.179H57.7278ZM50.9358 426.675H54.1278C56.6078 426.675 57.8478 427.763 57.8478 429.939C57.8478 432.115 56.6078 433.203 54.1278 433.203H50.9358V426.675ZM69.9199 431.523C71.1839 431.523 72.3119 431.251 73.3039 430.707C74.3119 430.163 75.0959 429.379 75.6559 428.355C76.2319 427.331 76.5199 426.131 76.5199 424.755C76.5199 423.379 76.2319 422.179 75.6559 421.155C75.0959 420.147 74.3119 419.371 73.3039 418.827C72.3119 418.283 71.1839 418.011 69.9199 418.011C68.6559 418.011 67.5199 418.283 66.5119 418.827C65.5199 419.371 64.7359 420.147 64.1599 421.155C63.5839 422.179 63.2959 423.379 63.2959 424.755C63.2959 426.131 63.5839 427.331 64.1599 428.355C64.7359 429.379 65.5199 430.163 66.5119 430.707C67.5199 431.251 68.6559 431.523 69.9199 431.523ZM69.9199 429.603C69.1359 429.603 68.4079 429.427 67.7359 429.075C67.0799 428.723 66.5439 428.179 66.1279 427.443C65.7279 426.723 65.5279 425.827 65.5279 424.755C65.5279 423.699 65.7279 422.803 66.1279 422.067C66.5439 421.347 67.0799 420.811 67.7359 420.459C68.4079 420.107 69.1359 419.931 69.9199 419.931C70.7039 419.931 71.4239 420.107 72.0799 420.459C72.7519 420.811 73.2879 421.347 73.6879 422.067C74.1039 422.803 74.3119 423.699 74.3119 424.755C74.3119 425.827 74.1039 426.723 73.6879 427.443C73.2879 428.179 72.7519 428.723 72.0799 429.075C71.4239 429.427 70.7039 429.603 69.9199 429.603ZM87.8378 431.523C89.0058 431.523 90.0458 431.251 90.9578 430.707C91.8698 430.163 92.5818 429.379 93.0938 428.355C93.6218 427.331 93.8858 426.131 93.8858 424.755C93.8858 423.379 93.6218 422.179 93.0938 421.155C92.5818 420.147 91.8698 419.371 90.9578 418.827C90.0458 418.283 89.0058 418.011 87.8378 418.011C86.5578 418.011 85.4698 418.331 84.5738 418.971C83.6938 419.627 83.0858 420.483 82.7498 421.539V418.179H80.5658V435.939H82.7498V427.995C83.0858 429.051 83.6938 429.899 84.5738 430.539C85.4698 431.195 86.5578 431.523 87.8378 431.523ZM87.2138 429.579C86.3658 429.579 85.5978 429.379 84.9098 428.979C84.2218 428.595 83.6858 428.035 83.3018 427.299C82.9178 426.563 82.7258 425.715 82.7258 424.755C82.7258 423.795 82.9178 422.947 83.3018 422.211C83.6858 421.491 84.2218 420.931 84.9098 420.531C85.5978 420.131 86.3658 419.931 87.2138 419.931C88.5738 419.931 89.6538 420.355 90.4538 421.203C91.2698 422.067 91.6778 423.251 91.6778 424.755C91.6778 426.259 91.2698 427.435 90.4538 428.283C89.6538 429.147 88.5738 429.579 87.2138 429.579ZM110.058 425.499C110.058 425.035 110.026 424.635 109.962 424.299H99.4257C99.4737 422.795 99.8977 421.667 100.698 420.915C101.514 420.163 102.506 419.787 103.674 419.787C104.73 419.787 105.61 420.051 106.314 420.579C107.034 421.123 107.474 421.843 107.634 422.739H109.962C109.802 421.827 109.442 421.011 108.882 420.291C108.338 419.571 107.626 419.011 106.746 418.611C105.866 418.211 104.874 418.011 103.77 418.011C102.506 418.011 101.386 418.283 100.41 418.827C99.4337 419.371 98.6657 420.147 98.1057 421.155C97.5617 422.179 97.2897 423.379 97.2897 424.755C97.2897 426.131 97.5617 427.331 98.1057 428.355C98.6657 429.379 99.4337 430.163 100.41 430.707C101.386 431.251 102.506 431.523 103.77 431.523C105.05 431.523 106.162 431.251 107.106 430.707C108.066 430.163 108.794 429.435 109.29 428.523C109.802 427.611 110.058 426.603 110.058 425.499ZM107.85 425.355C107.898 426.331 107.738 427.147 107.37 427.803C107.002 428.459 106.498 428.947 105.858 429.267C105.218 429.587 104.522 429.747 103.77 429.747C102.57 429.747 101.562 429.371 100.746 428.619C99.9297 427.883 99.4897 426.795 99.4257 425.355H107.85ZM116.298 428.691C116.73 429.603 117.362 430.307 118.194 430.803C119.026 431.315 120.018 431.571 121.17 431.571V429.195H120.498C119.266 429.195 118.258 428.875 117.474 428.235C116.69 427.611 116.298 426.571 116.298 425.115V418.179H114.114V431.355H116.298V428.691ZM130.813 420.099V418.179H129.181C127.837 418.179 126.829 418.499 126.157 419.139C125.501 419.779 125.173 420.851 125.173 422.355V429.459H123.205V431.355H125.173V434.643H127.381V431.355H130.789V429.459H127.381V422.307C127.381 421.459 127.533 420.875 127.837 420.555C128.157 420.251 128.701 420.099 129.469 420.099H130.813ZM140.654 431.523C141.918 431.523 143.046 431.251 144.038 430.707C145.046 430.163 145.83 429.379 146.39 428.355C146.966 427.331 147.254 426.131 147.254 424.755C147.254 423.379 146.966 422.179 146.39 421.155C145.83 420.147 145.046 419.371 144.038 418.827C143.046 418.283 141.918 418.011 140.654 418.011C139.39 418.011 138.254 418.283 137.246 418.827C136.254 419.371 135.47 420.147 134.894 421.155C134.318 422.179 134.03 423.379 134.03 424.755C134.03 426.131 134.318 427.331 134.894 428.355C135.47 429.379 136.254 430.163 137.246 430.707C138.254 431.251 139.39 431.523 140.654 431.523ZM140.654 429.603C139.87 429.603 139.142 429.427 138.47 429.075C137.814 428.723 137.278 428.179 136.862 427.443C136.462 426.723 136.262 425.827 136.262 424.755C136.262 423.699 136.462 422.803 136.862 422.067C137.278 421.347 137.814 420.811 138.47 420.459C139.142 420.107 139.87 419.931 140.654 419.931C141.438 419.931 142.158 420.107 142.814 420.459C143.486 420.811 144.022 421.347 144.422 422.067C144.838 422.803 145.046 423.699 145.046 424.755C145.046 425.827 144.838 426.723 144.422 427.443C144.022 428.179 143.486 428.723 142.814 429.075C142.158 429.427 141.438 429.603 140.654 429.603ZM168.342 422.091H160.902L159.486 418.179H157.134L163.398 434.787H165.87L172.11 418.179H169.758L168.342 422.091ZM167.718 423.795L164.622 432.339L161.526 423.795H167.718ZM182.457 431.571C183.993 431.571 185.233 431.075 186.177 430.083C187.121 429.107 187.593 427.691 187.593 425.835V418.179H185.409V425.643C185.409 426.955 185.073 427.963 184.401 428.667C183.729 429.371 182.817 429.723 181.665 429.723C180.465 429.723 179.505 429.331 178.785 428.547C178.065 427.779 177.705 426.651 177.705 425.163V418.179H175.521V431.355H177.705V428.235C178.041 429.307 178.633 430.131 179.481 430.707C180.345 431.283 181.337 431.571 182.457 431.571ZM198.43 420.099V418.179H196.798C195.454 418.179 194.446 418.499 193.774 419.139C193.118 419.779 192.79 420.851 192.79 422.355V429.459H190.822V431.355H192.79V434.643H194.998V431.355H198.406V429.459H194.998V422.307C194.998 421.459 195.15 420.875 195.454 420.555C195.774 420.251 196.318 420.099 197.086 420.099H198.43ZM208.272 431.523C209.536 431.523 210.664 431.251 211.656 430.707C212.664 430.163 213.448 429.379 214.008 428.355C214.584 427.331 214.872 426.131 214.872 424.755C214.872 423.379 214.584 422.179 214.008 421.155C213.448 420.147 212.664 419.371 211.656 418.827C210.664 418.283 209.536 418.011 208.272 418.011C207.008 418.011 205.872 418.283 204.864 418.827C203.872 419.371 203.088 420.147 202.512 421.155C201.936 422.179 201.648 423.379 201.648 424.755C201.648 426.131 201.936 427.331 202.512 428.355C203.088 429.379 203.872 430.163 204.864 430.707C205.872 431.251 207.008 431.523 208.272 431.523ZM208.272 429.603C207.488 429.603 206.76 429.427 206.088 429.075C205.432 428.723 204.896 428.179 204.48 427.443C204.08 426.723 203.88 425.827 203.88 424.755C203.88 423.699 204.08 422.803 204.48 422.067C204.896 421.347 205.432 420.811 206.088 420.459C206.76 420.107 207.488 419.931 208.272 419.931C209.056 419.931 209.776 420.107 210.432 420.459C211.104 420.811 211.64 421.347 212.04 422.067C212.456 422.803 212.664 423.699 212.664 424.755C212.664 425.827 212.456 426.723 212.04 427.443C211.64 428.179 211.104 428.723 210.432 429.075C209.776 429.427 209.056 429.603 208.272 429.603ZM225.853 431.571C227.389 431.571 228.629 431.075 229.573 430.083C230.517 429.107 230.989 427.691 230.989 425.835V418.179H228.805V425.643C228.805 426.955 228.469 427.963 227.797 428.667C227.125 429.371 226.213 429.723 225.061 429.723C223.861 429.723 222.901 429.331 222.181 428.547C221.461 427.779 221.101 426.651 221.101 425.163V418.179H218.917V431.355H221.101V428.235C221.437 429.307 222.029 430.131 222.877 430.707C223.741 431.283 224.733 431.571 225.853 431.571ZM235.155 435.219C235.155 435.619 235.291 435.939 235.563 436.179C235.835 436.435 236.195 436.563 236.643 436.563C237.091 436.563 237.451 436.435 237.723 436.179C237.995 435.939 238.131 435.619 238.131 435.219C238.131 434.819 237.995 434.491 237.723 434.235C237.451 433.995 237.091 433.875 236.643 433.875C236.195 433.875 235.835 433.995 235.563 434.235C235.291 434.491 235.155 434.819 235.155 435.219ZM237.723 431.355V418.179H235.539V431.355H237.723ZM248.411 431.523C249.675 431.523 250.803 431.251 251.795 430.707C252.803 430.163 253.587 429.379 254.147 428.355C254.723 427.331 255.011 426.131 255.011 424.755C255.011 423.379 254.723 422.179 254.147 421.155C253.587 420.147 252.803 419.371 251.795 418.827C250.803 418.283 249.675 418.011 248.411 418.011C247.147 418.011 246.011 418.283 245.003 418.827C244.011 419.371 243.227 420.147 242.651 421.155C242.075 422.179 241.787 423.379 241.787 424.755C241.787 426.131 242.075 427.331 242.651 428.355C243.227 429.379 244.011 430.163 245.003 430.707C246.011 431.251 247.147 431.523 248.411 431.523ZM248.411 429.603C247.627 429.603 246.899 429.427 246.227 429.075C245.571 428.723 245.035 428.179 244.619 427.443C244.219 426.723 244.019 425.827 244.019 424.755C244.019 423.699 244.219 422.803 244.619 422.067C245.035 421.347 245.571 420.811 246.227 420.459C246.899 420.107 247.627 419.931 248.411 419.931C249.195 419.931 249.915 420.107 250.571 420.459C251.243 420.811 251.779 421.347 252.179 422.067C252.595 422.803 252.803 423.699 252.803 424.755C252.803 425.827 252.595 426.723 252.179 427.443C251.779 428.179 251.243 428.723 250.571 429.075C249.915 429.427 249.195 429.603 248.411 429.603Z" fill="#8BDB58"/>
<path id="02/04/1999" d="M48.3678 340.747C48.3678 338.027 48.8158 335.907 49.7118 334.387C50.6078 332.867 52.1598 332.107 54.3678 332.107C56.5758 332.107 58.1278 332.867 59.0238 334.387C59.9358 335.907 60.3918 338.027 60.3918 340.747C60.3918 343.435 59.9358 345.539 59.0238 347.059C58.1278 348.579 56.5758 349.339 54.3678 349.339C52.1598 349.339 50.6078 348.579 49.7118 347.059C48.8158 345.555 48.3678 343.451 48.3678 340.747ZM58.2318 340.747C58.2318 339.355 58.1278 338.187 57.9198 337.243C57.7278 336.315 57.3518 335.571 56.7918 335.011C56.2318 334.451 55.4238 334.171 54.3678 334.171C53.3278 334.171 52.5278 334.451 51.9678 335.011C51.4078 335.571 51.0238 336.315 50.8158 337.243C50.6238 338.187 50.5278 339.355 50.5278 340.747C50.5278 342.123 50.6238 343.275 50.8158 344.203C51.0238 345.131 51.4078 345.867 51.9678 346.411C52.5278 346.971 53.3278 347.251 54.3678 347.251C55.4238 347.251 56.2318 346.971 56.7918 346.411C57.3518 345.867 57.7278 345.131 57.9198 344.203C58.1278 343.275 58.2318 342.123 58.2318 340.747ZM63.9499 333.859C66.6699 335.683 68.8459 337.491 70.4779 339.283C72.1099 341.091 72.9259 342.771 72.9259 344.323C72.9259 345.283 72.6779 346.051 72.1819 346.627C71.7019 347.219 70.9179 347.515 69.8299 347.515C68.7099 347.515 67.8619 347.155 67.2859 346.435C66.7099 345.731 66.3899 344.755 66.3259 343.507H64.1659C64.2779 345.395 64.8619 346.843 65.9179 347.851C66.9739 348.875 68.3339 349.387 69.9979 349.387C71.5819 349.387 72.8379 348.963 73.7659 348.115C74.6939 347.267 75.1579 346.067 75.1579 344.515C75.1579 343.235 74.7419 341.931 73.9099 340.603C73.0939 339.291 72.0619 338.067 70.8139 336.931C69.5819 335.811 68.3099 334.859 66.9979 334.075H75.5899V332.275H63.9499V333.859ZM86.6151 354.787L80.0391 328.075H77.9271L84.4791 354.787H86.6151ZM89.2803 340.747C89.2803 338.027 89.7283 335.907 90.6243 334.387C91.5203 332.867 93.0723 332.107 95.2803 332.107C97.4883 332.107 99.0403 332.867 99.9363 334.387C100.848 335.907 101.304 338.027 101.304 340.747C101.304 343.435 100.848 345.539 99.9363 347.059C99.0403 348.579 97.4883 349.339 95.2803 349.339C93.0723 349.339 91.5203 348.579 90.6243 347.059C89.7283 345.555 89.2803 343.451 89.2803 340.747ZM99.1443 340.747C99.1443 339.355 99.0403 338.187 98.8323 337.243C98.6403 336.315 98.2643 335.571 97.7043 335.011C97.1443 334.451 96.3363 334.171 95.2803 334.171C94.2403 334.171 93.4403 334.451 92.8803 335.011C92.3203 335.571 91.9363 336.315 91.7283 337.243C91.5363 338.187 91.4403 339.355 91.4403 340.747C91.4403 342.123 91.5363 343.275 91.7283 344.203C91.9363 345.131 92.3203 345.867 92.8803 346.411C93.4403 346.971 94.2403 347.251 95.2803 347.251C96.3363 347.251 97.1443 346.971 97.7043 346.411C98.2643 345.867 98.6403 345.131 98.8323 344.203C99.0403 343.275 99.1443 342.123 99.1443 340.747ZM104.598 336.067V337.891L113.286 349.219H115.638V337.963H118.134V336.067H115.638V332.179H113.43V336.067H104.598ZM113.574 346.555L106.902 337.963H113.574V346.555ZM128.793 354.787L122.217 328.075H120.105L126.657 354.787H128.793ZM130.402 347.059V349.099H135.25V332.179H132.946V347.059H130.402ZM142.021 336.931C142.165 335.923 142.517 335.147 143.077 334.603C143.637 334.059 144.405 333.787 145.381 333.787C146.725 333.787 147.741 334.307 148.429 335.347C149.117 336.387 149.461 338.035 149.461 340.291C149.461 340.723 149.453 341.051 149.437 341.275C149.213 340.315 148.669 339.547 147.805 338.971C146.941 338.395 145.925 338.107 144.757 338.107C143.077 338.107 141.757 338.611 140.797 339.619C139.837 340.627 139.357 342.035 139.357 343.843C139.357 344.899 139.565 345.859 139.981 346.723C140.397 347.587 141.029 348.267 141.877 348.763C142.741 349.275 143.805 349.531 145.069 349.531C147.501 349.531 149.165 348.779 150.061 347.275C150.973 345.787 151.429 343.739 151.429 341.131C151.429 338.155 150.965 335.883 150.037 334.315C149.109 332.763 147.557 331.987 145.381 331.987C143.765 331.987 142.493 332.443 141.565 333.355C140.653 334.283 140.117 335.475 139.957 336.931H142.021ZM149.221 343.507C149.221 344.659 148.877 345.635 148.189 346.435C147.517 347.235 146.501 347.635 145.141 347.635C144.021 347.635 143.125 347.299 142.453 346.627C141.781 345.955 141.445 345.019 141.445 343.819C141.445 342.539 141.781 341.555 142.453 340.867C143.125 340.179 144.045 339.835 145.213 339.835C145.885 339.835 146.525 339.971 147.133 340.243C147.757 340.515 148.261 340.931 148.645 341.491C149.029 342.051 149.221 342.723 149.221 343.507ZM157.823 336.931C157.967 335.923 158.319 335.147 158.879 334.603C159.439 334.059 160.207 333.787 161.183 333.787C162.527 333.787 163.543 334.307 164.231 335.347C164.919 336.387 165.263 338.035 165.263 340.291C165.263 340.723 165.255 341.051 165.239 341.275C165.015 340.315 164.471 339.547 163.607 338.971C162.743 338.395 161.727 338.107 160.559 338.107C158.879 338.107 157.559 338.611 156.599 339.619C155.639 340.627 155.159 342.035 155.159 343.843C155.159 344.899 155.367 345.859 155.783 346.723C156.199 347.587 156.831 348.267 157.679 348.763C158.543 349.275 159.607 349.531 160.871 349.531C163.303 349.531 164.967 348.779 165.863 347.275C166.775 345.787 167.231 343.739 167.231 341.131C167.231 338.155 166.767 335.883 165.839 334.315C164.911 332.763 163.359 331.987 161.183 331.987C159.567 331.987 158.295 332.443 157.367 333.355C156.455 334.283 155.919 335.475 155.759 336.931H157.823ZM165.023 343.507C165.023 344.659 164.679 345.635 163.991 346.435C163.319 347.235 162.303 347.635 160.943 347.635C159.823 347.635 158.927 347.299 158.255 346.627C157.583 345.955 157.247 345.019 157.247 343.819C157.247 342.539 157.583 341.555 158.255 340.867C158.927 340.179 159.847 339.835 161.015 339.835C161.687 339.835 162.327 339.971 162.935 340.243C163.559 340.515 164.063 340.931 164.447 341.491C164.831 342.051 165.023 342.723 165.023 343.507ZM173.624 336.931C173.768 335.923 174.12 335.147 174.68 334.603C175.24 334.059 176.008 333.787 176.984 333.787C178.328 333.787 179.344 334.307 180.032 335.347C180.72 336.387 181.064 338.035 181.064 340.291C181.064 340.723 181.056 341.051 181.04 341.275C180.816 340.315 180.272 339.547 179.408 338.971C178.544 338.395 177.528 338.107 176.36 338.107C174.68 338.107 173.36 338.611 172.4 339.619C171.44 340.627 170.96 342.035 170.96 343.843C170.96 344.899 171.168 345.859 171.584 346.723C172 347.587 172.632 348.267 173.48 348.763C174.344 349.275 175.408 349.531 176.672 349.531C179.104 349.531 180.768 348.779 181.664 347.275C182.576 345.787 183.032 343.739 183.032 341.131C183.032 338.155 182.568 335.883 181.64 334.315C180.712 332.763 179.16 331.987 176.984 331.987C175.368 331.987 174.096 332.443 173.168 333.355C172.256 334.283 171.72 335.475 171.56 336.931H173.624ZM180.824 343.507C180.824 344.659 180.48 345.635 179.792 346.435C179.12 347.235 178.104 347.635 176.744 347.635C175.624 347.635 174.728 347.299 174.056 346.627C173.384 345.955 173.048 345.019 173.048 343.819C173.048 342.539 173.384 341.555 174.056 340.867C174.728 340.179 175.648 339.835 176.816 339.835C177.488 339.835 178.128 339.971 178.736 340.243C179.36 340.515 179.864 340.931 180.248 341.491C180.632 342.051 180.824 342.723 180.824 343.507Z" fill="#8BDB58"/>
<path id="019 203 91021" d="M48.3678 268.747C48.3678 266.027 48.8158 263.907 49.7118 262.387C50.6078 260.867 52.1598 260.107 54.3678 260.107C56.5758 260.107 58.1278 260.867 59.0238 262.387C59.9358 263.907 60.3918 266.027 60.3918 268.747C60.3918 271.435 59.9358 273.539 59.0238 275.059C58.1278 276.579 56.5758 277.339 54.3678 277.339C52.1598 277.339 50.6078 276.579 49.7118 275.059C48.8158 273.555 48.3678 271.451 48.3678 268.747ZM58.2318 268.747C58.2318 267.355 58.1278 266.187 57.9198 265.243C57.7278 264.315 57.3518 263.571 56.7918 263.011C56.2318 262.451 55.4238 262.171 54.3678 262.171C53.3278 262.171 52.5278 262.451 51.9678 263.011C51.4078 263.571 51.0238 264.315 50.8158 265.243C50.6238 266.187 50.5278 267.355 50.5278 268.747C50.5278 270.123 50.6238 271.275 50.8158 272.203C51.0238 273.131 51.4078 273.867 51.9678 274.411C52.5278 274.971 53.3278 275.251 54.3678 275.251C55.4238 275.251 56.2318 274.971 56.7918 274.411C57.3518 273.867 57.7278 273.131 57.9198 272.203C58.1278 271.275 58.2318 270.123 58.2318 268.747ZM63.2539 275.059V277.099H68.1019V260.179H65.7979V275.059H63.2539ZM74.8726 264.931C75.0166 263.923 75.3686 263.147 75.9286 262.603C76.4886 262.059 77.2566 261.787 78.2326 261.787C79.5766 261.787 80.5926 262.307 81.2806 263.347C81.9686 264.387 82.3126 266.035 82.3126 268.291C82.3126 268.723 82.3046 269.051 82.2886 269.275C82.0646 268.315 81.5206 267.547 80.6566 266.971C79.7926 266.395 78.7766 266.107 77.6086 266.107C75.9286 266.107 74.6086 266.611 73.6486 267.619C72.6886 268.627 72.2086 270.035 72.2086 271.843C72.2086 272.899 72.4166 273.859 72.8326 274.723C73.2486 275.587 73.8806 276.267 74.7286 276.763C75.5926 277.275 76.6566 277.531 77.9206 277.531C80.3526 277.531 82.0166 276.779 82.9126 275.275C83.8246 273.787 84.2806 271.739 84.2806 269.131C84.2806 266.155 83.8166 263.883 82.8886 262.315C81.9606 260.763 80.4086 259.987 78.2326 259.987C76.6166 259.987 75.3446 260.443 74.4166 261.355C73.5046 262.283 72.9686 263.475 72.8086 264.931H74.8726ZM82.0726 271.507C82.0726 272.659 81.7286 273.635 81.0406 274.435C80.3686 275.235 79.3526 275.635 77.9926 275.635C76.8726 275.635 75.9766 275.299 75.3046 274.627C74.6326 273.955 74.2966 273.019 74.2966 271.819C74.2966 270.539 74.6326 269.555 75.3046 268.867C75.9766 268.179 76.8966 267.835 78.0646 267.835C78.7366 267.835 79.3766 267.971 79.9846 268.243C80.6086 268.515 81.1126 268.931 81.4966 269.491C81.8806 270.051 82.0726 270.723 82.0726 271.507ZM94.9718 261.859C97.6918 263.683 99.8678 265.491 101.5 267.283C103.132 269.091 103.948 270.771 103.948 272.323C103.948 273.283 103.7 274.051 103.204 274.627C102.724 275.219 101.94 275.515 100.852 275.515C99.7318 275.515 98.8838 275.155 98.3078 274.435C97.7318 273.731 97.4118 272.755 97.3478 271.507H95.1878C95.2998 273.395 95.8838 274.843 96.9398 275.851C97.9958 276.875 99.3558 277.387 101.02 277.387C102.604 277.387 103.86 276.963 104.788 276.115C105.716 275.267 106.18 274.067 106.18 272.515C106.18 271.235 105.764 269.931 104.932 268.603C104.116 267.291 103.084 266.067 101.836 264.931C100.604 263.811 99.3318 262.859 98.0198 262.075H106.612V260.275H94.9718V261.859ZM110.149 268.747C110.149 266.027 110.597 263.907 111.493 262.387C112.389 260.867 113.941 260.107 116.149 260.107C118.357 260.107 119.909 260.867 120.805 262.387C121.717 263.907 122.173 266.027 122.173 268.747C122.173 271.435 121.717 273.539 120.805 275.059C119.909 276.579 118.357 277.339 116.149 277.339C113.941 277.339 112.389 276.579 111.493 275.059C110.597 273.555 110.149 271.451 110.149 268.747ZM120.013 268.747C120.013 267.355 119.909 266.187 119.701 265.243C119.509 264.315 119.133 263.571 118.573 263.011C118.013 262.451 117.205 262.171 116.149 262.171C115.109 262.171 114.309 262.451 113.749 263.011C113.189 263.571 112.805 264.315 112.597 265.243C112.405 266.187 112.309 267.355 112.309 268.747C112.309 270.123 112.405 271.275 112.597 272.203C112.805 273.131 113.189 273.867 113.749 274.411C114.309 274.971 115.109 275.251 116.149 275.251C117.205 275.251 118.013 274.971 118.573 274.411C119.133 273.867 119.509 273.131 119.701 272.203C119.909 271.275 120.013 270.123 120.013 268.747ZM131.899 277.555C132.987 277.555 133.923 277.363 134.707 276.979C135.491 276.595 136.083 276.067 136.483 275.395C136.883 274.723 137.083 273.963 137.083 273.115C137.083 272.059 136.771 271.171 136.147 270.451C135.539 269.731 134.643 269.299 133.459 269.155V269.011C134.691 268.691 135.651 268.195 136.339 267.523C137.043 266.851 137.395 265.923 137.395 264.739C137.395 263.347 136.931 262.211 136.003 261.331C135.075 260.451 133.739 260.011 131.995 260.011C130.251 260.011 128.835 260.459 127.747 261.355C126.675 262.267 126.043 263.595 125.851 265.339H128.011C128.155 264.283 128.555 263.443 129.211 262.819C129.883 262.195 130.787 261.883 131.923 261.883C132.995 261.883 133.819 262.155 134.395 262.699C134.971 263.259 135.259 263.979 135.259 264.859C135.259 265.915 134.843 266.715 134.011 267.259C133.195 267.819 132.027 268.099 130.507 268.099H129.931V269.923H130.507C133.451 269.923 134.923 270.907 134.923 272.875C134.923 273.739 134.651 274.427 134.107 274.939C133.563 275.451 132.811 275.707 131.851 275.707C130.891 275.707 130.083 275.427 129.427 274.867C128.771 274.323 128.387 273.515 128.275 272.443H126.139C126.251 274.043 126.803 275.291 127.795 276.187C128.803 277.099 130.171 277.555 131.899 277.555ZM151.026 264.931C151.17 263.923 151.522 263.147 152.082 262.603C152.642 262.059 153.41 261.787 154.386 261.787C155.73 261.787 156.746 262.307 157.434 263.347C158.122 264.387 158.466 266.035 158.466 268.291C158.466 268.723 158.458 269.051 158.442 269.275C158.218 268.315 157.674 267.547 156.81 266.971C155.946 266.395 154.93 266.107 153.762 266.107C152.082 266.107 150.762 266.611 149.802 267.619C148.842 268.627 148.362 270.035 148.362 271.843C148.362 272.899 148.57 273.859 148.986 274.723C149.402 275.587 150.034 276.267 150.882 276.763C151.746 277.275 152.81 277.531 154.074 277.531C156.506 277.531 158.17 276.779 159.066 275.275C159.978 273.787 160.434 271.739 160.434 269.131C160.434 266.155 159.97 263.883 159.042 262.315C158.114 260.763 156.562 259.987 154.386 259.987C152.77 259.987 151.498 260.443 150.57 261.355C149.658 262.283 149.122 263.475 148.962 264.931H151.026ZM158.226 271.507C158.226 272.659 157.882 273.635 157.194 274.435C156.522 275.235 155.506 275.635 154.146 275.635C153.026 275.635 152.13 275.299 151.458 274.627C150.786 273.955 150.45 273.019 150.45 271.819C150.45 270.539 150.786 269.555 151.458 268.867C152.13 268.179 153.05 267.835 154.218 267.835C154.89 267.835 155.53 267.971 156.138 268.243C156.762 268.515 157.266 268.931 157.65 269.491C158.034 270.051 158.226 270.723 158.226 271.507ZM163.299 275.059V277.099H168.147V260.179H165.843V275.059H163.299ZM172.446 268.747C172.446 266.027 172.894 263.907 173.79 262.387C174.686 260.867 176.238 260.107 178.446 260.107C180.654 260.107 182.206 260.867 183.102 262.387C184.014 263.907 184.47 266.027 184.47 268.747C184.47 271.435 184.014 273.539 183.102 275.059C182.206 276.579 180.654 277.339 178.446 277.339C176.238 277.339 174.686 276.579 173.79 275.059C172.894 273.555 172.446 271.451 172.446 268.747ZM182.31 268.747C182.31 267.355 182.206 266.187 181.998 265.243C181.806 264.315 181.43 263.571 180.87 263.011C180.31 262.451 179.502 262.171 178.446 262.171C177.406 262.171 176.606 262.451 176.046 263.011C175.486 263.571 175.102 264.315 174.894 265.243C174.702 266.187 174.606 267.355 174.606 268.747C174.606 270.123 174.702 271.275 174.894 272.203C175.102 273.131 175.486 273.867 176.046 274.411C176.606 274.971 177.406 275.251 178.446 275.251C179.502 275.251 180.31 274.971 180.87 274.411C181.43 273.867 181.806 273.131 181.998 272.203C182.206 271.275 182.31 270.123 182.31 268.747ZM188.028 261.859C190.748 263.683 192.924 265.491 194.556 267.283C196.188 269.091 197.004 270.771 197.004 272.323C197.004 273.283 196.756 274.051 196.26 274.627C195.78 275.219 194.996 275.515 193.908 275.515C192.788 275.515 191.94 275.155 191.364 274.435C190.788 273.731 190.468 272.755 190.404 271.507H188.244C188.356 273.395 188.94 274.843 189.996 275.851C191.052 276.875 192.412 277.387 194.076 277.387C195.66 277.387 196.916 276.963 197.844 276.115C198.772 275.267 199.236 274.067 199.236 272.515C199.236 271.235 198.82 269.931 197.988 268.603C197.172 267.291 196.14 266.067 194.892 264.931C193.66 263.811 192.388 262.859 191.076 262.075H199.668V260.275H188.028V261.859ZM202.149 275.059V277.099H206.997V260.179H204.693V275.059H202.149Z" fill="#8BDB58"/>
<path id="Individual" d="M52.9358 208.099V191.179H50.7518V208.099H52.9358ZM64.5831 204.571C66.1191 204.571 67.3591 204.075 68.3031 203.083C69.2471 202.107 69.7191 200.691 69.7191 198.835V191.179H67.5351V198.643C67.5351 199.955 67.1991 200.963 66.5271 201.667C65.8551 202.371 64.9431 202.723 63.7911 202.723C62.5911 202.723 61.6311 202.331 60.9111 201.547C60.1911 200.779 59.8311 199.651 59.8311 198.163V191.179H57.6471V204.355H59.8311V201.235C60.1671 202.307 60.7591 203.131 61.6071 203.707C62.4711 204.283 63.4631 204.571 64.5831 204.571ZM79.6689 204.523C80.9489 204.523 82.0289 204.203 82.9089 203.563C83.8049 202.923 84.4289 202.067 84.7809 200.995V208.939H86.9649V191.179H84.7809V194.539C84.4289 193.467 83.8049 192.611 82.9089 191.971C82.0289 191.331 80.9489 191.011 79.6689 191.011C78.5009 191.011 77.4609 191.283 76.5489 191.827C75.6369 192.371 74.9169 193.147 74.3889 194.155C73.8769 195.179 73.6209 196.379 73.6209 197.755C73.6209 199.131 73.8769 200.331 74.3889 201.355C74.9169 202.379 75.6369 203.163 76.5489 203.707C77.4609 204.251 78.5009 204.523 79.6689 204.523ZM80.2929 202.579C78.9489 202.579 77.8689 202.147 77.0529 201.283C76.2529 200.435 75.8529 199.259 75.8529 197.755C75.8529 196.251 76.2529 195.067 77.0529 194.203C77.8689 193.355 78.9489 192.931 80.2929 192.931C81.1569 192.931 81.9249 193.131 82.5969 193.531C83.2849 193.931 83.8209 194.491 84.2049 195.211C84.5889 195.947 84.7809 196.795 84.7809 197.755C84.7809 198.715 84.5889 199.563 84.2049 200.299C83.8209 201.035 83.2849 201.595 82.5969 201.979C81.9249 202.379 81.1569 202.579 80.2929 202.579ZM91.2568 208.219C91.2568 208.619 91.3928 208.939 91.6648 209.179C91.9368 209.435 92.2968 209.563 92.7448 209.563C93.1928 209.563 93.5528 209.435 93.8248 209.179C94.0968 208.939 94.2328 208.619 94.2328 208.219C94.2328 207.819 94.0968 207.491 93.8248 207.235C93.5528 206.995 93.1928 206.875 92.7448 206.875C92.2968 206.875 91.9368 206.995 91.6648 207.235C91.3928 207.491 91.2568 207.819 91.2568 208.219ZM93.8248 204.355V191.179H91.6408V204.355H93.8248ZM103.648 193.507L107.728 204.355H110.08L104.92 191.179H102.328L97.1681 204.355H99.5201L103.648 193.507ZM113.04 208.219C113.04 208.619 113.176 208.939 113.448 209.179C113.72 209.435 114.08 209.563 114.528 209.563C114.976 209.563 115.336 209.435 115.608 209.179C115.88 208.939 116.016 208.619 116.016 208.219C116.016 207.819 115.88 207.491 115.608 207.235C115.336 206.995 114.976 206.875 114.528 206.875C114.08 206.875 113.72 206.995 113.448 207.235C113.176 207.491 113.04 207.819 113.04 208.219ZM115.608 204.355V191.179H113.424V204.355H115.608ZM125.719 204.523C126.999 204.523 128.079 204.203 128.959 203.563C129.855 202.923 130.479 202.067 130.831 200.995V208.939H133.015V191.179H130.831V194.539C130.479 193.467 129.855 192.611 128.959 191.971C128.079 191.331 126.999 191.011 125.719 191.011C124.551 191.011 123.511 191.283 122.599 191.827C121.687 192.371 120.967 193.147 120.439 194.155C119.927 195.179 119.671 196.379 119.671 197.755C119.671 199.131 119.927 200.331 120.439 201.355C120.967 202.379 121.687 203.163 122.599 203.707C123.511 204.251 124.551 204.523 125.719 204.523ZM126.343 202.579C124.999 202.579 123.919 202.147 123.103 201.283C122.303 200.435 121.903 199.259 121.903 197.755C121.903 196.251 122.303 195.067 123.103 194.203C123.919 193.355 124.999 192.931 126.343 192.931C127.207 192.931 127.975 193.131 128.647 193.531C129.335 193.931 129.871 194.491 130.255 195.211C130.639 195.947 130.831 196.795 130.831 197.755C130.831 198.715 130.639 199.563 130.255 200.299C129.871 201.035 129.335 201.595 128.647 201.979C127.975 202.379 127.207 202.579 126.343 202.579ZM149.403 204.355V191.179H147.219V194.275C146.883 193.203 146.283 192.379 145.419 191.803C144.571 191.243 143.579 190.963 142.443 190.963C140.923 190.963 139.691 191.451 138.747 192.427C137.803 193.419 137.331 194.835 137.331 196.675V204.355H139.515V196.891C139.515 195.579 139.851 194.563 140.523 193.843C141.195 193.139 142.107 192.787 143.259 192.787C144.459 192.787 145.419 193.171 146.139 193.939C146.859 194.723 147.219 195.859 147.219 197.347V204.355H149.403ZM159.502 204.523C160.782 204.523 161.862 204.203 162.742 203.563C163.638 202.923 164.262 202.067 164.614 200.995V204.355H166.798V191.179H164.614V194.539C164.262 193.467 163.638 192.611 162.742 191.971C161.862 191.331 160.782 191.011 159.502 191.011C158.334 191.011 157.294 191.283 156.382 191.827C155.47 192.371 154.75 193.147 154.222 194.155C153.71 195.179 153.454 196.379 153.454 197.755C153.454 199.131 153.71 200.331 154.222 201.355C154.75 202.379 155.47 203.163 156.382 203.707C157.294 204.251 158.334 204.523 159.502 204.523ZM160.126 202.579C158.782 202.579 157.702 202.147 156.886 201.283C156.086 200.435 155.686 199.259 155.686 197.755C155.686 196.251 156.086 195.067 156.886 194.203C157.702 193.355 158.782 192.931 160.126 192.931C160.99 192.931 161.758 193.131 162.43 193.531C163.118 193.931 163.654 194.491 164.038 195.211C164.422 195.947 164.614 196.795 164.614 197.755C164.614 198.715 164.422 199.563 164.038 200.299C163.654 201.035 163.118 201.595 162.43 201.979C161.758 202.379 160.99 202.579 160.126 202.579ZM173.658 208.939V191.179H171.474V208.939H173.658Z" fill="#8BDB58"/>
<path id="Nome completo" d="M57.0728 446.179H55.8898L51.1318 453.42V446.179H49.9488V455.344H51.1318L55.8898 448.09V455.344H57.0728V446.179ZM62.8621 453.407C63.5468 453.407 64.1578 453.26 64.6951 452.965C65.2411 452.67 65.6658 452.246 65.9691 451.691C66.2811 451.136 66.4371 450.486 66.4371 449.741C66.4371 448.996 66.2811 448.346 65.9691 447.791C65.6658 447.245 65.2411 446.825 64.6951 446.53C64.1578 446.235 63.5468 446.088 62.8621 446.088C62.1775 446.088 61.5621 446.235 61.0161 446.53C60.4788 446.825 60.0541 447.245 59.7421 447.791C59.4301 448.346 59.2741 448.996 59.2741 449.741C59.2741 450.486 59.4301 451.136 59.7421 451.691C60.0541 452.246 60.4788 452.67 61.0161 452.965C61.5621 453.26 62.1775 453.407 62.8621 453.407ZM62.8621 452.367C62.4375 452.367 62.0431 452.272 61.6791 452.081C61.3238 451.89 61.0335 451.596 60.8081 451.197C60.5915 450.807 60.4831 450.322 60.4831 449.741C60.4831 449.169 60.5915 448.684 60.8081 448.285C61.0335 447.895 61.3238 447.605 61.6791 447.414C62.0431 447.223 62.4375 447.128 62.8621 447.128C63.2868 447.128 63.6768 447.223 64.0321 447.414C64.3961 447.605 64.6865 447.895 64.9031 448.285C65.1285 448.684 65.2411 449.169 65.2411 449.741C65.2411 450.322 65.1285 450.807 64.9031 451.197C64.6865 451.596 64.3961 451.89 64.0321 452.081C63.6768 452.272 63.2868 452.367 62.8621 452.367ZM77.4036 453.433C78.2356 453.433 78.903 453.164 79.4056 452.627C79.917 452.098 80.1726 451.331 80.1726 450.326V446.179H78.9896V450.222C78.9896 450.924 78.8163 451.461 78.4696 451.834C78.1316 452.207 77.6636 452.393 77.0656 452.393C76.4416 452.393 75.939 452.185 75.5576 451.769C75.185 451.362 74.9986 450.759 74.9986 449.962V446.179H73.8156V450.222C73.8156 450.924 73.6423 451.461 73.2956 451.834C72.949 452.207 72.481 452.393 71.8916 452.393C71.259 452.393 70.752 452.185 70.3706 451.769C69.998 451.362 69.8116 450.759 69.8116 449.962V446.179H68.6286V453.316H69.8116V451.691C69.985 452.254 70.2926 452.683 70.7346 452.978C71.1853 453.281 71.701 453.433 72.2816 453.433C72.8883 453.433 73.4126 453.277 73.8546 452.965C74.3053 452.662 74.626 452.211 74.8166 451.613C75.016 452.194 75.3496 452.64 75.8176 452.952C76.2856 453.273 76.8143 453.433 77.4036 453.433ZM89.2245 450.144C89.2245 449.893 89.2072 449.676 89.1725 449.494H83.4655C83.4915 448.679 83.7212 448.068 84.1545 447.661C84.5965 447.254 85.1338 447.05 85.7665 447.05C86.3385 447.05 86.8152 447.193 87.1965 447.479C87.5865 447.774 87.8248 448.164 87.9115 448.649H89.1725C89.0858 448.155 88.8908 447.713 88.5875 447.323C88.2928 446.933 87.9072 446.63 87.4305 446.413C86.9538 446.196 86.4165 446.088 85.8185 446.088C85.1338 446.088 84.5272 446.235 83.9985 446.53C83.4698 446.825 83.0538 447.245 82.7505 447.791C82.4558 448.346 82.3085 448.996 82.3085 449.741C82.3085 450.486 82.4558 451.136 82.7505 451.691C83.0538 452.246 83.4698 452.67 83.9985 452.965C84.5272 453.26 85.1338 453.407 85.8185 453.407C86.5118 453.407 87.1142 453.26 87.6255 452.965C88.1455 452.67 88.5398 452.276 88.8085 451.782C89.0858 451.288 89.2245 450.742 89.2245 450.144ZM88.0285 450.066C88.0545 450.595 87.9678 451.037 87.7685 451.392C87.5692 451.747 87.2962 452.012 86.9495 452.185C86.6028 452.358 86.2258 452.445 85.8185 452.445C85.1685 452.445 84.6225 452.241 84.1805 451.834C83.7385 451.435 83.5002 450.846 83.4655 450.066H88.0285ZM98.4427 453.407C99.3527 453.407 100.107 453.164 100.705 452.679C101.303 452.194 101.671 451.544 101.81 450.729H100.562C100.475 451.24 100.237 451.639 99.8467 451.925C99.4654 452.22 98.9887 452.367 98.4167 452.367C98.0007 452.367 97.6194 452.272 97.2727 452.081C96.9347 451.89 96.6617 451.596 96.4537 451.197C96.2457 450.807 96.1417 450.322 96.1417 449.741C96.1417 449.16 96.2457 448.671 96.4537 448.272C96.6617 447.882 96.9347 447.592 97.2727 447.401C97.6194 447.21 98.0007 447.115 98.4167 447.115C98.9887 447.115 99.4654 447.262 99.8467 447.557C100.237 447.852 100.475 448.255 100.562 448.766H101.81C101.671 447.943 101.303 447.288 100.705 446.803C100.107 446.326 99.3527 446.088 98.4427 446.088C97.7581 446.088 97.1514 446.235 96.6227 446.53C96.0941 446.825 95.6781 447.245 95.3747 447.791C95.0801 448.346 94.9327 448.996 94.9327 449.741C94.9327 450.486 95.0801 451.136 95.3747 451.691C95.6781 452.246 96.0941 452.67 96.6227 452.965C97.1514 453.26 97.7581 453.407 98.4427 453.407ZM107.245 453.407C107.93 453.407 108.541 453.26 109.078 452.965C109.624 452.67 110.049 452.246 110.352 451.691C110.664 451.136 110.82 450.486 110.82 449.741C110.82 448.996 110.664 448.346 110.352 447.791C110.049 447.245 109.624 446.825 109.078 446.53C108.541 446.235 107.93 446.088 107.245 446.088C106.56 446.088 105.945 446.235 105.399 446.53C104.862 446.825 104.437 447.245 104.125 447.791C103.813 448.346 103.657 448.996 103.657 449.741C103.657 450.486 103.813 451.136 104.125 451.691C104.437 452.246 104.862 452.67 105.399 452.965C105.945 453.26 106.56 453.407 107.245 453.407ZM107.245 452.367C106.82 452.367 106.426 452.272 106.062 452.081C105.707 451.89 105.416 451.596 105.191 451.197C104.974 450.807 104.866 450.322 104.866 449.741C104.866 449.169 104.974 448.684 105.191 448.285C105.416 447.895 105.707 447.605 106.062 447.414C106.426 447.223 106.82 447.128 107.245 447.128C107.67 447.128 108.06 447.223 108.415 447.414C108.779 447.605 109.069 447.895 109.286 448.285C109.511 448.684 109.624 449.169 109.624 449.741C109.624 450.322 109.511 450.807 109.286 451.197C109.069 451.596 108.779 451.89 108.415 452.081C108.06 452.272 107.67 452.367 107.245 452.367ZM121.786 453.433C122.618 453.433 123.286 453.164 123.788 452.627C124.3 452.098 124.555 451.331 124.555 450.326V446.179H123.372V450.222C123.372 450.924 123.199 451.461 122.852 451.834C122.514 452.207 122.046 452.393 121.448 452.393C120.824 452.393 120.322 452.185 119.94 451.769C119.568 451.362 119.381 450.759 119.381 449.962V446.179H118.198V450.222C118.198 450.924 118.025 451.461 117.678 451.834C117.332 452.207 116.864 452.393 116.274 452.393C115.642 452.393 115.135 452.185 114.753 451.769C114.381 451.362 114.194 450.759 114.194 449.962V446.179H113.011V453.316H114.194V451.691C114.368 452.254 114.675 452.683 115.117 452.978C115.568 453.281 116.084 453.433 116.664 453.433C117.271 453.433 117.795 453.277 118.237 452.965C118.688 452.662 119.009 452.211 119.199 451.613C119.399 452.194 119.732 452.64 120.2 452.952C120.668 453.273 121.197 453.433 121.786 453.433ZM130.981 453.407C131.614 453.407 132.177 453.26 132.671 452.965C133.165 452.67 133.551 452.246 133.828 451.691C134.114 451.136 134.257 450.486 134.257 449.741C134.257 448.996 134.114 448.346 133.828 447.791C133.551 447.245 133.165 446.825 132.671 446.53C132.177 446.235 131.614 446.088 130.981 446.088C130.288 446.088 129.699 446.261 129.213 446.608C128.737 446.963 128.407 447.427 128.225 447.999V442.799H127.042V453.316H128.225V451.496C128.407 452.068 128.737 452.527 129.213 452.874C129.699 453.229 130.288 453.407 130.981 453.407ZM130.643 452.354C130.184 452.354 129.768 452.246 129.395 452.029C129.023 451.821 128.732 451.518 128.524 451.119C128.316 450.72 128.212 450.261 128.212 449.741C128.212 449.221 128.316 448.762 128.524 448.363C128.732 447.973 129.023 447.67 129.395 447.453C129.768 447.236 130.184 447.128 130.643 447.128C131.38 447.128 131.965 447.358 132.398 447.817C132.84 448.285 133.061 448.926 133.061 449.741C133.061 450.556 132.84 451.193 132.398 451.652C131.965 452.12 131.38 452.354 130.643 452.354ZM137.635 455.799V446.179H136.452V455.799H137.635ZM146.752 450.144C146.752 449.893 146.735 449.676 146.7 449.494H140.993C141.019 448.679 141.249 448.068 141.682 447.661C142.124 447.254 142.661 447.05 143.294 447.05C143.866 447.05 144.343 447.193 144.724 447.479C145.114 447.774 145.352 448.164 145.439 448.649H146.7C146.613 448.155 146.418 447.713 146.115 447.323C145.82 446.933 145.435 446.63 144.958 446.413C144.481 446.196 143.944 446.088 143.346 446.088C142.661 446.088 142.055 446.235 141.526 446.53C140.997 446.825 140.581 447.245 140.278 447.791C139.983 448.346 139.836 448.996 139.836 449.741C139.836 450.486 139.983 451.136 140.278 451.691C140.581 452.246 140.997 452.67 141.526 452.965C142.055 453.26 142.661 453.407 143.346 453.407C144.039 453.407 144.642 453.26 145.153 452.965C145.673 452.67 146.067 452.276 146.336 451.782C146.613 451.288 146.752 450.742 146.752 450.144ZM145.556 450.066C145.582 450.595 145.495 451.037 145.296 451.392C145.097 451.747 144.824 452.012 144.477 452.185C144.13 452.358 143.753 452.445 143.346 452.445C142.696 452.445 142.15 452.241 141.708 451.834C141.266 451.435 141.028 450.846 140.993 450.066H145.556ZM152.355 447.219V446.179H151.471C150.743 446.179 150.197 446.352 149.833 446.699C149.478 447.046 149.3 447.626 149.3 448.441V452.289H148.234V453.316H149.3V455.097H150.496V453.316H152.342V452.289H150.496V448.415C150.496 447.956 150.579 447.639 150.743 447.466C150.917 447.301 151.211 447.219 151.627 447.219H152.355ZM157.686 453.407C158.371 453.407 158.982 453.26 159.519 452.965C160.065 452.67 160.49 452.246 160.793 451.691C161.105 451.136 161.261 450.486 161.261 449.741C161.261 448.996 161.105 448.346 160.793 447.791C160.49 447.245 160.065 446.825 159.519 446.53C158.982 446.235 158.371 446.088 157.686 446.088C157.001 446.088 156.386 446.235 155.84 446.53C155.303 446.825 154.878 447.245 154.566 447.791C154.254 448.346 154.098 448.996 154.098 449.741C154.098 450.486 154.254 451.136 154.566 451.691C154.878 452.246 155.303 452.67 155.84 452.965C156.386 453.26 157.001 453.407 157.686 453.407ZM157.686 452.367C157.261 452.367 156.867 452.272 156.503 452.081C156.148 451.89 155.857 451.596 155.632 451.197C155.415 450.807 155.307 450.322 155.307 449.741C155.307 449.169 155.415 448.684 155.632 448.285C155.857 447.895 156.148 447.605 156.503 447.414C156.867 447.223 157.261 447.128 157.686 447.128C158.111 447.128 158.501 447.223 158.856 447.414C159.22 447.605 159.51 447.895 159.727 448.285C159.952 448.684 160.065 449.169 160.065 449.741C160.065 450.322 159.952 450.807 159.727 451.197C159.51 451.596 159.22 451.89 158.856 452.081C158.501 452.272 158.111 452.367 157.686 452.367Z" fill="#A3A3A3"/>
<path id="Data nascimento" d="M57.6708 370.768C57.6708 369.841 57.4844 369.03 57.1118 368.337C56.7391 367.652 56.1888 367.119 55.4608 366.738C54.7414 366.365 53.8748 366.179 52.8608 366.179H49.9488V375.344H52.8608C53.8748 375.344 54.7414 375.158 55.4608 374.785C56.1888 374.421 56.7391 373.892 57.1118 373.199C57.4844 372.514 57.6708 371.704 57.6708 370.768ZM52.7698 367.245C53.9658 367.245 54.8801 367.553 55.5128 368.168C56.1454 368.783 56.4618 369.65 56.4618 370.768C56.4618 371.886 56.1454 372.753 55.5128 373.368C54.8888 373.992 53.9744 374.304 52.7698 374.304H51.1318V367.245H52.7698ZM62.8421 373.407C63.5354 373.407 64.1204 373.234 64.5971 372.887C65.0824 372.54 65.4204 372.077 65.6111 371.496V373.316H66.7941V366.179H65.6111V367.999C65.4204 367.418 65.0824 366.955 64.5971 366.608C64.1204 366.261 63.5354 366.088 62.8421 366.088C62.2094 366.088 61.6461 366.235 61.1521 366.53C60.6581 366.825 60.2681 367.245 59.9821 367.791C59.7048 368.346 59.5661 368.996 59.5661 369.741C59.5661 370.486 59.7048 371.136 59.9821 371.691C60.2681 372.246 60.6581 372.67 61.1521 372.965C61.6461 373.26 62.2094 373.407 62.8421 373.407ZM63.1801 372.354C62.4521 372.354 61.8671 372.12 61.4251 371.652C60.9918 371.193 60.7751 370.556 60.7751 369.741C60.7751 368.926 60.9918 368.285 61.4251 367.817C61.8671 367.358 62.4521 367.128 63.1801 367.128C63.6481 367.128 64.0641 367.236 64.4281 367.453C64.8008 367.67 65.0911 367.973 65.2991 368.363C65.5071 368.762 65.6111 369.221 65.6111 369.741C65.6111 370.261 65.5071 370.72 65.2991 371.119C65.0911 371.518 64.8008 371.821 64.4281 372.029C64.0641 372.246 63.6481 372.354 63.1801 372.354ZM72.7329 367.219V366.179H71.8489C71.1209 366.179 70.5749 366.352 70.2109 366.699C69.8555 367.046 69.6779 367.626 69.6779 368.441V372.289H68.6119V373.316H69.6779V375.097H70.8739V373.316H72.7199V372.289H70.8739V368.415C70.8739 367.956 70.9562 367.639 71.1209 367.466C71.2942 367.301 71.5889 367.219 72.0049 367.219H72.7329ZM77.7515 373.407C78.4448 373.407 79.0298 373.234 79.5065 372.887C79.9918 372.54 80.3298 372.077 80.5205 371.496V373.316H81.7035V366.179H80.5205V367.999C80.3298 367.418 79.9918 366.955 79.5065 366.608C79.0298 366.261 78.4448 366.088 77.7515 366.088C77.1188 366.088 76.5555 366.235 76.0615 366.53C75.5675 366.825 75.1775 367.245 74.8915 367.791C74.6142 368.346 74.4755 368.996 74.4755 369.741C74.4755 370.486 74.6142 371.136 74.8915 371.691C75.1775 372.246 75.5675 372.67 76.0615 372.965C76.5555 373.26 77.1188 373.407 77.7515 373.407ZM78.0895 372.354C77.3615 372.354 76.7765 372.12 76.3345 371.652C75.9012 371.193 75.6845 370.556 75.6845 369.741C75.6845 368.926 75.9012 368.285 76.3345 367.817C76.7765 367.358 77.3615 367.128 78.0895 367.128C78.5575 367.128 78.9735 367.236 79.3375 367.453C79.7102 367.67 80.0005 367.973 80.2085 368.363C80.4165 368.762 80.5205 369.221 80.5205 369.741C80.5205 370.261 80.4165 370.72 80.2085 371.119C80.0005 371.518 79.7102 371.821 79.3375 372.029C78.9735 372.246 78.5575 372.354 78.0895 372.354ZM91.8552 373.433C92.6872 373.433 93.3588 373.164 93.8702 372.627C94.3815 372.098 94.6372 371.331 94.6372 370.326V366.179H93.4542V370.222C93.4542 370.933 93.2722 371.479 92.9082 371.86C92.5442 372.241 92.0502 372.432 91.4262 372.432C90.7762 372.432 90.2562 372.22 89.8662 371.795C89.4762 371.379 89.2812 370.768 89.2812 369.962V366.179H88.0982V373.316H89.2812V371.626C89.4632 372.207 89.7838 372.653 90.2432 372.965C90.7112 373.277 91.2485 373.433 91.8552 373.433ZM100.027 373.407C100.72 373.407 101.305 373.234 101.782 372.887C102.267 372.54 102.605 372.077 102.796 371.496V373.316H103.979V366.179H102.796V367.999C102.605 367.418 102.267 366.955 101.782 366.608C101.305 366.261 100.72 366.088 100.027 366.088C99.394 366.088 98.8307 366.235 98.3367 366.53C97.8427 366.825 97.4527 367.245 97.1667 367.791C96.8894 368.346 96.7507 368.996 96.7507 369.741C96.7507 370.486 96.8894 371.136 97.1667 371.691C97.4527 372.246 97.8427 372.67 98.3367 372.965C98.8307 373.26 99.394 373.407 100.027 373.407ZM100.365 372.354C99.6367 372.354 99.0517 372.12 98.6097 371.652C98.1764 371.193 97.9597 370.556 97.9597 369.741C97.9597 368.926 98.1764 368.285 98.6097 367.817C99.0517 367.358 99.6367 367.128 100.365 367.128C100.833 367.128 101.249 367.236 101.613 367.453C101.985 367.67 102.276 367.973 102.484 368.363C102.692 368.762 102.796 369.221 102.796 369.741C102.796 370.261 102.692 370.72 102.484 371.119C102.276 371.518 101.985 371.821 101.613 372.029C101.249 372.246 100.833 372.354 100.365 372.354ZM108.747 373.407C109.553 373.407 110.199 373.195 110.684 372.77C111.178 372.354 111.477 371.791 111.581 371.08H110.45C110.398 371.505 110.221 371.851 109.917 372.12C109.623 372.397 109.224 372.536 108.721 372.536C108.297 372.536 107.963 372.432 107.72 372.224C107.486 372.025 107.369 371.752 107.369 371.405C107.369 371.145 107.447 370.933 107.603 370.768C107.768 370.612 107.967 370.491 108.201 370.404C108.444 370.326 108.773 370.239 109.189 370.144C109.718 370.023 110.143 369.897 110.463 369.767C110.793 369.646 111.07 369.446 111.295 369.169C111.529 368.892 111.646 368.519 111.646 368.051C111.646 367.47 111.425 366.998 110.983 366.634C110.55 366.27 109.969 366.088 109.241 366.088C108.392 366.088 107.699 366.292 107.161 366.699C106.624 367.106 106.308 367.674 106.212 368.402H107.356C107.4 367.969 107.586 367.618 107.915 367.349C108.253 367.08 108.695 366.946 109.241 366.946C109.649 366.946 109.965 367.05 110.19 367.258C110.424 367.466 110.541 367.739 110.541 368.077C110.541 368.354 110.459 368.575 110.294 368.74C110.13 368.905 109.926 369.03 109.683 369.117C109.441 369.204 109.107 369.295 108.682 369.39C108.154 369.511 107.729 369.633 107.408 369.754C107.096 369.875 106.828 370.066 106.602 370.326C106.386 370.595 106.277 370.954 106.277 371.405C106.277 372.003 106.498 372.484 106.94 372.848C107.382 373.221 107.985 373.407 108.747 373.407ZM117.036 373.407C117.946 373.407 118.7 373.164 119.298 372.679C119.896 372.194 120.265 371.544 120.403 370.729H119.155C119.069 371.24 118.83 371.639 118.44 371.925C118.059 372.22 117.582 372.367 117.01 372.367C116.594 372.367 116.213 372.272 115.866 372.081C115.528 371.89 115.255 371.596 115.047 371.197C114.839 370.807 114.735 370.322 114.735 369.741C114.735 369.16 114.839 368.671 115.047 368.272C115.255 367.882 115.528 367.592 115.866 367.401C116.213 367.21 116.594 367.115 117.01 367.115C117.582 367.115 118.059 367.262 118.44 367.557C118.83 367.852 119.069 368.255 119.155 368.766H120.403C120.265 367.943 119.896 367.288 119.298 366.803C118.7 366.326 117.946 366.088 117.036 366.088C116.352 366.088 115.745 366.235 115.216 366.53C114.688 366.825 114.272 367.245 113.968 367.791C113.674 368.346 113.526 368.996 113.526 369.741C113.526 370.486 113.674 371.136 113.968 371.691C114.272 372.246 114.688 372.67 115.216 372.965C115.745 373.26 116.352 373.407 117.036 373.407ZM122.393 375.409C122.393 375.626 122.467 375.799 122.614 375.929C122.762 376.068 122.957 376.137 123.199 376.137C123.442 376.137 123.637 376.068 123.784 375.929C123.932 375.799 124.005 375.626 124.005 375.409C124.005 375.192 123.932 375.015 123.784 374.876C123.637 374.746 123.442 374.681 123.199 374.681C122.957 374.681 122.762 374.746 122.614 374.876C122.467 375.015 122.393 375.192 122.393 375.409ZM123.784 373.316V366.179H122.601V373.316H123.784ZM135.111 373.433C135.943 373.433 136.611 373.164 137.113 372.627C137.625 372.098 137.88 371.331 137.88 370.326V366.179H136.697V370.222C136.697 370.924 136.524 371.461 136.177 371.834C135.839 372.207 135.371 372.393 134.773 372.393C134.149 372.393 133.647 372.185 133.265 371.769C132.893 371.362 132.706 370.759 132.706 369.962V366.179H131.523V370.222C131.523 370.924 131.35 371.461 131.003 371.834C130.657 372.207 130.189 372.393 129.599 372.393C128.967 372.393 128.46 372.185 128.078 371.769C127.706 371.362 127.519 370.759 127.519 369.962V366.179H126.336V373.316H127.519V371.691C127.693 372.254 128 372.683 128.442 372.978C128.893 373.281 129.409 373.433 129.989 373.433C130.596 373.433 131.12 373.277 131.562 372.965C132.013 372.662 132.334 372.211 132.524 371.613C132.724 372.194 133.057 372.64 133.525 372.952C133.993 373.273 134.522 373.433 135.111 373.433ZM146.932 370.144C146.932 369.893 146.915 369.676 146.88 369.494H141.173C141.199 368.679 141.429 368.068 141.862 367.661C142.304 367.254 142.842 367.05 143.474 367.05C144.046 367.05 144.523 367.193 144.904 367.479C145.294 367.774 145.533 368.164 145.619 368.649H146.88C146.794 368.155 146.599 367.713 146.295 367.323C146.001 366.933 145.615 366.63 145.138 366.413C144.662 366.196 144.124 366.088 143.526 366.088C142.842 366.088 142.235 366.235 141.706 366.53C141.178 366.825 140.762 367.245 140.458 367.791C140.164 368.346 140.016 368.996 140.016 369.741C140.016 370.486 140.164 371.136 140.458 371.691C140.762 372.246 141.178 372.67 141.706 372.965C142.235 373.26 142.842 373.407 143.526 373.407C144.22 373.407 144.822 373.26 145.333 372.965C145.853 372.67 146.248 372.276 146.516 371.782C146.794 371.288 146.932 370.742 146.932 370.144ZM145.736 370.066C145.762 370.595 145.676 371.037 145.476 371.392C145.277 371.747 145.004 372.012 144.657 372.185C144.311 372.358 143.934 372.445 143.526 372.445C142.876 372.445 142.33 372.241 141.888 371.834C141.446 371.435 141.208 370.846 141.173 370.066H145.736ZM152.887 373.433C153.719 373.433 154.39 373.164 154.902 372.627C155.413 372.098 155.669 371.331 155.669 370.326V366.179H154.486V370.222C154.486 370.933 154.304 371.479 153.94 371.86C153.576 372.241 153.082 372.432 152.458 372.432C151.808 372.432 151.288 372.22 150.898 371.795C150.508 371.379 150.313 370.768 150.313 369.962V366.179H149.13V373.316H150.313V371.626C150.495 372.207 150.815 372.653 151.275 372.965C151.743 373.277 152.28 373.433 152.887 373.433ZM161.539 367.219V366.179H160.655C159.927 366.179 159.381 366.352 159.017 366.699C158.662 367.046 158.484 367.626 158.484 368.441V372.289H157.418V373.316H158.484V375.097H159.68V373.316H161.526V372.289H159.68V368.415C159.68 367.956 159.762 367.639 159.927 367.466C160.1 367.301 160.395 367.219 160.811 367.219H161.539ZM166.87 373.407C167.554 373.407 168.165 373.26 168.703 372.965C169.249 372.67 169.673 372.246 169.977 371.691C170.289 371.136 170.445 370.486 170.445 369.741C170.445 368.996 170.289 368.346 169.977 367.791C169.673 367.245 169.249 366.825 168.703 366.53C168.165 366.235 167.554 366.088 166.87 366.088C166.185 366.088 165.57 366.235 165.024 366.53C164.486 366.825 164.062 367.245 163.75 367.791C163.438 368.346 163.282 368.996 163.282 369.741C163.282 370.486 163.438 371.136 163.75 371.691C164.062 372.246 164.486 372.67 165.024 372.965C165.57 373.26 166.185 373.407 166.87 373.407ZM166.87 372.367C166.445 372.367 166.051 372.272 165.687 372.081C165.331 371.89 165.041 371.596 164.816 371.197C164.599 370.807 164.491 370.322 164.491 369.741C164.491 369.169 164.599 368.684 164.816 368.285C165.041 367.895 165.331 367.605 165.687 367.414C166.051 367.223 166.445 367.128 166.87 367.128C167.294 367.128 167.684 367.223 168.04 367.414C168.404 367.605 168.694 367.895 168.911 368.285C169.136 368.684 169.249 369.169 169.249 369.741C169.249 370.322 169.136 370.807 168.911 371.197C168.694 371.596 168.404 371.89 168.04 372.081C167.684 372.272 167.294 372.367 166.87 372.367Z" fill="#A3A3A3"/>
<path id="N&#195;&#186;mero carterinha" d="M57.0728 286.179H55.8898L51.1318 293.42V286.179H49.9488V295.344H51.1318L55.8898 288.09V295.344H57.0728V286.179ZM65.9691 293.316V286.179H64.7861V287.856C64.6041 287.275 64.2791 286.829 63.8111 286.517C63.3518 286.214 62.8145 286.062 62.1991 286.062C61.3758 286.062 60.7085 286.326 60.1971 286.855C59.6858 287.392 59.4301 288.159 59.4301 289.156V293.316H60.6131V289.273C60.6131 288.562 60.7951 288.012 61.1591 287.622C61.5231 287.241 62.0171 287.05 62.6411 287.05C63.2911 287.05 63.8111 287.258 64.2011 287.674C64.5911 288.099 64.7861 288.714 64.7861 289.52V293.316H65.9691ZM64.8381 295.396L62.0691 293.875V294.72L64.8381 296.358V295.396ZM77.2894 293.433C78.1214 293.433 78.7887 293.164 79.2914 292.627C79.8027 292.098 80.0584 291.331 80.0584 290.326V286.179H78.8754V290.222C78.8754 290.924 78.702 291.461 78.3554 291.834C78.0174 292.207 77.5494 292.393 76.9514 292.393C76.3274 292.393 75.8247 292.185 75.4434 291.769C75.0707 291.362 74.8844 290.759 74.8844 289.962V286.179H73.7014V290.222C73.7014 290.924 73.528 291.461 73.1814 291.834C72.8347 292.207 72.3667 292.393 71.7774 292.393C71.1447 292.393 70.6377 292.185 70.2564 291.769C69.8837 291.362 69.6974 290.759 69.6974 289.962V286.179H68.5144V293.316H69.6974V291.691C69.8707 292.254 70.1784 292.683 70.6204 292.978C71.071 293.281 71.5867 293.433 72.1674 293.433C72.774 293.433 73.2984 293.277 73.7404 292.965C74.191 292.662 74.5117 292.211 74.7024 291.613C74.9017 292.194 75.2354 292.64 75.7034 292.952C76.1714 293.273 76.7 293.433 77.2894 293.433ZM89.1102 290.144C89.1102 289.893 89.0929 289.676 89.0582 289.494H83.3512C83.3772 288.679 83.6069 288.068 84.0402 287.661C84.4822 287.254 85.0196 287.05 85.6522 287.05C86.2242 287.05 86.7009 287.193 87.0822 287.479C87.4722 287.774 87.7106 288.164 87.7972 288.649H89.0582C88.9716 288.155 88.7766 287.713 88.4732 287.323C88.1786 286.933 87.7929 286.63 87.3162 286.413C86.8396 286.196 86.3022 286.088 85.7042 286.088C85.0196 286.088 84.4129 286.235 83.8842 286.53C83.3556 286.825 82.9396 287.245 82.6362 287.791C82.3416 288.346 82.1942 288.996 82.1942 289.741C82.1942 290.486 82.3416 291.136 82.6362 291.691C82.9396 292.246 83.3556 292.67 83.8842 292.965C84.4129 293.26 85.0196 293.407 85.7042 293.407C86.3976 293.407 86.9999 293.26 87.5112 292.965C88.0312 292.67 88.4256 292.276 88.6942 291.782C88.9716 291.288 89.1102 290.742 89.1102 290.144ZM87.9142 290.066C87.9402 290.595 87.8536 291.037 87.6542 291.392C87.4549 291.747 87.1819 292.012 86.8352 292.185C86.4886 292.358 86.1116 292.445 85.7042 292.445C85.0542 292.445 84.5082 292.241 84.0662 291.834C83.6242 291.435 83.3859 290.846 83.3512 290.066H87.9142ZM92.4905 291.873C92.7245 292.367 93.0669 292.748 93.5175 293.017C93.9682 293.294 94.5055 293.433 95.1295 293.433V292.146H94.7655C94.0982 292.146 93.5522 291.973 93.1275 291.626C92.7029 291.288 92.4905 290.725 92.4905 289.936V286.179H91.3075V293.316H92.4905V291.873ZM100.184 293.407C100.868 293.407 101.479 293.26 102.017 292.965C102.563 292.67 102.987 292.246 103.291 291.691C103.603 291.136 103.759 290.486 103.759 289.741C103.759 288.996 103.603 288.346 103.291 287.791C102.987 287.245 102.563 286.825 102.017 286.53C101.479 286.235 100.868 286.088 100.184 286.088C99.4991 286.088 98.8838 286.235 98.3378 286.53C97.8005 286.825 97.3758 287.245 97.0638 287.791C96.7518 288.346 96.5958 288.996 96.5958 289.741C96.5958 290.486 96.7518 291.136 97.0638 291.691C97.3758 292.246 97.8005 292.67 98.3378 292.965C98.8838 293.26 99.4991 293.407 100.184 293.407ZM100.184 292.367C99.7591 292.367 99.3648 292.272 99.0008 292.081C98.6455 291.89 98.3551 291.596 98.1298 291.197C97.9131 290.807 97.8048 290.322 97.8048 289.741C97.8048 289.169 97.9131 288.684 98.1298 288.285C98.3551 287.895 98.6455 287.605 99.0008 287.414C99.3648 287.223 99.7591 287.128 100.184 287.128C100.608 287.128 100.998 287.223 101.354 287.414C101.718 287.605 102.008 287.895 102.225 288.285C102.45 288.684 102.563 289.169 102.563 289.741C102.563 290.322 102.45 290.807 102.225 291.197C102.008 291.596 101.718 291.89 101.354 292.081C100.998 292.272 100.608 292.367 100.184 292.367ZM112.971 293.407C113.881 293.407 114.635 293.164 115.233 292.679C115.831 292.194 116.2 291.544 116.338 290.729H115.09C115.004 291.24 114.765 291.639 114.375 291.925C113.994 292.22 113.517 292.367 112.945 292.367C112.529 292.367 112.148 292.272 111.801 292.081C111.463 291.89 111.19 291.596 110.982 291.197C110.774 290.807 110.67 290.322 110.67 289.741C110.67 289.16 110.774 288.671 110.982 288.272C111.19 287.882 111.463 287.592 111.801 287.401C112.148 287.21 112.529 287.115 112.945 287.115C113.517 287.115 113.994 287.262 114.375 287.557C114.765 287.852 115.004 288.255 115.09 288.766H116.338C116.2 287.943 115.831 287.288 115.233 286.803C114.635 286.326 113.881 286.088 112.971 286.088C112.287 286.088 111.68 286.235 111.151 286.53C110.623 286.825 110.207 287.245 109.903 287.791C109.609 288.346 109.461 288.996 109.461 289.741C109.461 290.486 109.609 291.136 109.903 291.691C110.207 292.246 110.623 292.67 111.151 292.965C111.68 293.26 112.287 293.407 112.971 293.407ZM121.461 293.407C122.155 293.407 122.74 293.234 123.216 292.887C123.702 292.54 124.04 292.077 124.23 291.496V293.316H125.413V286.179H124.23V287.999C124.04 287.418 123.702 286.955 123.216 286.608C122.74 286.261 122.155 286.088 121.461 286.088C120.829 286.088 120.265 286.235 119.771 286.53C119.277 286.825 118.887 287.245 118.601 287.791C118.324 288.346 118.185 288.996 118.185 289.741C118.185 290.486 118.324 291.136 118.601 291.691C118.887 292.246 119.277 292.67 119.771 292.965C120.265 293.26 120.829 293.407 121.461 293.407ZM121.799 292.354C121.071 292.354 120.486 292.12 120.044 291.652C119.611 291.193 119.394 290.556 119.394 289.741C119.394 288.926 119.611 288.285 120.044 287.817C120.486 287.358 121.071 287.128 121.799 287.128C122.267 287.128 122.683 287.236 123.047 287.453C123.42 287.67 123.71 287.973 123.918 288.363C124.126 288.762 124.23 289.221 124.23 289.741C124.23 290.261 124.126 290.72 123.918 291.119C123.71 291.518 123.42 291.821 123.047 292.029C122.683 292.246 122.267 292.354 121.799 292.354ZM129.129 291.873C129.363 292.367 129.706 292.748 130.156 293.017C130.607 293.294 131.144 293.433 131.768 293.433V292.146H131.404C130.737 292.146 130.191 291.973 129.766 291.626C129.342 291.288 129.129 290.725 129.129 289.936V286.179H127.946V293.316H129.129V291.873ZM136.991 287.219V286.179H136.107C135.379 286.179 134.833 286.352 134.469 286.699C134.114 287.046 133.936 287.626 133.936 288.441V292.289H132.87V293.316H133.936V295.097H135.132V293.316H136.978V292.289H135.132V288.415C135.132 287.956 135.215 287.639 135.379 287.466C135.553 287.301 135.847 287.219 136.263 287.219H136.991ZM145.65 290.144C145.65 289.893 145.633 289.676 145.598 289.494H139.891C139.917 288.679 140.147 288.068 140.58 287.661C141.022 287.254 141.559 287.05 142.192 287.05C142.764 287.05 143.241 287.193 143.622 287.479C144.012 287.774 144.25 288.164 144.337 288.649H145.598C145.511 288.155 145.316 287.713 145.013 287.323C144.718 286.933 144.333 286.63 143.856 286.413C143.379 286.196 142.842 286.088 142.244 286.088C141.559 286.088 140.953 286.235 140.424 286.53C139.895 286.825 139.479 287.245 139.176 287.791C138.881 288.346 138.734 288.996 138.734 289.741C138.734 290.486 138.881 291.136 139.176 291.691C139.479 292.246 139.895 292.67 140.424 292.965C140.953 293.26 141.559 293.407 142.244 293.407C142.937 293.407 143.54 293.26 144.051 292.965C144.571 292.67 144.965 292.276 145.234 291.782C145.511 291.288 145.65 290.742 145.65 290.144ZM144.454 290.066C144.48 290.595 144.393 291.037 144.194 291.392C143.995 291.747 143.722 292.012 143.375 292.185C143.028 292.358 142.651 292.445 142.244 292.445C141.594 292.445 141.048 292.241 140.606 291.834C140.164 291.435 139.926 290.846 139.891 290.066H144.454ZM149.03 291.873C149.264 292.367 149.607 292.748 150.057 293.017C150.508 293.294 151.045 293.433 151.669 293.433V292.146H151.305C150.638 292.146 150.092 291.973 149.667 291.626C149.243 291.288 149.03 290.725 149.03 289.936V286.179H147.847V293.316H149.03V291.873ZM153.279 295.409C153.279 295.626 153.352 295.799 153.5 295.929C153.647 296.068 153.842 296.137 154.085 296.137C154.327 296.137 154.522 296.068 154.67 295.929C154.817 295.799 154.891 295.626 154.891 295.409C154.891 295.192 154.817 295.015 154.67 294.876C154.522 294.746 154.327 294.681 154.085 294.681C153.842 294.681 153.647 294.746 153.5 294.876C153.352 295.015 153.279 295.192 153.279 295.409ZM154.67 293.316V286.179H153.487V293.316H154.67ZM160.979 293.433C161.811 293.433 162.482 293.164 162.994 292.627C163.505 292.098 163.761 291.331 163.761 290.326V286.179H162.578V290.222C162.578 290.933 162.396 291.479 162.032 291.86C161.668 292.241 161.174 292.432 160.55 292.432C159.9 292.432 159.38 292.22 158.99 291.795C158.6 291.379 158.405 290.768 158.405 289.962V286.179H157.222V293.316H158.405V291.626C158.587 292.207 158.907 292.653 159.367 292.965C159.835 293.277 160.372 293.433 160.979 293.433ZM169.982 293.433C170.814 293.433 171.486 293.164 171.997 292.627C172.508 292.098 172.764 291.331 172.764 290.326V286.179H171.581V290.222C171.581 290.933 171.399 291.479 171.035 291.86C170.671 292.241 170.177 292.432 169.553 292.432C168.903 292.432 168.383 292.22 167.993 291.795C167.603 291.379 167.408 290.768 167.408 289.962V286.179H166.225V295.799H167.408V291.626C167.59 292.207 167.911 292.653 168.37 292.965C168.838 293.277 169.375 293.433 169.982 293.433ZM178.154 293.407C178.847 293.407 179.432 293.234 179.909 292.887C180.394 292.54 180.732 292.077 180.923 291.496V293.316H182.106V286.179H180.923V287.999C180.732 287.418 180.394 286.955 179.909 286.608C179.432 286.261 178.847 286.088 178.154 286.088C177.521 286.088 176.958 286.235 176.464 286.53C175.97 286.825 175.58 287.245 175.294 287.791C175.016 288.346 174.878 288.996 174.878 289.741C174.878 290.486 175.016 291.136 175.294 291.691C175.58 292.246 175.97 292.67 176.464 292.965C176.958 293.26 177.521 293.407 178.154 293.407ZM178.492 292.354C177.764 292.354 177.179 292.12 176.737 291.652C176.303 291.193 176.087 290.556 176.087 289.741C176.087 288.926 176.303 288.285 176.737 287.817C177.179 287.358 177.764 287.128 178.492 287.128C178.96 287.128 179.376 287.236 179.74 287.453C180.112 287.67 180.403 287.973 180.611 288.363C180.819 288.762 180.923 289.221 180.923 289.741C180.923 290.261 180.819 290.72 180.611 291.119C180.403 291.518 180.112 291.821 179.74 292.029C179.376 292.246 178.96 292.354 178.492 292.354Z" fill="#A3A3A3"/>
<path id="Plano" d="M51.1318 222.871V219.179H49.9488V228.344H52.8608C53.9094 228.344 54.6938 228.097 55.2138 227.603C55.7338 227.118 55.9938 226.45 55.9938 225.601C55.9938 224.743 55.7251 224.071 55.1878 223.586C54.6504 223.109 53.8748 222.871 52.8608 222.871H51.1318ZM52.7568 223.859C53.4761 223.859 53.9918 224.011 54.3038 224.314C54.6244 224.617 54.7848 225.046 54.7848 225.601C54.7848 226.173 54.6244 226.606 54.3038 226.901C53.9918 227.204 53.4761 227.356 52.7568 227.356H51.1318V223.859H52.7568ZM59.2085 228.799V219.179H58.0255V228.799H59.2085ZM64.6855 226.407C65.3788 226.407 65.9638 226.234 66.4405 225.887C66.9258 225.54 67.2638 225.077 67.4545 224.496V226.316H68.6375V219.179H67.4545V220.999C67.2638 220.418 66.9258 219.955 66.4405 219.608C65.9638 219.261 65.3788 219.088 64.6855 219.088C64.0528 219.088 63.4895 219.235 62.9955 219.53C62.5015 219.825 62.1115 220.245 61.8255 220.791C61.5481 221.346 61.4095 221.996 61.4095 222.741C61.4095 223.486 61.5481 224.136 61.8255 224.691C62.1115 225.246 62.5015 225.67 62.9955 225.965C63.4895 226.26 64.0528 226.407 64.6855 226.407ZM65.0235 225.354C64.2955 225.354 63.7105 225.12 63.2685 224.652C62.8351 224.193 62.6185 223.556 62.6185 222.741C62.6185 221.926 62.8351 221.285 63.2685 220.817C63.7105 220.358 64.2955 220.128 65.0235 220.128C65.4915 220.128 65.9075 220.236 66.2715 220.453C66.6441 220.67 66.9345 220.973 67.1425 221.363C67.3505 221.762 67.4545 222.221 67.4545 222.741C67.4545 223.261 67.3505 223.72 67.1425 224.119C66.9345 224.518 66.6441 224.821 66.2715 225.029C65.9075 225.246 65.4915 225.354 65.0235 225.354ZM74.9272 226.433C75.7592 226.433 76.4309 226.164 76.9422 225.627C77.4536 225.098 77.7092 224.331 77.7092 223.326V219.179H76.5262V223.222C76.5262 223.933 76.3442 224.479 75.9802 224.86C75.6162 225.241 75.1222 225.432 74.4982 225.432C73.8482 225.432 73.3282 225.22 72.9382 224.795C72.5482 224.379 72.3532 223.768 72.3532 222.962V219.179H71.1702V226.316H72.3532V224.626C72.5352 225.207 72.8559 225.653 73.3152 225.965C73.7832 226.277 74.3206 226.433 74.9272 226.433ZM83.4108 226.407C84.0954 226.407 84.7064 226.26 85.2438 225.965C85.7898 225.67 86.2144 225.246 86.5178 224.691C86.8298 224.136 86.9858 223.486 86.9858 222.741C86.9858 221.996 86.8298 221.346 86.5178 220.791C86.2144 220.245 85.7898 219.825 85.2438 219.53C84.7064 219.235 84.0954 219.088 83.4108 219.088C82.7261 219.088 82.1108 219.235 81.5648 219.53C81.0274 219.825 80.6028 220.245 80.2908 220.791C79.9788 221.346 79.8228 221.996 79.8228 222.741C79.8228 223.486 79.9788 224.136 80.2908 224.691C80.6028 225.246 81.0274 225.67 81.5648 225.965C82.1108 226.26 82.7261 226.407 83.4108 226.407ZM83.4108 225.367C82.9861 225.367 82.5918 225.272 82.2278 225.081C81.8724 224.89 81.5821 224.596 81.3568 224.197C81.1401 223.807 81.0318 223.322 81.0318 222.741C81.0318 222.169 81.1401 221.684 81.3568 221.285C81.5821 220.895 81.8724 220.605 82.2278 220.414C82.5918 220.223 82.9861 220.128 83.4108 220.128C83.8354 220.128 84.2254 220.223 84.5808 220.414C84.9448 220.605 85.2351 220.895 85.4518 221.285C85.6771 221.684 85.7898 222.169 85.7898 222.741C85.7898 223.322 85.6771 223.807 85.4518 224.197C85.2351 224.596 84.9448 224.89 84.5808 225.081C84.2254 225.272 83.8354 225.367 83.4108 225.367Z" fill="#A3A3A3"/>
<path id="Arrow 19" d="M745.582 407.789C743.036 410.32 738.92 410.307 736.39 407.761L695.149 366.27C692.619 363.724 692.631 359.609 695.177 357.078C697.723 354.547 701.839 354.56 704.37 357.106L741.028 393.987L777.908 357.329C780.454 354.798 784.57 354.81 787.101 357.356C789.631 359.903 789.619 364.018 787.073 366.549L745.582 407.789ZM748.5 73.1986L747.5 403.199L734.5 403.159L735.5 73.1592L748.5 73.1986Z" fill="url(#paint1_linear)"/>
</g>
<defs>
<linearGradient id="paint0_linear" x1="-9.55893e-06" y1="505" x2="713" y2="108" gradientUnits="userSpaceOnUse">
<stop stop-color="#8CF748"/>
<stop offset="0.510417" stop-color="#8ADE55"/>
<stop offset="1" stop-color="#8DFF44"/>
</linearGradient>
<linearGradient id="paint1_linear" x1="730.068" y1="380.345" x2="724.416" y2="107.973" gradientUnits="userSpaceOnUse">
<stop stop-color="white"/>
<stop offset="0.572917" stop-color="white" stop-opacity="0.671146"/>
<stop offset="1" stop-color="white" stop-opacity="0"/>
</linearGradient>
</defs>
</svg>
