<svg width="817" height="499" viewBox="0 0 817 499" fill="none" xmlns="http://www.w3.org/2000/svg">
<g id="card-front">
<rect id="Rectangle 65" width="789.161" height="488.39" rx="27.079" transform="matrix(0.999914 -0.0130896 -0.0165799 0.999863 19.4611 10.4301)" fill="url(#paint0_linear)"/>
<g id="Group 19">
<g id="higia - logo 1" clip-path="url(#clip0)">
<path id="Vector" d="M360.178 169.411L347.259 169.58L346.312 226.684L359.231 226.515L360.178 169.411Z" fill="white" fill-opacity="0.84"/>
<path id="Vector_2" d="M348.443 153.419L348.272 163.755L373.746 149.99L373.909 140.171L348.443 153.419Z" fill="white" fill-opacity="0.84"/>
<path id="Vector_3" d="M402.768 168.028C388.321 168.217 376.394 181.092 376.134 196.784C375.874 212.476 387.378 225.045 401.825 224.855C416.273 224.666 428.197 211.791 428.457 196.099C428.717 180.407 417.217 167.838 402.768 168.028ZM404.079 214.022C395.438 214.136 388.572 206.008 388.74 195.871C388.908 185.733 396.047 177.422 404.688 177.309C413.328 177.196 420.193 185.324 420.025 195.461C419.857 205.598 412.717 213.909 404.079 214.022Z" fill="white" fill-opacity="0.84"/>
<path id="Vector_4" d="M420.245 167.95L432.664 167.787L431.722 224.615C430.175 237.274 420.427 247.484 408.469 249.409C395.134 251.57 381.928 242.982 378.507 229.21L388.925 229.269C391.448 236.082 397.985 240.271 404.66 239.664C412.663 238.936 419.484 231.438 419.343 222.438L420.245 167.95Z" fill="white" fill-opacity="0.84"/>
<path id="Vector_5" d="M456.673 168.518L443.696 168.687L442.755 225.419L455.732 225.25L456.673 168.518Z" fill="white" fill-opacity="0.84"/>
<path id="Vector_6" d="M450.782 161.188C454.626 161.138 457.794 157.981 457.858 154.137C457.921 150.293 454.857 147.217 451.012 147.267C447.168 147.318 444 150.475 443.936 154.319C443.873 158.163 446.937 161.238 450.782 161.188Z" fill="white" fill-opacity="0.84"/>
<path id="Vector_7" d="M496.181 167.956C480.934 168.156 468.36 181.077 468.099 196.814C467.838 212.55 479.988 225.15 495.236 224.951C510.483 224.751 523.052 211.832 523.312 196.1C523.573 180.368 511.426 167.756 496.181 167.956ZM498.007 214.746C487.365 214.885 478.88 206.445 479.055 195.891C479.23 185.337 487.999 176.67 498.64 176.531C509.282 176.392 517.765 184.834 517.59 195.386C517.415 205.938 508.648 214.607 498.007 214.746Z" fill="white" fill-opacity="0.84"/>
<path id="Vector_8" d="M529.284 166.83L518.306 166.974L517.349 224.664L528.327 224.52L529.284 166.83Z" fill="white" fill-opacity="0.84"/>
</g>
</g>
<g id="Group 30">
<path id="Arrow 9" d="M93.8297 417.263C95.9325 417.236 97.6536 416.229 97.6737 415.015L98.0018 395.231C98.0219 394.017 96.3335 393.056 94.2306 393.083C92.1278 393.111 90.4067 394.117 90.3866 395.331L90.095 412.917L59.6344 413.315C57.5315 413.343 55.8105 414.349 55.7904 415.563C55.7702 416.777 57.4586 417.739 59.5615 417.712L93.8297 417.263ZM4.331 367.196L91.148 416.655L96.5843 413.475L9.76727 364.017L4.331 367.196Z" fill="url(#paint1_linear)" fill-opacity="0.44"/>
<path id="Arrow 17" d="M113.621 487.953C115.724 487.925 117.445 486.919 117.465 485.705L117.793 465.921C117.813 464.707 116.125 463.745 114.022 463.773C111.919 463.8 110.198 464.807 110.178 466.021L109.886 483.606L79.4257 484.005C77.3229 484.033 75.6018 485.039 75.5817 486.253C75.5616 487.467 77.25 488.429 79.3528 488.402L113.621 487.953ZM24.1223 437.886L110.939 487.344L116.376 484.165L29.5586 434.707L24.1223 437.886Z" fill="url(#paint2_linear)" fill-opacity="0.44"/>
<path id="Arrow 13" d="M90.0061 356.039C92.1089 356.012 93.83 355.005 93.8501 353.791L94.1781 334.008C94.1983 332.794 92.5099 331.832 90.407 331.859C88.3042 331.887 86.5831 332.893 86.563 334.107L86.2714 351.693L55.8108 352.092C53.7079 352.119 51.9869 353.126 51.9668 354.34C51.9466 355.554 53.635 356.515 55.7379 356.488L90.0061 356.039ZM0.507388 305.973L87.3244 355.431L92.7606 352.251L5.94366 302.793L0.507388 305.973Z" fill="url(#paint3_linear)" fill-opacity="0.44"/>
<path id="Arrow 14" d="M189.884 361.988C191.987 361.96 193.708 360.954 193.728 359.74L194.056 339.956C194.076 338.742 192.388 337.78 190.285 337.808C188.182 337.835 186.461 338.842 186.441 340.056L186.149 357.641L155.688 358.04C153.586 358.068 151.865 359.074 151.844 360.288C151.824 361.502 153.513 362.464 155.616 362.436L189.884 361.988ZM100.385 311.921L187.202 361.379L192.638 358.2L105.821 308.742L100.385 311.921Z" fill="url(#paint4_linear)" fill-opacity="0.44"/>
<path id="Arrow 18" d="M91.1057 289.914C93.2086 289.886 94.9296 288.88 94.9498 287.666L95.2778 267.882C95.2979 266.668 93.6096 265.706 91.5067 265.734C89.4038 265.761 87.6828 266.768 87.6627 267.982L87.3711 285.567L56.9105 285.966C54.8076 285.993 53.0866 287 53.0664 288.214C53.0463 289.428 54.7347 290.39 56.8376 290.362L91.1057 289.914ZM1.60706 239.847L88.424 289.305L93.8603 286.126L7.04333 236.668L1.60706 239.847Z" fill="url(#paint5_linear)" fill-opacity="0.44"/>
<path id="Arrow 15" d="M288.901 420.353C291.004 420.326 292.725 419.319 292.745 418.105L293.073 398.322C293.093 397.108 291.405 396.146 289.302 396.173C287.199 396.201 285.478 397.207 285.458 398.421L285.166 416.007L254.706 416.406C252.603 416.433 250.882 417.44 250.862 418.654C250.842 419.868 252.53 420.83 254.633 420.802L288.901 420.353ZM199.402 370.287L286.219 419.745L291.656 416.566L204.839 367.108L199.402 370.287Z" fill="url(#paint6_linear)" fill-opacity="0.44"/>
<path id="Arrow 16" d="M386.349 475.514C388.452 475.487 390.173 474.48 390.193 473.266L390.521 453.482C390.541 452.268 388.853 451.307 386.75 451.334C384.647 451.362 382.926 452.368 382.906 453.582L382.614 471.168L352.154 471.566C350.051 471.594 348.33 472.6 348.31 473.814C348.289 475.028 349.978 475.99 352.081 475.963L386.349 475.514ZM296.85 425.447L383.667 474.906L389.103 471.726L302.286 422.268L296.85 425.447Z" fill="url(#paint7_linear)" fill-opacity="0.44"/>
<path id="Arrow 10" d="M188.895 421.662C190.998 421.635 192.719 420.628 192.739 419.414L193.067 399.631C193.087 398.417 191.399 397.455 189.296 397.482C187.193 397.51 185.472 398.516 185.452 399.73L185.16 417.316L154.7 417.715C152.597 417.742 150.876 418.749 150.856 419.963C150.836 421.177 152.524 422.138 154.627 422.111L188.895 421.662ZM99.3964 371.596L186.213 421.054L191.65 417.875L104.833 368.416L99.3964 371.596Z" fill="url(#paint8_linear)" fill-opacity="0.44"/>
<path id="Arrow 11" d="M187.909 481.337C190.012 481.309 191.733 480.303 191.753 479.088L192.081 459.305C192.101 458.091 190.413 457.129 188.31 457.156C186.207 457.184 184.486 458.19 184.466 459.404L184.174 476.99L153.714 477.389C151.611 477.416 149.89 478.423 149.87 479.637C149.849 480.851 151.538 481.813 153.641 481.785L187.909 481.337ZM98.4102 431.27L185.227 480.728L190.663 477.549L103.846 428.091L98.4102 431.27Z" fill="url(#paint9_linear)" fill-opacity="0.44"/>
<path id="Arrow 12" d="M298.39 479.89C300.493 479.863 302.214 478.856 302.234 477.642L302.562 457.859C302.582 456.645 300.894 455.683 298.791 455.71C296.688 455.738 294.967 456.744 294.947 457.958L294.656 475.544L264.195 475.943C262.092 475.97 260.371 476.977 260.351 478.191C260.331 479.405 262.019 480.366 264.122 480.339L298.39 479.89ZM208.892 429.824L295.709 479.282L301.145 476.103L214.328 426.644L208.892 429.824Z" fill="url(#paint10_linear)" fill-opacity="0.44"/>
</g>
<g id="Group 31">
<path id="Arrow 9_2" d="M720.433 411.184C717.981 411.216 716.013 409.97 716.039 408.402L716.463 382.835C716.489 381.266 718.499 379.969 720.951 379.936C723.404 379.904 725.372 381.15 725.345 382.719L724.969 405.445L760.498 404.98C762.951 404.947 764.918 406.193 764.892 407.762C764.866 409.331 762.856 410.629 760.404 410.661L720.433 411.184ZM808.811 355.267L723.587 410.311L717.373 406.376L802.597 351.332L808.811 355.267Z" fill="url(#paint11_linear)" fill-opacity="0.44"/>
<path id="Arrow 17_2" d="M699.007 487.088C696.554 487.12 694.587 485.874 694.613 484.306L695.037 458.739C695.063 457.17 697.073 455.872 699.525 455.84C701.978 455.808 703.945 457.054 703.919 458.623L703.543 481.349L739.072 480.883C741.524 480.851 743.492 482.097 743.466 483.666C743.44 485.235 741.43 486.533 738.977 486.565L699.007 487.088ZM787.385 431.171L702.161 486.215L695.947 482.28L781.171 427.236L787.385 431.171Z" fill="url(#paint12_linear)" fill-opacity="0.44"/>
<path id="Arrow 13_2" d="M726.171 345.798C723.718 345.83 721.751 344.585 721.777 343.016L722.201 317.449C722.227 315.88 724.236 314.583 726.689 314.55C729.142 314.518 731.109 315.764 731.083 317.333L730.706 340.059L766.236 339.594C768.688 339.561 770.656 340.807 770.63 342.376C770.604 343.945 768.594 345.243 766.141 345.275L726.171 345.798ZM814.549 289.881L729.325 344.925L723.111 340.99L808.335 285.946L814.549 289.881Z" fill="url(#paint13_linear)" fill-opacity="0.44"/>
<path id="Arrow 14_2" d="M629.838 354.793C627.385 354.825 625.418 353.58 625.444 352.011L625.868 326.444C625.894 324.876 627.903 323.578 630.356 323.546C632.809 323.513 634.776 324.759 634.75 326.328L634.373 349.054L669.902 348.589C672.355 348.557 674.322 349.802 674.296 351.371C674.27 352.94 672.261 354.238 669.808 354.27L629.838 354.793ZM718.216 298.876L632.992 353.92L626.778 349.985L712.002 294.941L718.216 298.876Z" fill="url(#paint14_linear)" fill-opacity="0.44"/>
<path id="Arrow 18_2" d="M727.342 275.316C724.89 275.348 722.922 274.102 722.948 272.533L723.372 246.967C723.398 245.398 725.408 244.1 727.861 244.068C730.313 244.036 732.281 245.282 732.255 246.85L731.878 269.576L767.407 269.111C769.86 269.079 771.827 270.325 771.801 271.894C771.775 273.462 769.766 274.76 767.313 274.792L727.342 275.316ZM815.721 219.399L730.497 274.443L724.283 270.507L809.506 215.464L815.721 219.399Z" fill="url(#paint15_linear)" fill-opacity="0.44"/>
<path id="Arrow 15_2" d="M532.572 419.659C530.12 419.691 528.152 418.445 528.178 416.876L528.602 391.31C528.628 389.741 530.638 388.443 533.09 388.411C535.543 388.379 537.511 389.625 537.485 391.194L537.108 413.919L572.637 413.454C575.09 413.422 577.057 414.668 577.031 416.237C577.005 417.806 574.995 419.103 572.543 419.136L532.572 419.659ZM620.95 363.742L535.727 418.786L529.512 414.851L614.736 359.807L620.95 363.742Z" fill="url(#paint16_linear)" fill-opacity="0.44"/>
<path id="Arrow 16_2" d="M436.928 481.066C434.475 481.098 432.508 479.852 432.534 478.283L432.958 452.717C432.984 451.148 434.994 449.85 437.446 449.818C439.899 449.786 441.866 451.032 441.84 452.601L441.464 475.326L476.993 474.861C479.446 474.829 481.413 476.075 481.387 477.644C481.361 479.213 479.351 480.511 476.899 480.543L436.928 481.066ZM525.306 425.149L440.082 480.193L433.868 476.258L519.092 421.214L525.306 425.149Z" fill="url(#paint17_linear)" fill-opacity="0.44"/>
<path id="Arrow 10_2" d="M628.779 418.399C626.327 418.432 624.359 417.186 624.385 415.617L624.809 390.051C624.835 388.482 626.845 387.184 629.298 387.152C631.75 387.12 633.718 388.365 633.692 389.934L633.315 412.66L668.844 412.195C671.297 412.163 673.264 413.408 673.238 414.977C673.212 416.546 671.202 417.844 668.75 417.876L628.779 418.399ZM717.157 362.482L631.934 417.526L625.719 413.591L710.943 358.547L717.157 362.482Z" fill="url(#paint18_linear)" fill-opacity="0.44"/>
<path id="Arrow 11_2" d="M627.728 482.005C625.275 482.038 623.308 480.792 623.334 479.223L623.758 453.657C623.784 452.088 625.793 450.79 628.246 450.758C630.699 450.726 632.666 451.971 632.64 453.54L632.263 476.266L667.792 475.801C670.245 475.769 672.212 477.014 672.186 478.583C672.16 480.152 670.151 481.45 667.698 481.482L627.728 482.005ZM716.106 426.088L630.882 481.132L624.668 477.197L709.892 422.153L716.106 426.088Z" fill="url(#paint19_linear)" fill-opacity="0.44"/>
<path id="Arrow 12_2" d="M521.437 483.397C518.984 483.429 517.017 482.183 517.043 480.614L517.467 455.048C517.493 453.479 519.502 452.181 521.955 452.149C524.408 452.117 526.375 453.363 526.349 454.932L525.972 477.657L561.502 477.192C563.954 477.16 565.922 478.406 565.896 479.975C565.87 481.544 563.86 482.842 561.407 482.874L521.437 483.397ZM609.815 427.48L524.591 482.524L518.377 478.589L603.601 423.545L609.815 427.48Z" fill="url(#paint20_linear)" fill-opacity="0.44"/>
</g>
<path id="Vector 6" d="M280.399 132.694L268.114 132.855L267.498 169.97C267.498 169.97 265.552 171.419 262.624 174.998C259.715 178.555 256.389 184.943 254.959 190.691C252.512 200.534 253.16 209.877 253.16 209.877C253.16 209.877 256.472 201.792 259.726 197.422C262.67 193.469 267.089 189.399 267.089 189.399L266.445 228.257L278.817 228.095L279.565 182.965C279.565 182.965 288.151 180.687 295.4 184.151C302.84 187.707 308.996 198.167 311.997 207.626C315.303 218.046 315.067 227.359 315.067 227.359L332.057 227.137C332.057 227.137 331.817 216.095 327.325 202.548C325.476 196.971 322.107 189.967 318.997 184.713C314.889 177.774 307.649 171.735 301.67 168.477C292.16 163.295 279.874 164.32 279.874 164.32L280.399 132.694Z" fill="white" fill-opacity="0.84"/>
</g>
<defs>
<linearGradient id="paint0_linear" x1="-9.24453e-06" y1="488.39" x2="689.549" y2="104.448" gradientUnits="userSpaceOnUse">
<stop stop-color="#8BDB58"/>
<stop offset="0.510417" stop-color="#8ADE55"/>
<stop offset="1" stop-color="#8DFF44"/>
</linearGradient>
<linearGradient id="paint1_linear" x1="93.8659" y1="415.065" x2="56.1362" y2="350.549" gradientUnits="userSpaceOnUse">
<stop stop-color="white"/>
<stop offset="0.447917" stop-color="white" stop-opacity="0.66"/>
<stop offset="1" stop-color="white" stop-opacity="0"/>
</linearGradient>
<linearGradient id="paint2_linear" x1="113.657" y1="485.755" x2="75.9275" y2="421.239" gradientUnits="userSpaceOnUse">
<stop stop-color="white"/>
<stop offset="0.447917" stop-color="white" stop-opacity="0.66"/>
<stop offset="1" stop-color="white" stop-opacity="0"/>
</linearGradient>
<linearGradient id="paint3_linear" x1="90.0423" y1="353.841" x2="52.3126" y2="289.325" gradientUnits="userSpaceOnUse">
<stop stop-color="white"/>
<stop offset="0.447917" stop-color="white" stop-opacity="0.66"/>
<stop offset="1" stop-color="white" stop-opacity="0"/>
</linearGradient>
<linearGradient id="paint4_linear" x1="189.92" y1="359.79" x2="152.19" y2="295.274" gradientUnits="userSpaceOnUse">
<stop stop-color="white"/>
<stop offset="0.447917" stop-color="white" stop-opacity="0.66"/>
<stop offset="1" stop-color="white" stop-opacity="0"/>
</linearGradient>
<linearGradient id="paint5_linear" x1="91.142" y1="287.716" x2="53.4123" y2="223.2" gradientUnits="userSpaceOnUse">
<stop stop-color="white"/>
<stop offset="0.447917" stop-color="white" stop-opacity="0.66"/>
<stop offset="1" stop-color="white" stop-opacity="0"/>
</linearGradient>
<linearGradient id="paint6_linear" x1="288.937" y1="418.155" x2="251.208" y2="353.64" gradientUnits="userSpaceOnUse">
<stop stop-color="white"/>
<stop offset="0.447917" stop-color="white" stop-opacity="0.66"/>
<stop offset="1" stop-color="white" stop-opacity="0"/>
</linearGradient>
<linearGradient id="paint7_linear" x1="386.385" y1="473.316" x2="348.655" y2="408.8" gradientUnits="userSpaceOnUse">
<stop stop-color="white"/>
<stop offset="0.447917" stop-color="white" stop-opacity="0.66"/>
<stop offset="1" stop-color="white" stop-opacity="0"/>
</linearGradient>
<linearGradient id="paint8_linear" x1="188.931" y1="419.464" x2="151.202" y2="354.948" gradientUnits="userSpaceOnUse">
<stop stop-color="white"/>
<stop offset="0.447917" stop-color="white" stop-opacity="0.66"/>
<stop offset="1" stop-color="white" stop-opacity="0"/>
</linearGradient>
<linearGradient id="paint9_linear" x1="187.945" y1="479.138" x2="150.215" y2="414.623" gradientUnits="userSpaceOnUse">
<stop stop-color="white"/>
<stop offset="0.447917" stop-color="white" stop-opacity="0.66"/>
<stop offset="1" stop-color="white" stop-opacity="0"/>
</linearGradient>
<linearGradient id="paint10_linear" x1="298.426" y1="477.692" x2="260.697" y2="413.176" gradientUnits="userSpaceOnUse">
<stop stop-color="white"/>
<stop offset="0.447917" stop-color="white" stop-opacity="0.66"/>
<stop offset="1" stop-color="white" stop-opacity="0"/>
</linearGradient>
<linearGradient id="paint11_linear" x1="720.481" y1="408.344" x2="763.044" y2="341.13" gradientUnits="userSpaceOnUse">
<stop stop-color="white"/>
<stop offset="0.447917" stop-color="white" stop-opacity="0.66"/>
<stop offset="1" stop-color="white" stop-opacity="0"/>
</linearGradient>
<linearGradient id="paint12_linear" x1="699.054" y1="484.248" x2="741.618" y2="417.034" gradientUnits="userSpaceOnUse">
<stop stop-color="white"/>
<stop offset="0.447917" stop-color="white" stop-opacity="0.66"/>
<stop offset="1" stop-color="white" stop-opacity="0"/>
</linearGradient>
<linearGradient id="paint13_linear" x1="726.218" y1="342.958" x2="768.782" y2="275.744" gradientUnits="userSpaceOnUse">
<stop stop-color="white"/>
<stop offset="0.447917" stop-color="white" stop-opacity="0.66"/>
<stop offset="1" stop-color="white" stop-opacity="0"/>
</linearGradient>
<linearGradient id="paint14_linear" x1="629.885" y1="351.953" x2="672.449" y2="284.739" gradientUnits="userSpaceOnUse">
<stop stop-color="white"/>
<stop offset="0.447917" stop-color="white" stop-opacity="0.66"/>
<stop offset="1" stop-color="white" stop-opacity="0"/>
</linearGradient>
<linearGradient id="paint15_linear" x1="727.39" y1="272.475" x2="769.953" y2="205.261" gradientUnits="userSpaceOnUse">
<stop stop-color="white"/>
<stop offset="0.447917" stop-color="white" stop-opacity="0.66"/>
<stop offset="1" stop-color="white" stop-opacity="0"/>
</linearGradient>
<linearGradient id="paint16_linear" x1="532.62" y1="416.818" x2="575.183" y2="349.605" gradientUnits="userSpaceOnUse">
<stop stop-color="white"/>
<stop offset="0.447917" stop-color="white" stop-opacity="0.66"/>
<stop offset="1" stop-color="white" stop-opacity="0"/>
</linearGradient>
<linearGradient id="paint17_linear" x1="436.976" y1="478.225" x2="479.539" y2="411.012" gradientUnits="userSpaceOnUse">
<stop stop-color="white"/>
<stop offset="0.447917" stop-color="white" stop-opacity="0.66"/>
<stop offset="1" stop-color="white" stop-opacity="0"/>
</linearGradient>
<linearGradient id="paint18_linear" x1="628.827" y1="415.559" x2="671.39" y2="348.345" gradientUnits="userSpaceOnUse">
<stop stop-color="white"/>
<stop offset="0.447917" stop-color="white" stop-opacity="0.66"/>
<stop offset="1" stop-color="white" stop-opacity="0"/>
</linearGradient>
<linearGradient id="paint19_linear" x1="627.775" y1="479.165" x2="670.339" y2="411.951" gradientUnits="userSpaceOnUse">
<stop stop-color="white"/>
<stop offset="0.447917" stop-color="white" stop-opacity="0.66"/>
<stop offset="1" stop-color="white" stop-opacity="0"/>
</linearGradient>
<linearGradient id="paint20_linear" x1="521.484" y1="480.556" x2="564.048" y2="413.343" gradientUnits="userSpaceOnUse">
<stop stop-color="white"/>
<stop offset="0.447917" stop-color="white" stop-opacity="0.66"/>
<stop offset="1" stop-color="white" stop-opacity="0"/>
</linearGradient>
<clipPath id="clip0">
<rect width="264.988" height="110.01" fill="white" transform="matrix(0.999914 -0.0130896 -0.0165799 0.999863 264.793 141.599)"/>
</clipPath>
</defs>
</svg>
