<svg width="69" height="69" viewBox="0 0 69 69" fill="none" xmlns="http://www.w3.org/2000/svg">
<g id="icon-3">
<g id="Group 117">
<rect id="Rectangle 49" width="69" height="69" rx="16.35" fill="white"/>
<g id="feather:shield">
<g id="Group">
<path id="Vector" d="M44.9404 24.1826C44.3372 23.4907 43.6209 22.9418 42.8326 22.5673C42.0443 22.1928 41.1993 22 40.346 22C39.4927 22 38.6478 22.1928 37.8595 22.5673C37.0711 22.9418 36.3549 23.4907 35.7517 24.1826L34.4997 25.618L33.2478 24.1826C32.0293 22.7856 30.3766 22.0007 28.6534 22.0007C26.9302 22.0007 25.2776 22.7856 24.0591 24.1826C22.8406 25.5796 22.156 27.4744 22.156 29.4501C22.156 31.4258 22.8406 33.3206 24.0591 34.7177L25.311 36.153L34.4997 46.6881L43.6885 36.153L44.9404 34.7177C45.5439 34.026 46.0227 33.2049 46.3493 32.301C46.676 31.3972 46.8441 30.4285 46.8441 29.4501C46.8441 28.4718 46.676 27.503 46.3493 26.5992C46.0227 25.6954 45.5439 24.8742 44.9404 24.1826V24.1826Z" stroke="url(#paint0_linear)" stroke-width="2.34" stroke-linecap="round" stroke-linejoin="round"/>
</g>
</g>
</g>
</g>
<defs>
<linearGradient id="paint0_linear" x1="34.5" y1="22" x2="34.5" y2="46.6881" gradientUnits="userSpaceOnUse">
<stop stop-color="#8BDB58"/>
<stop offset="1" stop-color="#63FF00"/>
</linearGradient>
</defs>
</svg>
