<svg width="69" height="69" viewBox="0 0 69 69" fill="none" xmlns="http://www.w3.org/2000/svg">
<g id="icon-cong">
<g id="Group 154">
<g id="Group 153">
<g id="Group 128">
<rect id="Rectangle 49" width="69" height="69" rx="16.35" fill="white"/>
</g>
</g>
</g>
<g id="Group">
<path id="Vector" d="M34.5263 37.2454C36.5803 37.2454 38.2453 35.5804 38.2453 33.5264C38.2453 31.4724 36.5803 29.8074 34.5263 29.8074C32.4723 29.8074 30.8073 31.4724 30.8073 33.5264C30.8073 35.5804 32.4723 37.2454 34.5263 37.2454Z" stroke="url(#paint0_linear)" stroke-width="1.92" stroke-linecap="round" stroke-linejoin="round"/>
<path id="Vector_2" d="M43.7 37.2454C43.535 37.6193 43.4857 38.0341 43.5587 38.4362C43.6316 38.8384 43.8233 39.2094 44.1091 39.5016L44.1835 39.576C44.414 39.8063 44.5969 40.0797 44.7216 40.3807C44.8464 40.6817 44.9106 41.0043 44.9106 41.3301C44.9106 41.656 44.8464 41.9786 44.7216 42.2796C44.5969 42.5806 44.414 42.854 44.1835 43.0843C43.9532 43.3148 43.6797 43.4977 43.3788 43.6225C43.0778 43.7472 42.7551 43.8114 42.4293 43.8114C42.1035 43.8114 41.7809 43.7472 41.4799 43.6225C41.1789 43.4977 40.9054 43.3148 40.6752 43.0843L40.6008 43.0099C40.3086 42.7241 39.9375 42.5324 39.5354 42.4595C39.1332 42.3866 38.7185 42.4358 38.3446 42.6008C37.9779 42.758 37.6652 43.0189 37.4449 43.3515C37.2247 43.6841 37.1065 44.0738 37.1049 44.4727V44.6835C37.1049 45.341 36.8437 45.9717 36.3787 46.4366C35.9137 46.9016 35.2831 47.1628 34.6255 47.1628C33.968 47.1628 33.3373 46.9016 32.8724 46.4366C32.4074 45.9717 32.1462 45.341 32.1462 44.6835V44.5719C32.1366 44.1616 32.0038 43.7636 31.765 43.4298C31.5262 43.0959 31.1925 42.8417 30.8073 42.7C30.4334 42.535 30.0186 42.4857 29.6165 42.5587C29.2144 42.6316 28.8433 42.8233 28.5511 43.1091L28.4767 43.1835C28.2465 43.414 27.973 43.5969 27.672 43.7216C27.371 43.8464 27.0484 43.9106 26.7226 43.9106C26.3968 43.9106 26.0741 43.8464 25.7731 43.7216C25.4721 43.5969 25.1987 43.414 24.9684 43.1835C24.7379 42.9532 24.555 42.6797 24.4303 42.3788C24.3055 42.0778 24.2413 41.7551 24.2413 41.4293C24.2413 41.1035 24.3055 40.7809 24.4303 40.4799C24.555 40.1789 24.7379 39.9054 24.9684 39.6752L25.0428 39.6008C25.3286 39.3086 25.5203 38.9375 25.5932 38.5354C25.6662 38.1332 25.6169 37.7185 25.4519 37.3446C25.2948 36.9779 25.0338 36.6652 24.7012 36.4449C24.3686 36.2247 23.9789 36.1065 23.58 36.1049H23.3693C22.7117 36.1049 22.081 35.8437 21.6161 35.3787C21.1511 34.9137 20.8899 34.2831 20.8899 33.6255C20.8899 32.968 21.1511 32.3373 21.6161 31.8724C22.081 31.4074 22.7117 31.1462 23.3693 31.1462H23.4808C23.8911 31.1366 24.2891 31.0038 24.6229 30.765C24.9568 30.5262 25.2111 30.1925 25.3527 29.8073C25.5178 29.4334 25.567 29.0186 25.4941 28.6165C25.4211 28.2144 25.2294 27.8433 24.9436 27.5511L24.8693 27.4767C24.6387 27.2465 24.4559 26.973 24.3311 26.672C24.2063 26.371 24.1421 26.0484 24.1421 25.7226C24.1421 25.3968 24.2063 25.0741 24.3311 24.7731C24.4559 24.4721 24.6387 24.1987 24.8693 23.9684C25.0995 23.7379 25.373 23.555 25.674 23.4303C25.975 23.3055 26.2976 23.2413 26.6234 23.2413C26.9492 23.2413 27.2719 23.3055 27.5729 23.4303C27.8738 23.555 28.1473 23.7379 28.3776 23.9684L28.4519 24.0428C28.7441 24.3286 29.1152 24.5203 29.5173 24.5932C29.9195 24.6662 30.3342 24.6169 30.7081 24.4519H30.8073C31.174 24.2948 31.4867 24.0338 31.7069 23.7012C31.9272 23.3686 32.0454 22.9789 32.047 22.58V22.3693C32.047 21.7117 32.3082 21.081 32.7732 20.6161C33.2382 20.1511 33.8688 19.8899 34.5264 19.8899C35.1839 19.8899 35.8146 20.1511 36.2795 20.6161C36.7445 21.081 37.0057 21.7117 37.0057 22.3693V22.4808C37.0073 22.8797 37.1255 23.2695 37.3458 23.6021C37.566 23.9347 37.8787 24.1956 38.2454 24.3527C38.6193 24.5178 39.0341 24.567 39.4362 24.4941C39.8384 24.4211 40.2094 24.2294 40.5016 23.9436L40.576 23.8693C40.8063 23.6387 41.0797 23.4559 41.3807 23.3311C41.6817 23.2063 42.0043 23.1421 42.3301 23.1421C42.656 23.1421 42.9786 23.2063 43.2796 23.3311C43.5806 23.4559 43.854 23.6387 44.0843 23.8693C44.3148 24.0995 44.4977 24.373 44.6225 24.674C44.7472 24.975 44.8114 25.2976 44.8114 25.6234C44.8114 25.9492 44.7472 26.2719 44.6225 26.5729C44.4977 26.8738 44.3148 27.1473 44.0843 27.3776L44.0099 27.4519C43.7241 27.7441 43.5324 28.1152 43.4595 28.5173C43.3866 28.9195 43.4358 29.3342 43.6008 29.7081V29.8073C43.758 30.174 44.0189 30.4867 44.3515 30.7069C44.6841 30.9272 45.0738 31.0454 45.4727 31.047H45.6835C46.341 31.047 46.9717 31.3082 47.4366 31.7732C47.9016 32.2382 48.1628 32.8688 48.1628 33.5264C48.1628 34.1839 47.9016 34.8146 47.4366 35.2795C46.9717 35.7445 46.341 36.0057 45.6835 36.0057H45.5719C45.173 36.0073 44.7832 36.1255 44.4507 36.3458C44.1181 36.566 43.8571 36.8787 43.7 37.2454V37.2454Z" stroke="url(#paint1_linear)" stroke-width="1.92" stroke-linecap="round" stroke-linejoin="round"/>
</g>
</g>
<defs>
<linearGradient id="paint0_linear" x1="34.5263" y1="29.8074" x2="34.5263" y2="37.2454" gradientUnits="userSpaceOnUse">
<stop stop-color="#8BDB58"/>
<stop offset="1" stop-color="#63FF00"/>
</linearGradient>
<linearGradient id="paint1_linear" x1="34.5264" y1="19.8899" x2="34.5264" y2="47.1628" gradientUnits="userSpaceOnUse">
<stop stop-color="#8BDB58"/>
<stop offset="1" stop-color="#63FF00"/>
</linearGradient>
</defs>
</svg>
