<svg width="30" height="30" viewBox="0 0 30 30" fill="none" xmlns="http://www.w3.org/2000/svg">
<path d="M21.6667 1.66663H8.33335C4.65146 1.66663 1.66669 4.65139 1.66669 8.33329V21.6666C1.66669 25.3485 4.65146 28.3333 8.33335 28.3333H21.6667C25.3486 28.3333 28.3334 25.3485 28.3334 21.6666V8.33329C28.3334 4.65139 25.3486 1.66663 21.6667 1.66663Z" stroke="#999999" stroke-width="1.5" stroke-linecap="round" stroke-linejoin="round"/>
<path d="M20.3334 14.16C20.4979 15.2697 20.3084 16.403 19.7917 17.3987C19.275 18.3945 18.4575 19.2019 17.4555 19.7063C16.4535 20.2106 15.3179 20.3862 14.2104 20.2079C13.1029 20.0297 12.0797 19.5068 11.2865 18.7136C10.4932 17.9204 9.97033 16.8972 9.79211 15.7897C9.61389 14.6821 9.78944 13.5466 10.2938 12.5445C10.7981 11.5425 11.6056 10.725 12.6013 10.2084C13.5971 9.69169 14.7304 9.50215 15.84 9.6667C16.9719 9.83455 18.0198 10.362 18.8289 11.1711C19.6381 11.9802 20.1655 13.0281 20.3334 14.16Z" stroke="#999999" stroke-width="1.5" stroke-linecap="round" stroke-linejoin="round"/>
<path d="M22.3334 7.66663H22.3467" stroke="#999999" stroke-width="1.5" stroke-linecap="round" stroke-linejoin="round"/>
</svg>
