<svg width="43" height="43" viewBox="0 0 43 43" fill="none" xmlns="http://www.w3.org/2000/svg">
<path d="M31.25 2H11.75C6.36522 2 2 6.36522 2 11.75V31.25C2 36.6348 6.36522 41 11.75 41H31.25C36.6348 41 41 36.6348 41 31.25V11.75C41 6.36522 36.6348 2 31.25 2Z" stroke="white" stroke-width="2.73684" stroke-linecap="round" stroke-linejoin="round"/>
<path d="M29.3 20.2716C29.5407 21.8945 29.2635 23.5519 28.5078 25.0082C27.7522 26.4644 26.5566 27.6454 25.0912 28.383C23.6257 29.1206 21.965 29.3773 20.3452 29.1167C18.7254 28.856 17.229 28.0913 16.0689 26.9312C14.9088 25.7711 14.1441 24.2747 13.8834 22.6549C13.6228 21.0351 13.8795 19.3744 14.6171 17.9089C15.3547 16.4435 16.5357 15.2479 17.9919 14.4923C19.4482 13.7366 21.1056 13.4594 22.7285 13.7001C24.3839 13.9456 25.9165 14.717 27.0998 15.9003C28.2831 17.0836 29.0545 18.6162 29.3 20.2716Z" stroke="white" stroke-width="2.73684" stroke-linecap="round" stroke-linejoin="round"/>
<path d="M32.225 10.775H32.2456" stroke="white" stroke-width="2.73684" stroke-linecap="round" stroke-linejoin="round"/>
</svg>
