<svg width="93" height="109" viewBox="0 0 93 109" fill="none" xmlns="http://www.w3.org/2000/svg">
<path d="M30.5965 0H16.1957V42.211C16.1957 42.211 13.9418 43.8312 10.5784 47.8589C7.23635 51.861 3.46122 59.0784 1.89705 65.5954C-0.781574 76.7558 0.160745 87.3945 0.160745 87.3945C0.160745 87.3945 3.88663 78.2459 7.61646 73.3242C10.9912 68.8711 16.0935 64.3073 16.0935 64.3073V108.5H30.5965V57.1731C30.5965 57.1731 40.619 54.7095 49.1848 58.7584C57.9775 62.9146 65.3984 74.9052 69.1008 85.71C73.1794 97.6123 73.084 108.203 73.084 108.203H93C93 108.203 92.5043 95.639 86.9742 80.1612C84.6976 73.7894 80.6119 65.7717 76.863 59.7493C71.9115 51.7949 63.3056 44.8169 56.232 41.0219C44.9812 34.986 30.5965 35.9685 30.5965 35.9685V0Z" fill="white"/>
</svg>
