<svg width="36" height="42" viewBox="0 0 36 42" fill="none" xmlns="http://www.w3.org/2000/svg">
<path id="logo-h&#195;&#173;gia" d="M11.8438 0H6.26931V16.3398C6.26931 16.3398 5.39682 16.9669 4.09485 18.5261C2.80117 20.0753 1.33983 22.8691 0.734343 25.3918C-0.302545 29.712 0.0622239 33.8302 0.0622239 33.8302C0.0622239 33.8302 1.50451 30.2888 2.94831 28.3836C4.25465 26.6598 6.22977 24.8932 6.22977 24.8932V42.0001H11.8438V22.1315C11.8438 22.1315 15.7235 21.1779 19.0393 22.7452C22.4429 24.3541 25.3155 28.9956 26.7488 33.1781C28.3275 37.7855 28.2906 41.885 28.2906 41.885H36.0001C36.0001 41.885 35.8082 37.0216 33.6675 31.0302C32.7862 28.5637 31.2047 25.4601 29.7535 23.1288C27.8367 20.0497 24.5054 17.3485 21.7673 15.8795C17.4121 13.543 11.8438 13.9233 11.8438 13.9233V0Z" fill="#8BDB58"/>
</svg>
