<svg width="348" height="337" viewBox="0 0 348 337" fill="none" xmlns="http://www.w3.org/2000/svg">
<rect width="348" height="337" rx="56" fill="url(#paint0_linear)"/>
<path d="M155.31 47H130.689V127.921C130.689 127.921 126.836 131.027 121.086 138.748C115.372 146.42 108.918 160.256 106.243 172.75C101.664 194.145 103.275 214.54 103.275 214.54C103.275 214.54 109.645 197.001 116.022 187.566C121.791 179.029 130.515 170.28 130.515 170.28V255H155.31V156.604C155.31 156.604 172.445 151.881 187.09 159.643C202.123 167.611 214.81 190.597 221.14 211.311C228.113 234.128 227.95 254.43 227.95 254.43H262C262 254.43 261.153 230.345 251.698 200.673C247.806 188.458 240.82 173.088 234.411 161.542C225.945 146.293 211.232 132.916 199.139 125.641C179.903 114.07 155.31 115.953 155.31 115.953V47Z" fill="white"/>
<defs>
<linearGradient id="paint0_linear" x1="174" y1="0" x2="174" y2="337" gradientUnits="userSpaceOnUse">
<stop stop-color="#8BDB58"/>
<stop offset="1" stop-color="#72F81D"/>
</linearGradient>
</defs>
</svg>
