<svg width="414" height="750" viewBox="0 0 414 750" fill="none" xmlns="http://www.w3.org/2000/svg">
<path d="M41 74C41 33.1309 74.1309 0 115 0H386V488C386 528.869 352.869 562 312 562H41V74Z" fill="#8BDB58"/>
<line y1="-0.5" x2="7.86557" y2="-0.5" transform="matrix(0.762819 0.646612 -0.129968 0.991518 333 350.932)" stroke="#8BDB58"/>
<path d="M41 167H386V488C386 528.869 352.869 562 312 562H41V167Z" fill="white"/>
<g filter="url(#filter0_dddd)">
<rect x="87" y="458" width="240" height="56" rx="14" fill="url(#paint0_linear)"/>
</g>
<path d="M153.124 494.394L150.856 491.928C150.304 492.072 149.728 492.144 149.128 492.144C147.94 492.144 146.866 491.868 145.906 491.316C144.958 490.752 144.208 489.978 143.656 488.994C143.104 487.998 142.828 486.876 142.828 485.628C142.828 484.38 143.104 483.264 143.656 482.28C144.208 481.284 144.958 480.51 145.906 479.958C146.866 479.406 147.94 479.13 149.128 479.13C150.304 479.13 151.366 479.406 152.314 479.958C153.274 480.51 154.024 481.284 154.564 482.28C155.116 483.264 155.392 484.38 155.392 485.628C155.392 486.828 155.134 487.914 154.618 488.886C154.102 489.858 153.4 490.626 152.512 491.19L155.662 494.394H153.124ZM144.934 485.628C144.934 486.552 145.108 487.362 145.456 488.058C145.816 488.754 146.314 489.288 146.95 489.66C147.586 490.032 148.312 490.218 149.128 490.218C149.932 490.218 150.646 490.032 151.27 489.66C151.906 489.288 152.398 488.754 152.746 488.058C153.106 487.362 153.286 486.552 153.286 485.628C153.286 484.704 153.106 483.894 152.746 483.198C152.398 482.502 151.906 481.968 151.27 481.596C150.646 481.224 149.932 481.038 149.128 481.038C148.312 481.038 147.586 481.224 146.95 481.596C146.314 481.968 145.816 482.502 145.456 483.198C145.108 483.894 144.934 484.704 144.934 485.628ZM167.507 482.082V492H165.437V489.84C165.185 490.572 164.747 491.142 164.123 491.55C163.499 491.946 162.773 492.144 161.945 492.144C160.793 492.144 159.869 491.772 159.173 491.028C158.477 490.284 158.129 489.222 158.129 487.842V482.082H160.181V487.626C160.181 488.526 160.409 489.222 160.865 489.714C161.321 490.194 161.945 490.434 162.737 490.434C163.553 490.434 164.207 490.17 164.699 489.642C165.191 489.114 165.437 488.346 165.437 487.338V482.082H167.507ZM180.08 486.564C180.08 486.9 180.056 487.194 180.008 487.446H172.376C172.412 488.466 172.694 489.222 173.222 489.714C173.75 490.206 174.404 490.452 175.184 490.452C175.868 490.452 176.444 490.278 176.912 489.93C177.392 489.582 177.686 489.12 177.794 488.544H179.99C179.858 489.24 179.582 489.858 179.162 490.398C178.742 490.938 178.196 491.364 177.524 491.676C176.852 491.976 176.102 492.126 175.274 492.126C174.314 492.126 173.462 491.922 172.718 491.514C171.986 491.106 171.41 490.518 170.99 489.75C170.57 488.982 170.36 488.076 170.36 487.032C170.36 486 170.57 485.1 170.99 484.332C171.41 483.564 171.986 482.976 172.718 482.568C173.462 482.16 174.314 481.956 175.274 481.956C176.246 481.956 177.092 482.16 177.812 482.568C178.544 482.964 179.102 483.516 179.486 484.224C179.882 484.92 180.08 485.7 180.08 486.564ZM178.01 486.51C178.034 485.862 177.92 485.322 177.668 484.89C177.428 484.446 177.092 484.122 176.66 483.918C176.24 483.702 175.778 483.594 175.274 483.594C174.47 483.594 173.798 483.84 173.258 484.332C172.718 484.824 172.424 485.55 172.376 486.51H178.01ZM185.014 484.026C185.35 483.378 185.83 482.868 186.454 482.496C187.078 482.112 187.798 481.92 188.614 481.92V484.152H188.002C187.102 484.152 186.376 484.374 185.824 484.818C185.284 485.25 185.014 485.97 185.014 486.978V492H182.962V482.082H185.014V484.026ZM195.587 481.956C196.547 481.956 197.411 482.16 198.179 482.568C198.947 482.976 199.547 483.564 199.979 484.332C200.411 485.1 200.627 486 200.627 487.032C200.627 488.076 200.411 488.982 199.979 489.75C199.547 490.518 198.947 491.106 198.179 491.514C197.411 491.922 196.547 492.126 195.587 492.126C194.627 492.126 193.763 491.922 192.995 491.514C192.239 491.106 191.639 490.518 191.195 489.75C190.763 488.97 190.547 488.064 190.547 487.032C190.547 486 190.763 485.1 191.195 484.332C191.639 483.564 192.239 482.976 192.995 482.568C193.763 482.16 194.627 481.956 195.587 481.956ZM195.587 483.738C195.059 483.738 194.573 483.858 194.129 484.098C193.685 484.338 193.325 484.71 193.049 485.214C192.785 485.706 192.653 486.312 192.653 487.032C192.653 487.764 192.785 488.376 193.049 488.868C193.325 489.36 193.685 489.726 194.129 489.966C194.573 490.206 195.059 490.326 195.587 490.326C196.115 490.326 196.601 490.206 197.045 489.966C197.489 489.726 197.843 489.36 198.107 488.868C198.383 488.376 198.521 487.764 198.521 487.032C198.521 486.312 198.383 485.706 198.107 485.214C197.843 484.71 197.489 484.338 197.045 484.098C196.601 483.858 196.115 483.738 195.587 483.738ZM217.835 486.564C217.835 486.9 217.811 487.194 217.763 487.446H210.131C210.167 488.466 210.449 489.222 210.977 489.714C211.505 490.206 212.159 490.452 212.939 490.452C213.623 490.452 214.199 490.278 214.667 489.93C215.147 489.582 215.441 489.12 215.549 488.544H217.745C217.613 489.24 217.337 489.858 216.917 490.398C216.497 490.938 215.951 491.364 215.279 491.676C214.607 491.976 213.857 492.126 213.029 492.126C212.069 492.126 211.217 491.922 210.473 491.514C209.741 491.106 209.165 490.518 208.745 489.75C208.325 488.982 208.115 488.076 208.115 487.032C208.115 486 208.325 485.1 208.745 484.332C209.165 483.564 209.741 482.976 210.473 482.568C211.217 482.16 212.069 481.956 213.029 481.956C214.001 481.956 214.847 482.16 215.567 482.568C216.299 482.964 216.857 483.516 217.241 484.224C217.637 484.92 217.835 485.7 217.835 486.564ZM215.765 486.51C215.789 485.862 215.675 485.322 215.423 484.89C215.183 484.446 214.847 484.122 214.415 483.918C213.995 483.702 213.533 483.594 213.029 483.594C212.225 483.594 211.553 483.84 211.013 484.332C210.473 484.824 210.179 485.55 210.131 486.51H215.765ZM223.974 481.956C225.138 481.956 226.068 482.256 226.764 482.856C227.472 483.444 227.904 484.236 228.06 485.232H226.116C226.032 484.692 225.798 484.26 225.414 483.936C225.042 483.6 224.544 483.432 223.92 483.432C223.404 483.432 223.002 483.558 222.714 483.81C222.438 484.05 222.3 484.38 222.3 484.8C222.3 485.112 222.402 485.364 222.606 485.556C222.81 485.748 223.062 485.898 223.362 486.006C223.674 486.114 224.112 486.234 224.676 486.366C225.42 486.534 226.02 486.708 226.476 486.888C226.944 487.068 227.34 487.356 227.664 487.752C228 488.136 228.168 488.664 228.168 489.336C228.168 490.164 227.85 490.836 227.214 491.352C226.59 491.868 225.744 492.126 224.676 492.126C223.44 492.126 222.438 491.838 221.67 491.262C220.914 490.686 220.458 489.882 220.302 488.85H222.3C222.36 489.39 222.6 489.828 223.02 490.164C223.44 490.5 223.992 490.668 224.676 490.668C225.168 490.668 225.552 490.542 225.828 490.29C226.116 490.026 226.26 489.696 226.26 489.3C226.26 488.952 226.152 488.676 225.936 488.472C225.72 488.268 225.45 488.112 225.126 488.004C224.802 487.884 224.358 487.764 223.794 487.644C223.074 487.476 222.486 487.308 222.03 487.14C221.586 486.972 221.202 486.702 220.878 486.33C220.566 485.946 220.41 485.43 220.41 484.782C220.41 483.942 220.722 483.264 221.346 482.748C221.982 482.22 222.858 481.956 223.974 481.956ZM234.384 481.956C235.548 481.956 236.478 482.256 237.174 482.856C237.882 483.444 238.314 484.236 238.47 485.232H236.526C236.442 484.692 236.208 484.26 235.824 483.936C235.452 483.6 234.954 483.432 234.33 483.432C233.814 483.432 233.412 483.558 233.124 483.81C232.848 484.05 232.71 484.38 232.71 484.8C232.71 485.112 232.812 485.364 233.016 485.556C233.22 485.748 233.472 485.898 233.772 486.006C234.084 486.114 234.522 486.234 235.086 486.366C235.83 486.534 236.43 486.708 236.886 486.888C237.354 487.068 237.75 487.356 238.074 487.752C238.41 488.136 238.578 488.664 238.578 489.336C238.578 490.164 238.26 490.836 237.624 491.352C237 491.868 236.154 492.126 235.086 492.126C233.85 492.126 232.848 491.838 232.08 491.262C231.324 490.686 230.868 489.882 230.712 488.85H232.71C232.77 489.39 233.01 489.828 233.43 490.164C233.85 490.5 234.402 490.668 235.086 490.668C235.578 490.668 235.962 490.542 236.238 490.29C236.526 490.026 236.67 489.696 236.67 489.3C236.67 488.952 236.562 488.676 236.346 488.472C236.13 488.268 235.86 488.112 235.536 488.004C235.212 487.884 234.768 487.764 234.204 487.644C233.484 487.476 232.896 487.308 232.44 487.14C231.996 486.972 231.612 486.702 231.288 486.33C230.976 485.946 230.82 485.43 230.82 484.782C230.82 483.942 231.132 483.264 231.756 482.748C232.392 482.22 233.268 481.956 234.384 481.956ZM250.751 486.564C250.751 486.9 250.727 487.194 250.679 487.446H243.047C243.083 488.466 243.365 489.222 243.893 489.714C244.421 490.206 245.075 490.452 245.855 490.452C246.539 490.452 247.115 490.278 247.583 489.93C248.063 489.582 248.357 489.12 248.465 488.544H250.661C250.529 489.24 250.253 489.858 249.833 490.398C249.413 490.938 248.867 491.364 248.195 491.676C247.523 491.976 246.773 492.126 245.945 492.126C244.985 492.126 244.133 491.922 243.389 491.514C242.657 491.106 242.081 490.518 241.661 489.75C241.241 488.982 241.031 488.076 241.031 487.032C241.031 486 241.241 485.1 241.661 484.332C242.081 483.564 242.657 482.976 243.389 482.568C244.133 482.16 244.985 481.956 245.945 481.956C246.917 481.956 247.763 482.16 248.483 482.568C249.215 482.964 249.773 483.516 250.157 484.224C250.553 484.92 250.751 485.7 250.751 486.564ZM248.681 486.51C248.705 485.862 248.591 485.322 248.339 484.89C248.099 484.446 247.763 484.122 247.331 483.918C246.911 483.702 246.449 483.594 245.945 483.594C245.141 483.594 244.469 483.84 243.929 484.332C243.389 484.824 243.095 485.55 243.047 486.51H248.681ZM256.513 478.896L256.243 488.022H254.515L254.245 478.896H256.513ZM256.567 489.732V492H254.227V489.732H256.567Z" fill="white"/>
<path d="M129.992 201.731C131.119 201.731 132.055 202.017 132.8 202.589C133.545 203.161 134.048 203.937 134.308 204.916H132.735C132.518 204.361 132.172 203.924 131.695 203.603C131.227 203.274 130.651 203.109 129.966 203.109C129.42 203.109 128.93 203.243 128.497 203.512C128.072 203.781 127.734 204.166 127.483 204.669C127.24 205.163 127.119 205.744 127.119 206.411C127.119 207.07 127.24 207.65 127.483 208.153C127.734 208.647 128.072 209.028 128.497 209.297C128.93 209.566 129.42 209.7 129.966 209.7C130.651 209.7 131.227 209.54 131.695 209.219C132.172 208.89 132.518 208.452 132.735 207.906H134.308C134.048 208.885 133.545 209.661 132.8 210.233C132.055 210.796 131.119 211.078 129.992 211.078C129.125 211.078 128.358 210.883 127.691 210.493C127.024 210.094 126.508 209.544 126.144 208.842C125.78 208.131 125.598 207.321 125.598 206.411C125.598 205.501 125.78 204.695 126.144 203.993C126.508 203.282 127.024 202.728 127.691 202.329C128.358 201.93 129.125 201.731 129.992 201.731ZM139.713 203.746C140.406 203.746 141.03 203.893 141.585 204.188C142.139 204.483 142.573 204.907 142.885 205.462C143.197 206.017 143.353 206.667 143.353 207.412C143.353 208.166 143.197 208.82 142.885 209.375C142.573 209.93 142.139 210.354 141.585 210.649C141.03 210.944 140.406 211.091 139.713 211.091C139.019 211.091 138.395 210.944 137.841 210.649C137.295 210.354 136.861 209.93 136.541 209.375C136.229 208.812 136.073 208.157 136.073 207.412C136.073 206.667 136.229 206.017 136.541 205.462C136.861 204.907 137.295 204.483 137.841 204.188C138.395 203.893 139.019 203.746 139.713 203.746ZM139.713 205.033C139.331 205.033 138.98 205.12 138.66 205.293C138.339 205.466 138.079 205.735 137.88 206.099C137.689 206.454 137.594 206.892 137.594 207.412C137.594 207.941 137.689 208.383 137.88 208.738C138.079 209.093 138.339 209.358 138.66 209.531C138.98 209.704 139.331 209.791 139.713 209.791C140.094 209.791 140.445 209.704 140.766 209.531C141.086 209.358 141.342 209.093 141.533 208.738C141.732 208.383 141.832 207.941 141.832 207.412C141.832 206.892 141.732 206.454 141.533 206.099C141.342 205.735 141.086 205.466 140.766 205.293C140.445 205.12 140.094 205.033 139.713 205.033ZM149.431 203.72C150.263 203.72 150.931 203.989 151.433 204.526C151.936 205.063 152.187 205.83 152.187 206.827V211H150.705V206.983C150.705 206.342 150.541 205.848 150.211 205.501C149.882 205.146 149.431 204.968 148.859 204.968C148.27 204.968 147.798 205.159 147.442 205.54C147.087 205.913 146.909 206.463 146.909 207.191V211H145.427V203.837H146.909V205.41C147.1 204.873 147.421 204.457 147.871 204.162C148.322 203.867 148.842 203.72 149.431 203.72ZM156.924 203.746C157.764 203.746 158.436 203.963 158.939 204.396C159.45 204.821 159.762 205.393 159.875 206.112H158.471C158.41 205.722 158.241 205.41 157.964 205.176C157.695 204.933 157.335 204.812 156.885 204.812C156.512 204.812 156.222 204.903 156.014 205.085C155.814 205.258 155.715 205.497 155.715 205.8C155.715 206.025 155.788 206.207 155.936 206.346C156.083 206.485 156.265 206.593 156.482 206.671C156.707 206.749 157.023 206.836 157.431 206.931C157.968 207.052 158.401 207.178 158.731 207.308C159.069 207.438 159.355 207.646 159.589 207.932C159.831 208.209 159.953 208.591 159.953 209.076C159.953 209.674 159.723 210.159 159.264 210.532C158.813 210.905 158.202 211.091 157.431 211.091C156.538 211.091 155.814 210.883 155.26 210.467C154.714 210.051 154.384 209.47 154.272 208.725H155.715C155.758 209.115 155.931 209.431 156.235 209.674C156.538 209.917 156.937 210.038 157.431 210.038C157.786 210.038 158.063 209.947 158.263 209.765C158.471 209.574 158.575 209.336 158.575 209.05C158.575 208.799 158.497 208.599 158.341 208.452C158.185 208.305 157.99 208.192 157.756 208.114C157.522 208.027 157.201 207.941 156.794 207.854C156.274 207.733 155.849 207.611 155.52 207.49C155.199 207.369 154.922 207.174 154.688 206.905C154.462 206.628 154.35 206.255 154.35 205.787C154.35 205.18 154.575 204.691 155.026 204.318C155.485 203.937 156.118 203.746 156.924 203.746ZM168.693 203.837V211H167.198V209.44C167.016 209.969 166.699 210.38 166.249 210.675C165.798 210.961 165.274 211.104 164.676 211.104C163.844 211.104 163.176 210.835 162.674 210.298C162.171 209.761 161.92 208.994 161.92 207.997V203.837H163.402V207.841C163.402 208.491 163.566 208.994 163.896 209.349C164.225 209.696 164.676 209.869 165.248 209.869C165.837 209.869 166.309 209.678 166.665 209.297C167.02 208.916 167.198 208.361 167.198 207.633V203.837H168.693ZM172.6 201.38V211H171.118V201.38H172.6ZM178.644 209.713V211H177.734C176.971 211 176.391 210.818 175.992 210.454C175.602 210.081 175.407 209.466 175.407 208.608V205.098H174.38V203.837H175.407V202.056H176.902V203.837H178.631V205.098H176.902V208.634C176.902 209.041 176.976 209.323 177.123 209.479C177.279 209.635 177.548 209.713 177.929 209.713H178.644ZM183.555 203.746C184.205 203.746 184.76 203.906 185.219 204.227C185.679 204.548 186.004 204.972 186.194 205.501V203.837H187.676V211H186.194V209.336C186.004 209.865 185.679 210.289 185.219 210.61C184.76 210.931 184.205 211.091 183.555 211.091C182.931 211.091 182.372 210.944 181.878 210.649C181.393 210.354 181.012 209.93 180.734 209.375C180.457 208.82 180.318 208.166 180.318 207.412C180.318 206.667 180.457 206.017 180.734 205.462C181.012 204.907 181.393 204.483 181.878 204.188C182.372 203.893 182.931 203.746 183.555 203.746ZM184.01 205.046C183.352 205.046 182.823 205.258 182.424 205.683C182.034 206.099 181.839 206.675 181.839 207.412C181.839 208.149 182.034 208.729 182.424 209.154C182.823 209.57 183.352 209.778 184.01 209.778C184.426 209.778 184.799 209.683 185.128 209.492C185.458 209.293 185.718 209.015 185.908 208.66C186.099 208.305 186.194 207.889 186.194 207.412C186.194 206.944 186.099 206.532 185.908 206.177C185.718 205.813 185.458 205.536 185.128 205.345C184.799 205.146 184.426 205.046 184.01 205.046ZM192.458 203.746C193.298 203.746 193.97 203.963 194.473 204.396C194.984 204.821 195.296 205.393 195.409 206.112H194.005C193.944 205.722 193.775 205.41 193.498 205.176C193.229 204.933 192.869 204.812 192.419 204.812C192.046 204.812 191.756 204.903 191.548 205.085C191.348 205.258 191.249 205.497 191.249 205.8C191.249 206.025 191.322 206.207 191.47 206.346C191.617 206.485 191.799 206.593 192.016 206.671C192.241 206.749 192.557 206.836 192.965 206.931C193.502 207.052 193.935 207.178 194.265 207.308C194.603 207.438 194.889 207.646 195.123 207.932C195.365 208.209 195.487 208.591 195.487 209.076C195.487 209.674 195.257 210.159 194.798 210.532C194.347 210.905 193.736 211.091 192.965 211.091C192.072 211.091 191.348 210.883 190.794 210.467C190.248 210.051 189.918 209.47 189.806 208.725H191.249C191.292 209.115 191.465 209.431 191.769 209.674C192.072 209.917 192.471 210.038 192.965 210.038C193.32 210.038 193.597 209.947 193.797 209.765C194.005 209.574 194.109 209.336 194.109 209.05C194.109 208.799 194.031 208.599 193.875 208.452C193.719 208.305 193.524 208.192 193.29 208.114C193.056 208.027 192.735 207.941 192.328 207.854C191.808 207.733 191.383 207.611 191.054 207.49C190.733 207.369 190.456 207.174 190.222 206.905C189.996 206.628 189.884 206.255 189.884 205.787C189.884 205.18 190.109 204.691 190.56 204.318C191.019 203.937 191.652 203.746 192.458 203.746ZM210.277 203.72C211.126 203.72 211.802 203.989 212.305 204.526C212.816 205.063 213.072 205.83 213.072 206.827V211H211.59V206.983C211.59 206.359 211.434 205.878 211.122 205.54C210.81 205.193 210.381 205.02 209.835 205.02C209.254 205.02 208.791 205.206 208.444 205.579C208.106 205.943 207.937 206.48 207.937 207.191V211H206.455V206.983C206.455 206.359 206.299 205.878 205.987 205.54C205.675 205.193 205.246 205.02 204.7 205.02C204.119 205.02 203.656 205.206 203.309 205.579C202.971 205.943 202.802 206.48 202.802 207.191V211H201.32V203.837H202.802V205.332C202.984 204.812 203.287 204.413 203.712 204.136C204.137 203.859 204.635 203.72 205.207 203.72C205.805 203.72 206.321 203.867 206.754 204.162C207.196 204.457 207.517 204.881 207.716 205.436C207.924 204.899 208.258 204.478 208.717 204.175C209.176 203.872 209.696 203.72 210.277 203.72ZM222.108 207.074C222.108 207.317 222.091 207.529 222.056 207.711H216.544C216.57 208.448 216.774 208.994 217.155 209.349C217.537 209.704 218.009 209.882 218.572 209.882C219.066 209.882 219.482 209.756 219.82 209.505C220.167 209.254 220.379 208.92 220.457 208.504H222.043C221.948 209.007 221.749 209.453 221.445 209.843C221.142 210.233 220.748 210.541 220.262 210.766C219.777 210.983 219.235 211.091 218.637 211.091C217.944 211.091 217.329 210.944 216.791 210.649C216.263 210.354 215.847 209.93 215.543 209.375C215.24 208.82 215.088 208.166 215.088 207.412C215.088 206.667 215.24 206.017 215.543 205.462C215.847 204.907 216.263 204.483 216.791 204.188C217.329 203.893 217.944 203.746 218.637 203.746C219.339 203.746 219.95 203.893 220.47 204.188C220.999 204.474 221.402 204.873 221.679 205.384C221.965 205.887 222.108 206.45 222.108 207.074ZM220.613 207.035C220.631 206.567 220.548 206.177 220.366 205.865C220.193 205.544 219.95 205.31 219.638 205.163C219.335 205.007 219.001 204.929 218.637 204.929C218.057 204.929 217.571 205.107 217.181 205.462C216.791 205.817 216.579 206.342 216.544 207.035H220.613ZM220.665 201.809L217.792 203.278V202.238L220.665 200.652V201.809ZM227.062 203.746C227.712 203.746 228.267 203.906 228.726 204.227C229.186 204.548 229.506 204.972 229.688 205.501V201.38H231.183V211H229.688V209.336C229.506 209.865 229.186 210.289 228.726 210.61C228.267 210.931 227.712 211.091 227.062 211.091C226.438 211.091 225.879 210.944 225.385 210.649C224.9 210.354 224.519 209.93 224.241 209.375C223.964 208.82 223.825 208.166 223.825 207.412C223.825 206.667 223.964 206.017 224.241 205.462C224.519 204.907 224.9 204.483 225.385 204.188C225.879 203.893 226.438 203.746 227.062 203.746ZM227.517 205.046C226.859 205.046 226.33 205.258 225.931 205.683C225.541 206.099 225.346 206.675 225.346 207.412C225.346 208.149 225.541 208.729 225.931 209.154C226.33 209.57 226.859 209.778 227.517 209.778C227.933 209.778 228.306 209.683 228.635 209.492C228.965 209.293 229.225 209.015 229.415 208.66C229.606 208.305 229.701 207.889 229.701 207.412C229.701 206.944 229.606 206.532 229.415 206.177C229.225 205.813 228.965 205.536 228.635 205.345C228.306 205.146 227.933 205.046 227.517 205.046ZM233.404 201.757C233.404 201.506 233.49 201.298 233.664 201.133C233.837 200.968 234.067 200.886 234.353 200.886C234.639 200.886 234.868 200.968 235.042 201.133C235.224 201.298 235.315 201.506 235.315 201.757C235.315 202.008 235.224 202.212 235.042 202.368C234.868 202.524 234.639 202.602 234.353 202.602C234.067 202.602 233.837 202.524 233.664 202.368C233.49 202.212 233.404 202.008 233.404 201.757ZM235.094 203.837V211H233.612V203.837H235.094ZM240.722 203.746C241.649 203.746 242.416 203.993 243.023 204.487C243.63 204.972 244.007 205.635 244.154 206.476H242.581C242.494 206.025 242.282 205.674 241.944 205.423C241.615 205.163 241.199 205.033 240.696 205.033C240.124 205.033 239.647 205.237 239.266 205.644C238.885 206.043 238.694 206.632 238.694 207.412C238.694 208.192 238.885 208.786 239.266 209.193C239.647 209.6 240.124 209.804 240.696 209.804C241.199 209.804 241.615 209.674 241.944 209.414C242.282 209.154 242.494 208.799 242.581 208.348H244.154C244.007 209.189 243.63 209.856 243.023 210.35C242.416 210.844 241.649 211.091 240.722 211.091C240.029 211.091 239.413 210.944 238.876 210.649C238.347 210.354 237.931 209.93 237.628 209.375C237.325 208.82 237.173 208.166 237.173 207.412C237.173 206.667 237.325 206.017 237.628 205.462C237.931 204.907 238.347 204.483 238.876 204.188C239.413 203.893 240.029 203.746 240.722 203.746ZM249.109 203.746C249.759 203.746 250.314 203.906 250.773 204.227C251.232 204.548 251.557 204.972 251.748 205.501V203.837H253.23V211H251.748V209.336C251.557 209.865 251.232 210.289 250.773 210.61C250.314 210.931 249.759 211.091 249.109 211.091C248.485 211.091 247.926 210.944 247.432 210.649C246.947 210.354 246.565 209.93 246.288 209.375C246.011 208.82 245.872 208.166 245.872 207.412C245.872 206.667 246.011 206.017 246.288 205.462C246.565 204.907 246.947 204.483 247.432 204.188C247.926 203.893 248.485 203.746 249.109 203.746ZM249.564 205.046C248.905 205.046 248.377 205.258 247.978 205.683C247.588 206.099 247.393 206.675 247.393 207.412C247.393 208.149 247.588 208.729 247.978 209.154C248.377 209.57 248.905 209.778 249.564 209.778C249.98 209.778 250.353 209.683 250.682 209.492C251.011 209.293 251.271 209.015 251.462 208.66C251.653 208.305 251.748 207.889 251.748 207.412C251.748 206.944 251.653 206.532 251.462 206.177C251.271 205.813 251.011 205.536 250.682 205.345C250.353 205.146 249.98 205.046 249.564 205.046ZM258.011 203.746C258.852 203.746 259.524 203.963 260.026 204.396C260.538 204.821 260.85 205.393 260.962 206.112H259.558C259.498 205.722 259.329 205.41 259.051 205.176C258.783 204.933 258.423 204.812 257.972 204.812C257.6 204.812 257.309 204.903 257.101 205.085C256.902 205.258 256.802 205.497 256.802 205.8C256.802 206.025 256.876 206.207 257.023 206.346C257.171 206.485 257.353 206.593 257.569 206.671C257.795 206.749 258.111 206.836 258.518 206.931C259.056 207.052 259.489 207.178 259.818 207.308C260.156 207.438 260.442 207.646 260.676 207.932C260.919 208.209 261.04 208.591 261.04 209.076C261.04 209.674 260.811 210.159 260.351 210.532C259.901 210.905 259.29 211.091 258.518 211.091C257.626 211.091 256.902 210.883 256.347 210.467C255.801 210.051 255.472 209.47 255.359 208.725H256.802C256.846 209.115 257.019 209.431 257.322 209.674C257.626 209.917 258.024 210.038 258.518 210.038C258.874 210.038 259.151 209.947 259.35 209.765C259.558 209.574 259.662 209.336 259.662 209.05C259.662 208.799 259.584 208.599 259.428 208.452C259.272 208.305 259.077 208.192 258.843 208.114C258.609 208.027 258.289 207.941 257.881 207.854C257.361 207.733 256.937 207.611 256.607 207.49C256.287 207.369 256.009 207.174 255.775 206.905C255.55 206.628 255.437 206.255 255.437 205.787C255.437 205.18 255.663 204.691 256.113 204.318C256.573 203.937 257.205 203.746 258.011 203.746Z" fill="#C8C8C8"/>
<path d="M127.379 250.018V252.8H130.759V253.944H127.379V256.791H131.149V258H125.897V248.822H131.149V250.018H127.379ZM137.475 258L135.72 255.465L134.186 258H132.535L134.901 254.282L132.509 250.837H134.186L135.902 253.307L137.423 250.837H139.061L136.695 254.451L139.152 258H137.475ZM143.705 250.746C144.355 250.746 144.909 250.906 145.369 251.227C145.828 251.548 146.153 251.972 146.344 252.501V250.837H147.826V258H146.344V256.336C146.153 256.865 145.828 257.289 145.369 257.61C144.909 257.931 144.355 258.091 143.705 258.091C143.081 258.091 142.522 257.944 142.028 257.649C141.542 257.354 141.161 256.93 140.884 256.375C140.606 255.82 140.468 255.166 140.468 254.412C140.468 253.667 140.606 253.017 140.884 252.462C141.161 251.907 141.542 251.483 142.028 251.188C142.522 250.893 143.081 250.746 143.705 250.746ZM144.16 252.046C143.501 252.046 142.972 252.258 142.574 252.683C142.184 253.099 141.989 253.675 141.989 254.412C141.989 255.149 142.184 255.729 142.574 256.154C142.972 256.57 143.501 256.778 144.16 256.778C144.576 256.778 144.948 256.683 145.278 256.492C145.607 256.293 145.867 256.015 146.058 255.66C146.248 255.305 146.344 254.889 146.344 254.412C146.344 253.944 146.248 253.532 146.058 253.177C145.867 252.813 145.607 252.536 145.278 252.345C144.948 252.146 144.576 252.046 144.16 252.046ZM159.211 250.72C160.061 250.72 160.737 250.989 161.239 251.526C161.751 252.063 162.006 252.83 162.006 253.827V258H160.524V253.983C160.524 253.359 160.368 252.878 160.056 252.54C159.744 252.193 159.315 252.02 158.769 252.02C158.189 252.02 157.725 252.206 157.378 252.579C157.04 252.943 156.871 253.48 156.871 254.191V258H155.389V253.983C155.389 253.359 155.233 252.878 154.921 252.54C154.609 252.193 154.18 252.02 153.634 252.02C153.054 252.02 152.59 252.206 152.243 252.579C151.905 252.943 151.736 253.48 151.736 254.191V258H150.254V250.837H151.736V252.332C151.918 251.812 152.222 251.413 152.646 251.136C153.071 250.859 153.569 250.72 154.141 250.72C154.739 250.72 155.255 250.867 155.688 251.162C156.13 251.457 156.451 251.881 156.65 252.436C156.858 251.899 157.192 251.478 157.651 251.175C158.111 250.872 158.631 250.72 159.211 250.72ZM171.043 254.074C171.043 254.317 171.025 254.529 170.991 254.711H165.479C165.505 255.448 165.708 255.994 166.09 256.349C166.471 256.704 166.943 256.882 167.507 256.882C168.001 256.882 168.417 256.756 168.755 256.505C169.101 256.254 169.314 255.92 169.392 255.504H170.978C170.882 256.007 170.683 256.453 170.38 256.843C170.076 257.233 169.682 257.541 169.197 257.766C168.711 257.983 168.17 258.091 167.572 258.091C166.878 258.091 166.263 257.944 165.726 257.649C165.197 257.354 164.781 256.93 164.478 256.375C164.174 255.82 164.023 255.166 164.023 254.412C164.023 253.667 164.174 253.017 164.478 252.462C164.781 251.907 165.197 251.483 165.726 251.188C166.263 250.893 166.878 250.746 167.572 250.746C168.274 250.746 168.885 250.893 169.405 251.188C169.933 251.474 170.336 251.873 170.614 252.384C170.9 252.887 171.043 253.45 171.043 254.074ZM169.548 254.035C169.565 253.567 169.483 253.177 169.301 252.865C169.127 252.544 168.885 252.31 168.573 252.163C168.269 252.007 167.936 251.929 167.572 251.929C166.991 251.929 166.506 252.107 166.116 252.462C165.726 252.817 165.513 253.342 165.479 254.035H169.548ZM175.477 250.746C176.317 250.746 176.989 250.963 177.492 251.396C178.003 251.821 178.315 252.393 178.428 253.112H177.024C176.963 252.722 176.794 252.41 176.517 252.176C176.248 251.933 175.888 251.812 175.438 251.812C175.065 251.812 174.775 251.903 174.567 252.085C174.367 252.258 174.268 252.497 174.268 252.8C174.268 253.025 174.341 253.207 174.489 253.346C174.636 253.485 174.818 253.593 175.035 253.671C175.26 253.749 175.576 253.836 175.984 253.931C176.521 254.052 176.954 254.178 177.284 254.308C177.622 254.438 177.908 254.646 178.142 254.932C178.384 255.209 178.506 255.591 178.506 256.076C178.506 256.674 178.276 257.159 177.817 257.532C177.366 257.905 176.755 258.091 175.984 258.091C175.091 258.091 174.367 257.883 173.813 257.467C173.267 257.051 172.937 256.47 172.825 255.725H174.268C174.311 256.115 174.484 256.431 174.788 256.674C175.091 256.917 175.49 257.038 175.984 257.038C176.339 257.038 176.616 256.947 176.816 256.765C177.024 256.574 177.128 256.336 177.128 256.05C177.128 255.799 177.05 255.599 176.894 255.452C176.738 255.305 176.543 255.192 176.309 255.114C176.075 255.027 175.754 254.941 175.347 254.854C174.827 254.733 174.402 254.611 174.073 254.49C173.752 254.369 173.475 254.174 173.241 253.905C173.015 253.628 172.903 253.255 172.903 252.787C172.903 252.18 173.128 251.691 173.579 251.318C174.038 250.937 174.671 250.746 175.477 250.746Z" fill="#C8C8C8"/>
<path d="M133.775 300.398C133.775 301.325 133.584 302.136 133.203 302.829C132.83 303.514 132.28 304.047 131.552 304.428C130.833 304.809 129.97 305 128.965 305H125.897V295.822H128.965C129.97 295.822 130.833 296.013 131.552 296.394C132.28 296.767 132.83 297.295 133.203 297.98C133.584 298.665 133.775 299.471 133.775 300.398ZM128.848 303.661C129.949 303.661 130.794 303.375 131.383 302.803C131.972 302.231 132.267 301.429 132.267 300.398C132.267 299.367 131.972 298.565 131.383 297.993C130.794 297.421 129.949 297.135 128.848 297.135H127.379V303.661H128.848ZM142.572 301.074C142.572 301.317 142.555 301.529 142.52 301.711H137.008C137.034 302.448 137.238 302.994 137.619 303.349C138 303.704 138.473 303.882 139.036 303.882C139.53 303.882 139.946 303.756 140.284 303.505C140.631 303.254 140.843 302.92 140.921 302.504H142.507C142.412 303.007 142.212 303.453 141.909 303.843C141.606 304.233 141.211 304.541 140.726 304.766C140.241 304.983 139.699 305.091 139.101 305.091C138.408 305.091 137.792 304.944 137.255 304.649C136.726 304.354 136.31 303.93 136.007 303.375C135.704 302.82 135.552 302.166 135.552 301.412C135.552 300.667 135.704 300.017 136.007 299.462C136.31 298.907 136.726 298.483 137.255 298.188C137.792 297.893 138.408 297.746 139.101 297.746C139.803 297.746 140.414 297.893 140.934 298.188C141.463 298.474 141.866 298.873 142.143 299.384C142.429 299.887 142.572 300.45 142.572 301.074ZM141.077 301.035C141.094 300.567 141.012 300.177 140.83 299.865C140.657 299.544 140.414 299.31 140.102 299.163C139.799 299.007 139.465 298.929 139.101 298.929C138.52 298.929 138.035 299.107 137.645 299.462C137.255 299.817 137.043 300.342 137.008 301.035H141.077ZM148.657 297.72C149.489 297.72 150.156 297.989 150.659 298.526C151.162 299.063 151.413 299.83 151.413 300.827V305H149.931V300.983C149.931 300.342 149.766 299.848 149.437 299.501C149.108 299.146 148.657 298.968 148.085 298.968C147.496 298.968 147.023 299.159 146.668 299.54C146.313 299.913 146.135 300.463 146.135 301.191V305H144.653V297.837H146.135V299.41C146.326 298.873 146.646 298.457 147.097 298.162C147.548 297.867 148.068 297.72 148.657 297.72ZM157.397 303.713V305H156.487C155.725 305 155.144 304.818 154.745 304.454C154.355 304.081 154.16 303.466 154.16 302.608V299.098H153.133V297.837H154.16V296.056H155.655V297.837H157.384V299.098H155.655V302.634C155.655 303.041 155.729 303.323 155.876 303.479C156.032 303.635 156.301 303.713 156.682 303.713H157.397ZM159.227 295.757C159.227 295.506 159.314 295.298 159.487 295.133C159.661 294.968 159.89 294.886 160.176 294.886C160.462 294.886 160.692 294.968 160.865 295.133C161.047 295.298 161.138 295.506 161.138 295.757C161.138 296.008 161.047 296.212 160.865 296.368C160.692 296.524 160.462 296.602 160.176 296.602C159.89 296.602 159.661 296.524 159.487 296.368C159.314 296.212 159.227 296.008 159.227 295.757ZM160.917 297.837V305H159.435V297.837H160.917ZM165.714 297.746C166.555 297.746 167.226 297.963 167.729 298.396C168.24 298.821 168.552 299.393 168.665 300.112H167.261C167.2 299.722 167.031 299.41 166.754 299.176C166.485 298.933 166.126 298.812 165.675 298.812C165.302 298.812 165.012 298.903 164.804 299.085C164.605 299.258 164.505 299.497 164.505 299.8C164.505 300.025 164.579 300.207 164.726 300.346C164.873 300.485 165.055 300.593 165.272 300.671C165.497 300.749 165.814 300.836 166.221 300.931C166.758 301.052 167.192 301.178 167.521 301.308C167.859 301.438 168.145 301.646 168.379 301.932C168.622 302.209 168.743 302.591 168.743 303.076C168.743 303.674 168.513 304.159 168.054 304.532C167.603 304.905 166.992 305.091 166.221 305.091C165.328 305.091 164.605 304.883 164.05 304.467C163.504 304.051 163.175 303.47 163.062 302.725H164.505C164.548 303.115 164.722 303.431 165.025 303.674C165.328 303.917 165.727 304.038 166.221 304.038C166.576 304.038 166.854 303.947 167.053 303.765C167.261 303.574 167.365 303.336 167.365 303.05C167.365 302.799 167.287 302.599 167.131 302.452C166.975 302.305 166.78 302.192 166.546 302.114C166.312 302.027 165.991 301.941 165.584 301.854C165.064 301.733 164.639 301.611 164.31 301.49C163.989 301.369 163.712 301.174 163.478 300.905C163.253 300.628 163.14 300.255 163.14 299.787C163.14 299.18 163.365 298.691 163.816 298.318C164.275 297.937 164.908 297.746 165.714 297.746ZM174.48 303.713V305H173.57C172.807 305 172.227 304.818 171.828 304.454C171.438 304.081 171.243 303.466 171.243 302.608V299.098H170.216V297.837H171.243V296.056H172.738V297.837H174.467V299.098H172.738V302.634C172.738 303.041 172.812 303.323 172.959 303.479C173.115 303.635 173.384 303.713 173.765 303.713H174.48ZM179.391 297.746C180.041 297.746 180.596 297.906 181.055 298.227C181.515 298.548 181.84 298.972 182.03 299.501V297.837H183.512V305H182.03V303.336C181.84 303.865 181.515 304.289 181.055 304.61C180.596 304.931 180.041 305.091 179.391 305.091C178.767 305.091 178.208 304.944 177.714 304.649C177.229 304.354 176.848 303.93 176.57 303.375C176.293 302.82 176.154 302.166 176.154 301.412C176.154 300.667 176.293 300.017 176.57 299.462C176.848 298.907 177.229 298.483 177.714 298.188C178.208 297.893 178.767 297.746 179.391 297.746ZM179.846 299.046C179.188 299.046 178.659 299.258 178.26 299.683C177.87 300.099 177.675 300.675 177.675 301.412C177.675 302.149 177.87 302.729 178.26 303.154C178.659 303.57 179.188 303.778 179.846 303.778C180.262 303.778 180.635 303.683 180.964 303.492C181.294 303.293 181.554 303.015 181.744 302.66C181.935 302.305 182.03 301.889 182.03 301.412C182.03 300.944 181.935 300.532 181.744 300.177C181.554 299.813 181.294 299.536 180.964 299.345C180.635 299.146 180.262 299.046 179.846 299.046Z" fill="#C8C8C8"/>
<path d="M135.413 339.965V349H133.918V342.227L131.305 349H130.005L127.379 342.227V349H125.897V339.965H127.691L130.681 347.18L133.619 339.965H135.413ZM140.719 341.746C141.369 341.746 141.923 341.906 142.383 342.227C142.842 342.548 143.167 342.972 143.358 343.501V341.837H144.84V349H143.358V347.336C143.167 347.865 142.842 348.289 142.383 348.61C141.923 348.931 141.369 349.091 140.719 349.091C140.095 349.091 139.536 348.944 139.042 348.649C138.556 348.354 138.175 347.93 137.898 347.375C137.62 346.82 137.482 346.166 137.482 345.412C137.482 344.667 137.62 344.017 137.898 343.462C138.175 342.907 138.556 342.483 139.042 342.188C139.536 341.893 140.095 341.746 140.719 341.746ZM141.174 343.046C140.515 343.046 139.986 343.258 139.588 343.683C139.198 344.099 139.003 344.675 139.003 345.412C139.003 346.149 139.198 346.729 139.588 347.154C139.986 347.57 140.515 347.778 141.174 347.778C141.59 347.778 141.962 347.683 142.292 347.492C142.621 347.293 142.881 347.015 143.072 346.66C143.262 346.305 143.358 345.889 143.358 345.412C143.358 344.944 143.262 344.532 143.072 344.177C142.881 343.813 142.621 343.536 142.292 343.345C141.962 343.146 141.59 343.046 141.174 343.046ZM150.869 347.713V349H149.959C149.197 349 148.616 348.818 148.217 348.454C147.827 348.081 147.632 347.466 147.632 346.608V343.098H146.605V341.837H147.632V340.056H149.127V341.837H150.856V343.098H149.127V346.634C149.127 347.041 149.201 347.323 149.348 347.479C149.504 347.635 149.773 347.713 150.154 347.713H150.869ZM159.564 345.074C159.564 345.317 159.546 345.529 159.512 345.711H154C154.026 346.448 154.229 346.994 154.611 347.349C154.992 347.704 155.464 347.882 156.028 347.882C156.522 347.882 156.938 347.756 157.276 347.505C157.622 347.254 157.835 346.92 157.913 346.504H159.499C159.403 347.007 159.204 347.453 158.901 347.843C158.597 348.233 158.203 348.541 157.718 348.766C157.232 348.983 156.691 349.091 156.093 349.091C155.399 349.091 154.784 348.944 154.247 348.649C153.718 348.354 153.302 347.93 152.999 347.375C152.695 346.82 152.544 346.166 152.544 345.412C152.544 344.667 152.695 344.017 152.999 343.462C153.302 342.907 153.718 342.483 154.247 342.188C154.784 341.893 155.399 341.746 156.093 341.746C156.795 341.746 157.406 341.893 157.926 342.188C158.454 342.474 158.857 342.873 159.135 343.384C159.421 343.887 159.564 344.45 159.564 345.074ZM158.069 345.035C158.086 344.567 158.004 344.177 157.822 343.865C157.648 343.544 157.406 343.31 157.094 343.163C156.79 343.007 156.457 342.929 156.093 342.929C155.512 342.929 155.027 343.107 154.637 343.462C154.247 343.817 154.034 344.342 154 345.035H158.069ZM163.126 343.241C163.369 342.773 163.716 342.405 164.166 342.136C164.617 341.859 165.137 341.72 165.726 341.72V343.332H165.284C164.634 343.332 164.11 343.492 163.711 343.813C163.321 344.125 163.126 344.645 163.126 345.373V349H161.644V341.837H163.126V343.241ZM171.491 341.72C172.323 341.72 172.99 341.989 173.493 342.526C173.996 343.063 174.247 343.83 174.247 344.827V349H172.765V344.983C172.765 344.342 172.6 343.848 172.271 343.501C171.942 343.146 171.491 342.968 170.919 342.968C170.33 342.968 169.857 343.159 169.502 343.54C169.147 343.913 168.969 344.463 168.969 345.191V349H167.487V341.837H168.969V343.41C169.16 342.873 169.48 342.457 169.931 342.162C170.382 341.867 170.902 341.72 171.491 341.72ZM176.422 339.757C176.422 339.506 176.509 339.298 176.682 339.133C176.855 338.968 177.085 338.886 177.371 338.886C177.657 338.886 177.887 338.968 178.06 339.133C178.242 339.298 178.333 339.506 178.333 339.757C178.333 340.008 178.242 340.212 178.06 340.368C177.887 340.524 177.657 340.602 177.371 340.602C177.085 340.602 176.855 340.524 176.682 340.368C176.509 340.212 176.422 340.008 176.422 339.757ZM178.112 341.837V349H176.63V341.837H178.112ZM183.428 341.746C184.078 341.746 184.633 341.906 185.092 342.227C185.552 342.548 185.872 342.972 186.054 343.501V339.38H187.549V349H186.054V347.336C185.872 347.865 185.552 348.289 185.092 348.61C184.633 348.931 184.078 349.091 183.428 349.091C182.804 349.091 182.245 348.944 181.751 348.649C181.266 348.354 180.885 347.93 180.607 347.375C180.33 346.82 180.191 346.166 180.191 345.412C180.191 344.667 180.33 344.017 180.607 343.462C180.885 342.907 181.266 342.483 181.751 342.188C182.245 341.893 182.804 341.746 183.428 341.746ZM183.883 343.046C183.225 343.046 182.696 343.258 182.297 343.683C181.907 344.099 181.712 344.675 181.712 345.412C181.712 346.149 181.907 346.729 182.297 347.154C182.696 347.57 183.225 347.778 183.883 347.778C184.299 347.778 184.672 347.683 185.001 347.492C185.331 347.293 185.591 347.015 185.781 346.66C185.972 346.305 186.067 345.889 186.067 345.412C186.067 344.944 185.972 344.532 185.781 344.177C185.591 343.813 185.331 343.536 185.001 343.345C184.672 343.146 184.299 343.046 183.883 343.046ZM192.851 341.746C193.501 341.746 194.056 341.906 194.515 342.227C194.974 342.548 195.299 342.972 195.49 343.501V341.837H196.972V349H195.49V347.336C195.299 347.865 194.974 348.289 194.515 348.61C194.056 348.931 193.501 349.091 192.851 349.091C192.227 349.091 191.668 348.944 191.174 348.649C190.689 348.354 190.307 347.93 190.03 347.375C189.753 346.82 189.614 346.166 189.614 345.412C189.614 344.667 189.753 344.017 190.03 343.462C190.307 342.907 190.689 342.483 191.174 342.188C191.668 341.893 192.227 341.746 192.851 341.746ZM193.306 343.046C192.647 343.046 192.119 343.258 191.72 343.683C191.33 344.099 191.135 344.675 191.135 345.412C191.135 346.149 191.33 346.729 191.72 347.154C192.119 347.57 192.647 347.778 193.306 347.778C193.722 347.778 194.095 347.683 194.424 347.492C194.753 347.293 195.013 347.015 195.204 346.66C195.395 346.305 195.49 345.889 195.49 345.412C195.49 344.944 195.395 344.532 195.204 344.177C195.013 343.813 194.753 343.536 194.424 343.345C194.095 343.146 193.722 343.046 193.306 343.046ZM202.273 341.746C202.923 341.746 203.478 341.906 203.937 342.227C204.397 342.548 204.717 342.972 204.899 343.501V339.38H206.394V349H204.899V347.336C204.717 347.865 204.397 348.289 203.937 348.61C203.478 348.931 202.923 349.091 202.273 349.091C201.649 349.091 201.09 348.944 200.596 348.649C200.111 348.354 199.73 347.93 199.452 347.375C199.175 346.82 199.036 346.166 199.036 345.412C199.036 344.667 199.175 344.017 199.452 343.462C199.73 342.907 200.111 342.483 200.596 342.188C201.09 341.893 201.649 341.746 202.273 341.746ZM202.728 343.046C202.07 343.046 201.541 343.258 201.142 343.683C200.752 344.099 200.557 344.675 200.557 345.412C200.557 346.149 200.752 346.729 201.142 347.154C201.541 347.57 202.07 347.778 202.728 347.778C203.144 347.778 203.517 347.683 203.846 347.492C204.176 347.293 204.436 347.015 204.626 346.66C204.817 346.305 204.912 345.889 204.912 345.412C204.912 344.944 204.817 344.532 204.626 344.177C204.436 343.813 204.176 343.536 203.846 343.345C203.517 343.146 203.144 343.046 202.728 343.046ZM215.479 345.074C215.479 345.317 215.461 345.529 215.427 345.711H209.915C209.941 346.448 210.144 346.994 210.526 347.349C210.907 347.704 211.379 347.882 211.943 347.882C212.437 347.882 212.853 347.756 213.191 347.505C213.537 347.254 213.75 346.92 213.828 346.504H215.414C215.318 347.007 215.119 347.453 214.816 347.843C214.512 348.233 214.118 348.541 213.633 348.766C213.147 348.983 212.606 349.091 212.008 349.091C211.314 349.091 210.699 348.944 210.162 348.649C209.633 348.354 209.217 347.93 208.914 347.375C208.61 346.82 208.459 346.166 208.459 345.412C208.459 344.667 208.61 344.017 208.914 343.462C209.217 342.907 209.633 342.483 210.162 342.188C210.699 341.893 211.314 341.746 212.008 341.746C212.71 341.746 213.321 341.893 213.841 342.188C214.369 342.474 214.772 342.873 215.05 343.384C215.336 343.887 215.479 344.45 215.479 345.074ZM213.984 345.035C214.001 344.567 213.919 344.177 213.737 343.865C213.563 343.544 213.321 343.31 213.009 343.163C212.705 343.007 212.372 342.929 212.008 342.929C211.427 342.929 210.942 343.107 210.552 343.462C210.162 343.817 209.949 344.342 209.915 345.035H213.984ZM219.913 341.746C220.753 341.746 221.425 341.963 221.928 342.396C222.439 342.821 222.751 343.393 222.864 344.112H221.46C221.399 343.722 221.23 343.41 220.953 343.176C220.684 342.933 220.324 342.812 219.874 342.812C219.501 342.812 219.211 342.903 219.003 343.085C218.803 343.258 218.704 343.497 218.704 343.8C218.704 344.025 218.777 344.207 218.925 344.346C219.072 344.485 219.254 344.593 219.471 344.671C219.696 344.749 220.012 344.836 220.42 344.931C220.957 345.052 221.39 345.178 221.72 345.308C222.058 345.438 222.344 345.646 222.578 345.932C222.82 346.209 222.942 346.591 222.942 347.076C222.942 347.674 222.712 348.159 222.253 348.532C221.802 348.905 221.191 349.091 220.42 349.091C219.527 349.091 218.803 348.883 218.249 348.467C217.703 348.051 217.373 347.47 217.261 346.725H218.704C218.747 347.115 218.92 347.431 219.224 347.674C219.527 347.917 219.926 348.038 220.42 348.038C220.775 348.038 221.052 347.947 221.252 347.765C221.46 347.574 221.564 347.336 221.564 347.05C221.564 346.799 221.486 346.599 221.33 346.452C221.174 346.305 220.979 346.192 220.745 346.114C220.511 346.027 220.19 345.941 219.783 345.854C219.263 345.733 218.838 345.611 218.509 345.49C218.188 345.369 217.911 345.174 217.677 344.905C217.451 344.628 217.339 344.255 217.339 343.787C217.339 343.18 217.564 342.691 218.015 342.318C218.474 341.937 219.107 341.746 219.913 341.746Z" fill="#C8C8C8"/>
<path d="M120.88 116L111.728 101.336H107.516V116H101.588V79.288H114.536C118.731 79.288 121.903 80.3107 124.052 82.356C126.236 84.4013 127.328 87.1053 127.328 90.468C127.328 93.3453 126.513 95.7027 124.884 97.54C123.289 99.3773 120.967 100.556 117.916 101.076L127.536 116H120.88ZM107.516 97.124H114.068C118.852 97.124 121.244 95.0093 121.244 90.78C121.244 88.7693 120.655 87.2093 119.476 86.1C118.332 84.956 116.529 84.384 114.068 84.384H107.516V97.124ZM148.994 95.304C151.455 96.0667 153.431 96.7947 154.922 97.488C156.447 98.1813 157.73 99.2387 158.77 100.66C159.845 102.047 160.382 103.901 160.382 106.224C160.382 108.027 159.914 109.708 158.978 111.268C158.077 112.793 156.707 114.024 154.87 114.96C153.033 115.896 150.779 116.364 148.11 116.364H148.006V120.524H146.238V116.26C142.806 115.983 139.998 114.908 137.814 113.036C135.63 111.129 134.417 108.72 134.174 105.808H140.518C140.657 107.16 141.211 108.391 142.182 109.5C143.187 110.609 144.539 111.303 146.238 111.58V99.776C143.395 98.9093 141.229 98.164 139.738 97.54C138.247 96.8813 136.93 95.8413 135.786 94.42C134.642 92.9987 134.07 91.092 134.07 88.7C134.07 86.7587 134.573 85.0427 135.578 83.552C136.618 82.0613 138.057 80.9 139.894 80.068C141.731 79.236 143.846 78.82 146.238 78.82V74.4H148.006V78.872C151.403 79.1147 154.107 80.12 156.118 81.888C158.129 83.656 159.29 85.892 159.602 88.596H153.206C152.998 87.348 152.443 86.2733 151.542 85.372C150.675 84.436 149.497 83.8293 148.006 83.552V94.992L148.994 95.304ZM140.414 88.492C140.414 90.0173 140.917 91.2307 141.922 92.132C142.927 92.9987 144.366 93.7613 146.238 94.42V83.396C144.435 83.4307 143.014 83.8987 141.974 84.8C140.934 85.6667 140.414 86.8973 140.414 88.492ZM148.006 111.736C149.913 111.736 151.386 111.233 152.426 110.228C153.501 109.223 154.038 107.94 154.038 106.38C154.038 104.785 153.518 103.555 152.478 102.688C151.438 101.787 149.947 101.007 148.006 100.348V111.736ZM167.385 111.372C173.001 107.524 177.491 103.763 180.853 100.088C184.251 96.3787 185.949 92.9467 185.949 89.792C185.949 87.92 185.481 86.4293 184.545 85.32C183.644 84.2107 182.171 83.656 180.125 83.656C178.011 83.656 176.416 84.3493 175.341 85.736C174.267 87.088 173.66 89.0293 173.521 91.56H167.749C167.992 87.3653 169.275 84.1587 171.597 81.94C173.955 79.7213 176.953 78.612 180.593 78.612C184.164 78.612 186.955 79.5653 188.965 81.472C191.011 83.344 192.033 85.944 192.033 89.272C192.033 91.9413 191.201 94.6453 189.537 97.384C187.908 100.123 185.828 102.653 183.297 104.976C180.767 107.264 178.149 109.24 175.445 110.904H192.865V115.74H167.385V111.372ZM206.613 105.392C206.891 107.368 207.567 108.893 208.641 109.968C209.751 111.043 211.241 111.58 213.113 111.58C215.748 111.58 217.707 110.54 218.989 108.46C220.307 106.345 220.965 103.035 220.965 98.528L220.913 96.76C220.359 98.632 219.197 100.14 217.429 101.284C215.696 102.393 213.668 102.948 211.345 102.948C207.74 102.948 204.915 101.873 202.869 99.724C200.824 97.54 199.801 94.5067 199.801 90.624C199.801 88.2667 200.269 86.152 201.205 84.28C202.141 82.408 203.545 80.9347 205.417 79.86C207.289 78.7507 209.595 78.196 212.333 78.196C217.637 78.196 221.277 79.8253 223.253 83.084C225.264 86.308 226.269 90.78 226.269 96.5C226.269 102.983 225.247 107.923 223.201 111.32C221.191 114.717 217.828 116.416 213.113 116.416C209.473 116.416 206.613 115.393 204.533 113.348C202.488 111.268 201.309 108.616 200.997 105.392H206.613ZM220.341 91.248C220.341 88.9947 219.683 87.1227 218.365 85.632C217.083 84.1067 215.141 83.344 212.541 83.344C210.392 83.344 208.659 83.9853 207.341 85.268C206.059 86.5507 205.417 88.3533 205.417 90.676C205.417 93.1373 206.059 95.0267 207.341 96.344C208.659 97.6613 210.444 98.32 212.697 98.32C214.015 98.32 215.245 98.06 216.389 97.54C217.568 96.9853 218.521 96.188 219.249 95.148C219.977 94.0733 220.341 92.7733 220.341 91.248ZM238.773 111.944C239.397 113.539 239.709 115.185 239.709 116.884C239.709 118.825 239.206 120.403 238.201 121.616C237.195 122.864 235.67 123.488 233.625 123.488V121.096C234.491 121.096 235.133 120.871 235.549 120.42C235.965 119.969 236.173 119.207 236.173 118.132V117.664H233.157V111.944H238.773ZM253.403 105.392C253.681 107.368 254.357 108.893 255.431 109.968C256.541 111.043 258.031 111.58 259.903 111.58C262.538 111.58 264.497 110.54 265.779 108.46C267.097 106.345 267.755 103.035 267.755 98.528L267.703 96.76C267.149 98.632 265.987 100.14 264.219 101.284C262.486 102.393 260.458 102.948 258.135 102.948C254.53 102.948 251.705 101.873 249.659 99.724C247.614 97.54 246.591 94.5067 246.591 90.624C246.591 88.2667 247.059 86.152 247.995 84.28C248.931 82.408 250.335 80.9347 252.207 79.86C254.079 78.7507 256.385 78.196 259.123 78.196C264.427 78.196 268.067 79.8253 270.043 83.084C272.054 86.308 273.059 90.78 273.059 96.5C273.059 102.983 272.037 107.923 269.991 111.32C267.981 114.717 264.618 116.416 259.903 116.416C256.263 116.416 253.403 115.393 251.323 113.348C249.278 111.268 248.099 108.616 247.787 105.392H253.403ZM267.131 91.248C267.131 88.9947 266.473 87.1227 265.155 85.632C263.873 84.1067 261.931 83.344 259.331 83.344C257.182 83.344 255.449 83.9853 254.131 85.268C252.849 86.5507 252.207 88.3533 252.207 90.676C252.207 93.1373 252.849 95.0267 254.131 96.344C255.449 97.6613 257.234 98.32 259.487 98.32C260.805 98.32 262.035 98.06 263.179 97.54C264.358 96.9853 265.311 96.188 266.039 95.148C266.767 94.0733 267.131 92.7733 267.131 91.248ZM281.038 97.384C281.038 103.243 282.078 107.836 284.158 111.164C286.238 114.457 289.705 116.104 294.558 116.104C299.412 116.104 302.878 114.44 304.958 111.112C307.038 107.784 308.078 103.208 308.078 97.384C308.078 91.5947 307.038 87.0533 304.958 83.76C302.878 80.432 299.412 78.768 294.558 78.768C289.705 78.768 286.238 80.4147 284.158 83.708C282.078 87.0013 281.038 91.56 281.038 97.384ZM302.15 97.384C302.15 101.613 301.63 104.855 300.59 107.108C299.55 109.361 297.54 110.488 294.558 110.488C291.542 110.488 289.514 109.361 288.474 107.108C287.434 104.855 286.914 101.613 286.914 97.384C286.914 93.1893 287.434 89.9827 288.474 87.764C289.514 85.5453 291.542 84.436 294.558 84.436C297.54 84.436 299.55 85.5627 300.59 87.816C301.63 90.0347 302.15 93.224 302.15 97.384Z" fill="white"/>
<path d="M162.294 36.292V49H160.242V36.292H162.294ZM171.221 38.92C172.373 38.92 173.297 39.292 173.993 40.036C174.689 40.78 175.037 41.842 175.037 43.222V49H172.985V43.438C172.985 42.55 172.757 41.866 172.301 41.386C171.845 40.894 171.221 40.648 170.429 40.648C169.613 40.648 168.959 40.912 168.467 41.44C167.975 41.956 167.729 42.718 167.729 43.726V49H165.677V39.082H167.729V41.26C167.993 40.516 168.437 39.94 169.061 39.532C169.685 39.124 170.405 38.92 171.221 38.92ZM182.315 38.956C183.215 38.956 183.983 39.178 184.619 39.622C185.255 40.066 185.699 40.654 185.951 41.386V35.68H188.021V49H185.951V46.696C185.699 47.428 185.255 48.016 184.619 48.46C183.983 48.904 183.215 49.126 182.315 49.126C181.451 49.126 180.677 48.922 179.993 48.514C179.321 48.106 178.793 47.518 178.409 46.75C178.025 45.982 177.833 45.076 177.833 44.032C177.833 43 178.025 42.1 178.409 41.332C178.793 40.564 179.321 39.976 179.993 39.568C180.677 39.16 181.451 38.956 182.315 38.956ZM182.945 40.756C182.033 40.756 181.301 41.05 180.749 41.638C180.209 42.214 179.939 43.012 179.939 44.032C179.939 45.052 180.209 45.856 180.749 46.444C181.301 47.02 182.033 47.308 182.945 47.308C183.521 47.308 184.037 47.176 184.493 46.912C184.949 46.636 185.309 46.252 185.573 45.76C185.837 45.268 185.969 44.692 185.969 44.032C185.969 43.384 185.837 42.814 185.573 42.322C185.309 41.818 184.949 41.434 184.493 41.17C184.037 40.894 183.521 40.756 182.945 40.756ZM191.095 36.202C191.095 35.854 191.215 35.566 191.455 35.338C191.695 35.11 192.013 34.996 192.409 34.996C192.805 34.996 193.123 35.11 193.363 35.338C193.615 35.566 193.741 35.854 193.741 36.202C193.741 36.55 193.615 36.832 193.363 37.048C193.123 37.264 192.805 37.372 192.409 37.372C192.013 37.372 191.695 37.264 191.455 37.048C191.215 36.832 191.095 36.55 191.095 36.202ZM193.435 39.082V49H191.383V39.082H193.435ZM200.887 46.876L203.695 39.082H205.891L202.111 49H199.627L195.847 39.082H198.043L200.887 46.876ZM208.013 36.202C208.013 35.854 208.133 35.566 208.373 35.338C208.613 35.11 208.931 34.996 209.327 34.996C209.723 34.996 210.041 35.11 210.281 35.338C210.533 35.566 210.659 35.854 210.659 36.202C210.659 36.55 210.533 36.832 210.281 37.048C210.041 37.264 209.723 37.372 209.327 37.372C208.931 37.372 208.613 37.264 208.373 37.048C208.133 36.832 208.013 36.55 208.013 36.202ZM210.353 39.082V49H208.301V39.082H210.353ZM217.714 38.956C218.614 38.956 219.382 39.178 220.018 39.622C220.654 40.066 221.098 40.654 221.35 41.386V35.68H223.42V49H221.35V46.696C221.098 47.428 220.654 48.016 220.018 48.46C219.382 48.904 218.614 49.126 217.714 49.126C216.85 49.126 216.076 48.922 215.392 48.514C214.72 48.106 214.192 47.518 213.808 46.75C213.424 45.982 213.232 45.076 213.232 44.032C213.232 43 213.424 42.1 213.808 41.332C214.192 40.564 214.72 39.976 215.392 39.568C216.076 39.16 216.85 38.956 217.714 38.956ZM218.344 40.756C217.432 40.756 216.7 41.05 216.148 41.638C215.608 42.214 215.338 43.012 215.338 44.032C215.338 45.052 215.608 45.856 216.148 46.444C216.7 47.02 217.432 47.308 218.344 47.308C218.92 47.308 219.436 47.176 219.892 46.912C220.348 46.636 220.708 46.252 220.972 45.76C221.236 45.268 221.368 44.692 221.368 44.032C221.368 43.384 221.236 42.814 220.972 42.322C220.708 41.818 220.348 41.434 219.892 41.17C219.436 40.894 218.92 40.756 218.344 40.756ZM235.926 39.082V49H233.856V46.84C233.604 47.572 233.166 48.142 232.542 48.55C231.918 48.946 231.192 49.144 230.364 49.144C229.212 49.144 228.288 48.772 227.592 48.028C226.896 47.284 226.548 46.222 226.548 44.842V39.082H228.6V44.626C228.6 45.526 228.828 46.222 229.284 46.714C229.74 47.194 230.364 47.434 231.156 47.434C231.972 47.434 232.626 47.17 233.118 46.642C233.61 46.114 233.856 45.346 233.856 44.338V39.082H235.926ZM243.262 38.956C244.162 38.956 244.93 39.178 245.566 39.622C246.202 40.066 246.652 40.654 246.916 41.386V39.082H248.968V49H246.916V46.696C246.652 47.428 246.202 48.016 245.566 48.46C244.93 48.904 244.162 49.126 243.262 49.126C242.398 49.126 241.624 48.922 240.94 48.514C240.268 48.106 239.74 47.518 239.356 46.75C238.972 45.982 238.78 45.076 238.78 44.032C238.78 43 238.972 42.1 239.356 41.332C239.74 40.564 240.268 39.976 240.94 39.568C241.624 39.16 242.398 38.956 243.262 38.956ZM243.892 40.756C242.98 40.756 242.248 41.05 241.696 41.638C241.156 42.214 240.886 43.012 240.886 44.032C240.886 45.052 241.156 45.856 241.696 46.444C242.248 47.02 242.98 47.308 243.892 47.308C244.468 47.308 244.984 47.176 245.44 46.912C245.896 46.636 246.256 46.252 246.52 45.76C246.784 45.268 246.916 44.692 246.916 44.032C246.916 43.384 246.784 42.814 246.52 42.322C246.256 41.818 245.896 41.434 245.44 41.17C244.984 40.894 244.468 40.756 243.892 40.756ZM254.382 35.68V49H252.33V35.68H254.382Z" fill="white"/>
<path d="M113.053 201.895L105.941 208.842L102.947 206L102 207.068L103.983 209.051L105.941 211.008L107.886 209.064L114 202.949L113.053 201.895Z" fill="#8BDB58"/>
<path d="M113.053 248.895L105.941 255.842L102.947 253L102 254.068L103.983 256.051L105.941 258.008L107.886 256.064L114 249.949L113.053 248.895Z" fill="#8BDB58"/>
<path d="M113.053 295.895L105.941 302.842L102.947 300L102 301.068L103.983 303.051L105.941 305.008L107.886 303.064L114 296.949L113.053 295.895Z" fill="#8BDB58"/>
<path d="M113.053 339.895L105.941 346.842L102.947 344L102 345.068L103.983 347.051L105.941 349.008L107.886 347.064L114 340.949L113.053 339.895Z" fill="#8BDB58"/>
<defs>
<filter id="filter0_dddd" x="0" y="457.499" width="414" height="292.501" filterUnits="userSpaceOnUse" color-interpolation-filters="sRGB">
<feFlood flood-opacity="0" result="BackgroundImageFix"/>
<feColorMatrix in="SourceAlpha" type="matrix" values="0 0 0 0 0 0 0 0 0 0 0 0 0 0 0 0 0 0 127 0"/>
<feOffset dy="5.60671"/>
<feGaussianBlur stdDeviation="3.05398"/>
<feColorMatrix type="matrix" values="0 0 0 0 0 0 0 0 0 0 0 0 0 0 0 0 0 0 0.04 0"/>
<feBlend mode="normal" in2="BackgroundImageFix" result="effect1_dropShadow"/>
<feColorMatrix in="SourceAlpha" type="matrix" values="0 0 0 0 0 0 0 0 0 0 0 0 0 0 0 0 0 0 127 0"/>
<feOffset dy="21.7966"/>
<feGaussianBlur stdDeviation="9.88882"/>
<feColorMatrix type="matrix" values="0 0 0 0 0 0 0 0 0 0 0 0 0 0 0 0 0 0 0.0249718 0"/>
<feBlend mode="normal" in2="effect1_dropShadow" result="effect2_dropShadow"/>
<feColorMatrix in="SourceAlpha" type="matrix" values="0 0 0 0 0 0 0 0 0 0 0 0 0 0 0 0 0 0 127 0"/>
<feOffset dy="58.6703"/>
<feGaussianBlur stdDeviation="20.1819"/>
<feColorMatrix type="matrix" values="0 0 0 0 0 0 0 0 0 0 0 0 0 0 0 0 0 0 0.0189592 0"/>
<feBlend mode="normal" in2="effect2_dropShadow" result="effect3_dropShadow"/>
<feColorMatrix in="SourceAlpha" type="matrix" values="0 0 0 0 0 0 0 0 0 0 0 0 0 0 0 0 0 0 127 0"/>
<feOffset dy="149"/>
<feGaussianBlur stdDeviation="43.5"/>
<feColorMatrix type="matrix" values="0 0 0 0 0 0 0 0 0 0 0 0 0 0 0 0 0 0 0.01343 0"/>
<feBlend mode="normal" in2="effect3_dropShadow" result="effect4_dropShadow"/>
<feBlend mode="normal" in="SourceGraphic" in2="effect4_dropShadow" result="shape"/>
</filter>
<linearGradient id="paint0_linear" x1="183.923" y1="534.5" x2="272.671" y2="472.834" gradientUnits="userSpaceOnUse">
<stop stop-color="#8BDB58"/>
<stop offset="1" stop-color="#68EF12"/>
</linearGradient>
</defs>
</svg>
