<svg width="48" height="48" viewBox="0 0 48 48" fill="none" xmlns="http://www.w3.org/2000/svg">
<g id="Play Store">
<g id="ion:logo-google-playstore">
<path id="Vector" d="M13.0436 10.6504V36.5057C13.0437 36.5618 13.0575 36.6166 13.0833 36.6632C13.1091 36.7098 13.1456 36.7462 13.1884 36.7678C13.2312 36.7894 13.2783 36.7952 13.3238 36.7845C13.3693 36.7738 13.4111 36.7471 13.4441 36.7077L24.5653 23.5787L13.4441 10.4485C13.4111 10.4091 13.3693 10.3824 13.3238 10.3717C13.2783 10.361 13.2312 10.3668 13.1884 10.3884C13.1456 10.4099 13.1091 10.4463 13.0833 10.4929C13.0575 10.5396 13.0437 10.5943 13.0436 10.6504Z" fill="#8BDB58"/>
<path id="Vector_2" d="M29.2283 18.1842L15.2837 8.88422L15.275 8.8783C15.0348 8.7204 14.8065 9.11383 15.0033 9.34277L25.9342 21.9954L29.2283 18.1842Z" fill="#8BDB58"/>
<path id="Vector_3" d="M15.0043 37.8151C14.8064 38.044 15.0347 38.4374 15.276 38.2796L15.2847 38.2736L29.2282 28.9736L25.9342 25.1611L15.0043 37.8151Z" fill="#8BDB58"/>
<path id="Vector_4" d="M34.8576 21.9342L30.9635 19.3381L27.3021 23.5789L30.9635 27.8177L34.8576 25.2237C35.9168 24.5151 35.9168 22.6427 34.8576 21.9342Z" fill="#8BDB58"/>
</g>
<path id="Rectangle 6" d="M7.71429 0.857143H40.2857C44.0728 0.857143 47.1429 3.92719 47.1429 7.71429V40.2857C47.1429 44.0728 44.0728 47.1429 40.2857 47.1429H7.71429C3.92719 47.1429 0.857143 44.0728 0.857143 40.2857V7.71429C0.857143 3.92719 3.92719 0.857143 7.71429 0.857143Z" stroke="url(#paint0_linear)" stroke-width="1.71429"/>
</g>
<defs>
<linearGradient id="paint0_linear" x1="24" y1="0" x2="24" y2="48" gradientUnits="userSpaceOnUse">
<stop stop-color="#8BDB58"/>
<stop offset="1" stop-color="#64FF01"/>
</linearGradient>
</defs>
</svg>
