<svg class="tela-inicial" width="234" height="474" viewBox="0 0 234 474" fill="none" xmlns="http://www.w3.org/2000/svg">
<g clip-path="url(#clip0)">
<rect width="233.518" height="473.27" rx="33.0871" fill="white"/>
<rect width="233.518" height="473.269" rx="33.0856" fill="#444444"/>
<rect x="7.88501" y="12.7373" width="218.354" height="453.085" rx="26.6877" fill="url(#paint0_linear)"/>
<path d="M52.5057 10.5491L50.5876 9.82985L178.135 9.1106C178.135 9.1106 175.498 10.7968 174.059 12.9545C173.125 14.3568 173.97 16.5896 173.58 18.2291C172.899 21.0891 171.583 22.6234 169.504 24.7023C166.867 27.3396 163.75 27.5793 163.75 27.5793L69.7677 27.8191C69.7677 27.8191 64.2713 26.3015 61.8559 23.7433C60.3013 22.0967 59.4879 20.6041 58.9789 18.2291C58.2597 14.8725 59.9379 15.1123 58.2597 12.7148C57.3856 11.4661 52.5057 10.5491 52.5057 10.5491Z" fill="#444444"/>
<rect x="79.4565" y="13.3438" width="52.7689" height="4.85231" rx="2.42616" fill="#8F8F8F"/>
<circle cx="146.782" cy="15.7699" r="2.42616" fill="#8F8F8F"/>
<path d="M108.755 200.887H99.8065V227.209C99.8065 227.209 98.4059 228.22 96.3158 230.731C94.239 233.227 91.8931 237.728 90.9211 241.792C89.2565 248.751 89.8421 255.385 89.8421 255.385C89.8421 255.385 92.1574 249.68 94.4752 246.611C96.5723 243.834 99.743 240.988 99.743 240.988V268.546H108.755V236.539C108.755 236.539 114.984 235.003 120.307 237.528C125.771 240.12 130.382 247.597 132.683 254.335C135.217 261.757 135.158 268.361 135.158 268.361H147.534C147.534 268.361 147.226 260.526 143.79 250.875C142.375 246.901 139.836 241.902 137.506 238.146C134.429 233.186 129.082 228.834 124.686 226.468C117.694 222.704 108.755 223.317 108.755 223.317V200.887Z" fill="white"/>
</g>
<defs>
<linearGradient id="paint0_linear" x1="45.9087" y1="380.085" x2="240.944" y2="28.7142" gradientUnits="userSpaceOnUse">
<stop stop-color="#8BDB58"/>
<stop offset="1" stop-color="#66FF04"/>
</linearGradient>
<clipPath id="clip0">
<rect width="233.518" height="473.27" rx="33.0871" fill="white"/>
</clipPath>
</defs>
</svg>
