<svg width="50" height="50" viewBox="0 0 50 50" fill="none" xmlns="http://www.w3.org/2000/svg">
<path d="M47.9167 6.25008C45.9216 7.65732 43.7127 8.73364 41.375 9.43758C40.1203 7.99489 38.4528 6.97235 36.598 6.50825C34.7432 6.04416 32.7906 6.1609 31.0043 6.84269C29.2181 7.52447 27.6843 8.73841 26.6104 10.3203C25.5365 11.9022 24.9744 13.7758 25 15.6876V17.7709C21.3388 17.8658 17.711 17.0539 14.4396 15.4073C11.1682 13.7607 8.35484 11.3306 6.25001 8.33341C6.25001 8.33341 -2.08332 27.0834 16.6667 35.4167C12.3761 38.3292 7.26492 39.7895 2.08334 39.5834C20.8333 50.0001 43.75 39.5834 43.75 15.6251C43.7481 15.0448 43.6923 14.4659 43.5833 13.8959C45.7096 11.799 47.2101 9.15156 47.9167 6.25008V6.25008Z" stroke="white" stroke-width="3.84615" stroke-linecap="round" stroke-linejoin="round"/>
</svg>
