<svg width="32" height="26" viewBox="0 0 32 26" fill="none" xmlns="http://www.w3.org/2000/svg">
<path d="M30.6666 0.99998C29.3898 1.90062 27.9761 2.58946 26.48 3.03998C25.677 2.11666 24.6098 1.46224 23.4227 1.16521C22.2356 0.868194 20.986 0.942907 19.8428 1.37925C18.6995 1.81559 17.7179 2.59251 17.0306 3.60494C16.3433 4.61736 15.9836 5.81643 16 7.03998V8.37331C13.6568 8.43407 11.335 7.9144 9.24132 6.86057C7.14764 5.80675 5.34707 4.25149 3.99998 2.33331C3.99998 2.33331 -1.33335 14.3333 10.6666 19.6666C7.92068 21.5306 4.64952 22.4652 1.33331 22.3333C13.3333 29 28 22.3333 28 6.99998C27.9988 6.62858 27.963 6.25811 27.8933 5.89331C29.2541 4.5513 30.2144 2.85693 30.6666 0.99998V0.99998Z" stroke="#999999" stroke-width="1.5" stroke-linecap="round" stroke-linejoin="round"/>
</svg>
