<svg width="60" height="43" viewBox="0 0 60 43" fill="none" xmlns="http://www.w3.org/2000/svg">
<path d="M56.98 8.17679C56.6768 6.96545 56.0593 5.85557 55.1899 4.95926C54.3205 4.06295 53.2299 3.41195 52.0284 3.07201C47.6383 2 30.0778 2 30.0778 2C30.0778 2 12.5173 2 8.1272 3.1741C6.92566 3.51404 5.8351 4.16504 4.96567 5.06136C4.09625 5.95767 3.47876 7.06755 3.17556 8.27889C2.3721 12.7342 1.97909 17.2539 2.00146 21.781C1.97282 26.3423 2.36586 30.8964 3.17556 35.3853C3.50982 36.559 4.14115 37.6267 5.00855 38.4851C5.87594 39.3436 6.95009 39.9638 8.1272 40.2859C12.5173 41.46 30.0778 41.46 30.0778 41.46C30.0778 41.46 47.6383 41.46 52.0284 40.2859C53.2299 39.946 54.3205 39.295 55.1899 38.3986C56.0593 37.5023 56.6768 36.3925 56.98 35.1811C57.7773 30.7593 58.1703 26.2741 58.1541 21.781C58.1828 17.2198 57.7897 12.6657 56.98 8.17679V8.17679Z" stroke="white" stroke-width="3" stroke-linecap="round" stroke-linejoin="round"/>
<path d="M24.3349 30.1273L39.0112 21.781L24.3349 13.4347V30.1273Z" stroke="white" stroke-width="3" stroke-linecap="round" stroke-linejoin="round"/>
</svg>
