<svg width="32" height="23" viewBox="0 0 32 23" fill="none" xmlns="http://www.w3.org/2000/svg">
<path d="M30.0533 4.56004C29.895 3.92725 29.5724 3.34747 29.1182 2.87925C28.664 2.41103 28.0943 2.07095 27.4667 1.89337C25.1733 1.33337 16 1.33337 16 1.33337C16 1.33337 6.82668 1.33337 4.53334 1.94671C3.90567 2.12429 3.33598 2.46436 2.8818 2.93258C2.42763 3.4008 2.10506 3.98059 1.94668 4.61337C1.52696 6.94078 1.32166 9.30179 1.33334 11.6667C1.31838 14.0494 1.5237 16.4284 1.94668 18.7734C2.12129 19.3865 2.45108 19.9442 2.9042 20.3927C3.35732 20.8411 3.91844 21.1651 4.53334 21.3334C6.82668 21.9467 16 21.9467 16 21.9467C16 21.9467 25.1733 21.9467 27.4667 21.3334C28.0943 21.1558 28.664 20.8157 29.1182 20.3475C29.5724 19.8793 29.895 19.2995 30.0533 18.6667C30.4698 16.3568 30.6751 14.0138 30.6667 11.6667C30.6816 9.28398 30.4763 6.90497 30.0533 4.56004V4.56004Z" stroke="#999999" stroke-width="1.5" stroke-linecap="round" stroke-linejoin="round"/>
<path d="M13 16.0266L20.6667 11.6666L13 7.30664V16.0266Z" stroke="#999999" stroke-width="1.5" stroke-linecap="round" stroke-linejoin="round"/>
</svg>
